<?xml version="1.0" encoding="utf-8"?>
<!-- Generator: Adobe Illustrator 18.1.1, SVG Export Plug-In . SVG Version: 6.00 Build 0)  -->
<svg version="1.1" id="Layer_1" xmlns="http://www.w3.org/2000/svg" xmlns:xlink="http://www.w3.org/1999/xlink" x="0px" y="0px"
	 viewBox="938.8 206.582 400 400" enable-background="new 938.8 206.582 400 400" xml:space="preserve">
<path d="M1311.532,372.978c-4.062-4.466-9.88-7.028-15.966-7.028h-22.399c-3.325,0-6.066-1.974-7.011-5.116
	c-1.227-3.682-2.928-7.71-5.057-11.975c-1.234-2.842-0.605-6.312,1.476-8.095l0.088-0.075l15.761-15.762
	c8.313-8.313,8.313-22.361,0-30.674l-26.432-26.432c-4.033-4.034-9.48-6.255-15.337-6.255c-5.857,0-11.305,2.221-15.338,6.255
	l-15.68,15.68c-1.467,1.467-3.346,2.274-5.291,2.274c-1.024,0-2.04-0.22-3.018-0.655c-0.955-0.424-1.884-0.848-2.8-1.267
	c-3.033-1.385-5.898-2.693-9.117-3.766c-2.965-0.988-5.117-3.937-5.117-7.01v-22.4c0-12.029-9.787-21.816-21.816-21.816h-37.632
	c-12.029,0-21.815,9.787-21.815,21.816v24.64c0,2.854-2.008,5.675-4.669,6.562l-0.104,0.037c-3.705,1.389-7.396,3.231-10.976,5.021
	c-1.145,0.5-2.337,0.764-3.453,0.764c-1.212,0-2.923-0.311-4.192-1.792l-0.075-0.087l-18.002-18.001
	c-4.033-4.034-9.479-6.255-15.337-6.255c-5.856,0-11.304,2.221-15.337,6.255l-26.432,26.432c-8.314,8.313-8.314,22.361,0,30.674
	l19.712,19.712c1.853,1.853,2.381,4.986,1.229,7.289l-0.074,0.16c-0.693,1.62-1.273,3.126-1.834,4.583
	c-0.565,1.471-1.1,2.86-1.75,4.377l-0.049,0.115l-0.04,0.118c-0.96,2.88-3.475,4.669-6.562,4.669h-28.224
	c-12.03,0-21.816,9.787-21.816,21.816v37.632c0,12.029,9.786,21.816,21.816,21.816h30.464c3.41,0,5.267,2.194,6.23,4.075
	l3.124,7.584c1.27,2.855,0.648,6.039-1.62,8.308l-21.056,21.057c-4.034,4.033-6.255,9.479-6.255,15.337s2.221,11.304,6.255,15.337
	l26.432,26.432c4.033,4.033,9.48,6.255,15.338,6.255c5.856,0,11.304-2.222,15.337-6.255l21.056-21.056
	c1.467-1.467,3.346-2.274,5.291-2.274c1.025,0,2.04,0.22,3.033,0.661l7.152,3.13c2.938,1.306,4.49,3.766,4.49,7.114v29.568
	c0,12.029,9.787,21.815,21.816,21.815h37.632c12.029,0,21.815-9.786,21.815-21.815v-28.225c0-2.834,1.979-5.636,4.614-6.543
	c2.933-0.844,6.098-2.11,9.408-3.765c0.806-0.403,1.734-0.616,2.686-0.616c1.727,0,3.447,0.69,4.604,1.846l19.712,19.712
	c4.033,4.033,9.479,6.255,15.337,6.255s11.304-2.222,15.337-6.255l26.432-26.433c4.033-4.033,6.255-9.479,6.255-15.337
	s-2.222-11.304-6.255-15.337l-17.92-17.92c-2.064-2.065-2.548-5.103-1.229-7.737c0.93-1.861,1.743-3.719,2.529-5.516
	c0.791-1.807,1.537-3.513,2.399-5.236l0.058-0.124c1.354-3.046,3.908-4.938,6.666-4.938h24.641c12.029,0,21.815-9.787,21.815-21.816
	v-37.496C1316.925,381.954,1315.169,376.978,1311.532,372.978z M1302.423,425.398c0,3.716-3.14,6.856-6.856,6.856h-24.64
	c-9,0-16.919,5.324-20.668,13.894l-0.061,0.149c-1.481,3.95-2.761,6.768-4.276,9.421l-0.079,0.146
	c-4.249,8.498-2.526,18.771,4.187,25.007l17.88,17.88c2.44,2.441,2.403,6.872-0.068,9.714l-26.363,26.364
	c-1.167,1.167-2.82,1.809-4.655,1.809c-1.873,0-3.666-0.665-5.058-1.876l-19.645-19.645c-4.161-4.162-9.629-6.454-15.396-6.454
	c-2.942,0-5.814,0.604-8.536,1.795l-0.14,0.064c-2.67,1.335-5.42,2.199-7.994,2.935l-0.175,0.056
	c-8.968,3.166-14.993,11.504-14.993,20.749v28.225c0,3.716-3.14,6.855-6.856,6.855h-37.632c-3.716,0-6.855-3.14-6.855-6.855v-29.568
	c0-8.982-5.278-17.096-13.446-20.668l-7.292-3.19l-1.11-0.375c-2.437-0.83-4.738-1.614-7.583-1.614
	c-6.089,0-11.625,2.317-16.01,6.703l-21.056,21.056c-1.167,1.167-2.82,1.809-4.655,1.809c-1.873,0-3.666-0.665-5.058-1.876
	l-26.364-26.364c-2.441-2.441-2.404-6.872,0.067-9.714l20.988-20.988c6.56-6.56,8.388-16.305,4.685-24.767l-3.191-7.743
	c-3.666-7.856-11.416-12.932-19.743-12.932h-30.464c-3.716,0-6.855-3.14-6.855-6.856v-37.632c0-3.716,3.14-6.856,6.855-6.856h28.225
	c9.568,0,17.72-5.905,20.766-15.043c0.427-1.279,0.983-2.727,1.522-4.127c0.546-1.419,1.109-2.886,1.571-4.258
	c3.489-8.115,1.646-17.444-4.714-23.804l-19.713-19.712c-2.44-2.441-2.403-6.871,0.068-9.713l26.364-26.365
	c1.167-1.167,2.819-1.809,4.654-1.809c1.873,0,3.666,0.666,5.059,1.877l17.853,17.852c4.152,4.153,9.595,6.44,15.324,6.44
	c3.354,0,6.599-0.771,9.643-2.294l0.146-0.079c2.261-1.292,4.834-2.36,7.323-3.393c0.759-0.315,1.504-0.625,2.187-0.917
	c8.737-3.597,13.954-11.333,13.954-20.694v-24.64c0-3.716,3.14-6.856,6.855-6.856h37.632c3.717,0,6.856,3.14,6.856,6.856v22.4
	c0,9.365,6.166,18.082,14.938,21.177c0.767,0.287,1.553,0.575,2.352,0.866c2.895,1.058,5.888,2.151,8.625,3.519
	c3.004,1.414,6.172,2.131,9.415,2.131c5.92,0,11.579-2.399,15.935-6.755l15.681-15.681c1.167-1.167,2.82-1.809,4.654-1.809
	c1.873,0,3.667,0.666,5.059,1.877l26.364,26.364c2.44,2.441,2.403,6.871-0.068,9.713l-15.611,15.612
	c-6.583,6.583-8.379,16.245-4.686,25.215l0.042,0.102l0.049,0.098c1.505,3.01,2.797,6.242,4.335,10.856
	c3.165,8.969,11.684,14.994,21.197,14.994h22.399c3.717,0,6.856,3.14,6.856,6.856V425.398z M1139.663,333.247
	c-19.652,0-38.086,7.611-51.905,21.431c-13.82,13.82-21.431,32.253-21.431,51.905s7.61,38.085,21.431,51.905
	c13.819,13.819,32.253,21.431,51.905,21.431c19.651,0,38.085-7.611,51.905-21.431c13.819-13.82,21.431-32.253,21.431-51.905
	s-7.611-38.085-21.431-51.905C1177.748,340.857,1159.315,333.247,1139.663,333.247z M1139.663,464.958
	c-32.188,0-58.376-26.188-58.376-58.376s26.188-58.376,58.376-58.376s58.376,26.188,58.376,58.376
	S1171.852,464.958,1139.663,464.958z"/>
</svg>
