<?xml version="1.0" encoding="utf-8"?>
<!-- Generator: Adobe Illustrator 18.1.1, SVG Export Plug-In . SVG Version: 6.00 Build 0)  -->
<svg version="1.1" id="Layer_1" xmlns="http://www.w3.org/2000/svg" xmlns:xlink="http://www.w3.org/1999/xlink" x="0px" y="0px"
	 viewBox="-321.2 206.582 400 400" enable-background="new -321.2 206.582 400 400" xml:space="preserve">
<path d="M9.433,206.582h-261.266c-36.626,0-66.424,29.798-66.424,66.424v321.488c0,6.665,5.423,12.088,12.088,12.088h0.004
	c3.653-0.005,7.067-1.635,9.368-4.472l54.784-67.522H9.433c36.627,0,66.424-29.798,66.424-66.425V273.006
	C75.857,236.38,46.059,206.582,9.433,206.582z M51.681,468.163c0,23.296-18.952,42.248-42.248,42.248h-252.905
	c-6.403,0-12.388,2.852-16.421,7.824l-34.188,42.167V273.006c0-23.295,18.952-42.248,42.248-42.248H9.433
	c23.296,0,42.248,18.952,42.248,42.248V468.163z M-121.2,336.4c-6.665,0-12.088,5.423-12.088,12.088v96.447
	c0,6.665,5.423,12.088,12.088,12.088c6.666,0,12.088-5.423,12.088-12.088v-96.447C-109.112,341.823-114.535,336.4-121.2,336.4z
	 M-121.2,286.592c-6.665,0-12.088,5.423-12.088,12.088v14.942c0,6.666,5.423,12.089,12.088,12.089
	c6.666,0,12.088-5.423,12.088-12.089V298.68C-109.112,292.015-114.535,286.592-121.2,286.592z"/>
</svg>
