<?xml version="1.0" encoding="utf-8"?>
<!-- Generator: Adobe Illustrator 18.1.1, SVG Export Plug-In . SVG Version: 6.00 Build 0)  -->
<svg version="1.1" id="Layer_1" xmlns="http://www.w3.org/2000/svg" xmlns:xlink="http://www.w3.org/1999/xlink" x="0px" y="0px"
	 viewBox="-741.2 206.582 400 400" enable-background="new -741.2 206.582 400 400" xml:space="preserve">
<path d="M-374.435,206.543h-333.414c-18.343,0-33.351,15.008-33.351,33.351v333.335c0,18.429,14.963,33.392,33.313,33.392h333.335
	c18.343,0,33.351-15.008,33.351-33.351V239.857C-341.122,221.507-356.085,206.543-374.435,206.543z M-374.435,584.413h-333.414
	c-6.154,0-11.142-4.988-11.142-11.142V239.894c0-6.154,4.988-11.142,11.142-11.142h333.297c6.154,0,11.142,4.988,11.142,11.142
	v333.414h0.079C-363.331,579.451-368.292,584.413-374.435,584.413z M-424.444,379.344h-234.215c-6.544,0-12.168,5.129-12.254,11.672
	c-0.087,6.619,5.232,11.992,11.831,11.992h45.01c0.022,0,0.04,0.018,0.04,0.04v101.793c0,19.545,15.991,35.536,35.536,35.536h80.395
	c19.545,0,35.536-15.991,35.536-35.536V403.048c0-0.022,0.018-0.04,0.04-0.04h38.081c6.545,0,11.832-5.287,11.832-11.832
	C-412.528,384.631-417.899,379.344-424.444,379.344z M-486.229,504.841c0,6.557-5.315,11.872-11.872,11.872h-80.395
	c-6.557,0-11.872-5.315-11.872-11.872V403.048c0-0.022,0.018-0.04,0.04-0.04h104.058c0.022,0,0.04,0.018,0.04,0.04V504.841z"/>
</svg>
