<?xml version="1.0" encoding="utf-8"?>
<!-- Generator: Adobe Illustrator 18.1.1, SVG Export Plug-In . SVG Version: 6.00 Build 0)  -->
<svg version="1.1" id="Layer_1" xmlns="http://www.w3.org/2000/svg" xmlns:xlink="http://www.w3.org/1999/xlink" x="0px" y="0px"
	 viewBox="518.8 206.582 400 400" enable-background="new 518.8 206.582 400 400" xml:space="preserve">
<path d="M908.763,378.146c5.534,0,10.037-4.503,10.037-10.037v-79.352c0-5.534-4.503-10.037-10.037-10.037h-20.02v-35.049
	c0-12.164-9.896-22.06-22.061-22.06H540.859c-12.164,0-22.06,9.896-22.06,22.06v325.823c0,12.163,9.896,22.059,22.06,22.059h325.823
	c12.165,0,22.061-9.896,22.061-22.059v-35.049h20.02c5.534,0,10.037-4.503,10.037-10.038v-79.351
	c0-5.534-4.503-10.037-10.037-10.037h-20.02v-56.873H908.763z M868.669,569.495c0,1.094-0.891,1.985-1.987,1.985H540.859
	c-1.095,0-1.986-0.891-1.986-1.985V243.671c0-1.095,0.891-1.986,1.986-1.986h325.823c1.096,0,1.987,0.891,1.987,1.986v35.049
	h-18.217c-5.535,0-10.038,4.503-10.038,10.037v79.352c0,5.534,4.502,10.037,10.038,10.037h18.217v56.873h-18.217
	c-5.535,0-10.038,4.503-10.038,10.037v79.351c0,5.535,4.502,10.038,10.038,10.038h18.217V569.495z M898.726,455.094v59.277h-38.237
	v-59.277H898.726z M860.488,358.072v-59.278h38.237v59.278H860.488z M685.737,315.991c-49.953,0-90.591,40.639-90.591,90.591
	c0,49.952,40.639,90.591,90.591,90.591s90.591-40.638,90.591-90.591C776.328,356.63,735.689,315.991,685.737,315.991z M755,419.626
	c-5.467,29.59-29.437,52.667-59.226,56.993v-39.796h-20.074v39.198c-29.551-4.271-53.495-27.098-59.185-56.395h41.387v-20.075
	h-42.407c3.11-32.346,28.05-58.435,60.205-63.015v44.616h20.074v-44.616c32.154,4.581,57.095,30.669,60.205,63.015h-42.407v20.075
	H755z"/>
</svg>
