<?xml version="1.0" encoding="utf-8"?>
<!-- Generator: Adobe Illustrator 18.1.1, SVG Export Plug-In . SVG Version: 6.00 Build 0)  -->
<svg version="1.1" id="Layer_1" xmlns="http://www.w3.org/2000/svg" xmlns:xlink="http://www.w3.org/1999/xlink" x="0px" y="0px"
	 viewBox="-2421.2 206.582 400 400" enable-background="new -2421.2 206.582 400 400" xml:space="preserve">
<path d="M-2206.318,511.891c-2.051-0.493-4.331-0.763-6.776-0.803c-2.513-0.042-5.262-0.061-8.65-0.061
	c-1.814,0-3.628,0.005-5.443,0.01c-1.817,0.005-3.634,0.011-5.451,0.011h-0.368c-0.27,0-0.539-0.015-0.81-0.03l-1.635-0.077v-7.591
	h29.237v-4.342h-29.246v-9.597h35.009v-4.249h-40.728v13.913h-6.745v4.326h6.767v42.648c2.439,0.001,4.877,0.005,7.316,0.009
	c2.607,0.005,5.213,0.009,7.82,0.009c5.262,0,9.511-0.019,13.369-0.061c2.207-0.024,4.536-0.337,6.737-0.905
	c5.379-1.389,8.866-4.803,10.366-10.149c0.965-3.439,1.112-7.085,0.436-10.836C-2196.304,517.504-2200.074,513.392-2206.318,511.891
	z M-2201.014,533.02c-1.184,3.636-3.803,6.06-7.783,7.205c-1.8,0.519-3.5,0.792-5.053,0.813c-3.658,0.048-7.244,0.055-9.959,0.055
	c-1.567,0-7.835-0.009-9.401-0.009h-0.306c-0.163,0-0.326-0.015-0.511-0.034l-1.45-0.125v-26.039l1.302-0.071l0.303-0.019
	c0.247-0.017,0.478-0.032,0.708-0.032c0,0,8.56-0.011,10.458-0.011c2.608,0,5.216,0.005,7.824,0.023
	c3.408,0.023,6.118,0.616,8.526,1.869c3.284,1.709,5.274,4.624,5.914,8.667C-2200.021,527.969-2200.213,530.564-2201.014,533.02z
	 M-2024.646,481.285h-58.573c-1.903,0-3.446,1.542-3.446,3.445v25.832h-63.34c-0.577,0-1.112,0.155-1.59,0.406
	c-0.487-11.281-3.668-21.873-8.915-31.151l65.305-110.947c0.116-0.197,0.208-0.402,0.281-0.61h25.122
	c1.903,0,3.446-1.543,3.446-3.445v-58.556c0-1.903-1.542-3.445-3.446-3.445h-58.573c-1.903,0-3.445,1.543-3.445,3.445v58.556
	c0,1.903,1.542,3.445,3.445,3.445h25.534l-61.836,105.055c-12.116-16.781-31.509-27.974-53.514-28.913
	c0.27-0.492,0.438-1.048,0.438-1.649V294.945h25.85c1.903,0,3.446-1.543,3.446-3.445v-58.573c0-1.903-1.542-3.445-3.446-3.445
	h-58.573c-1.903,0-3.446,1.543-3.446,3.445V291.5c0,1.903,1.543,3.445,3.446,3.445h25.833v147.808c0,0.601,0.167,1.157,0.438,1.649
	c-21.249,0.907-40.061,11.375-52.238,27.202l-63.05-103.343h25.479c1.903,0,3.445-1.543,3.445-3.445v-58.556
	c0-1.903-1.543-3.445-3.445-3.445h-58.573c-1.903,0-3.446,1.543-3.446,3.445v58.556c0,1.903,1.543,3.445,3.446,3.445h25.114
	c0.079,0.225,0.18,0.445,0.309,0.656l66.444,108.908c-5.959,9.767-9.579,21.108-10.086,33.241l-64.927-0.478V484.73
	c0-1.903-1.543-3.445-3.446-3.445h-58.573c-1.903,0-3.445,1.542-3.445,3.445v58.573c0,1.903,1.543,3.445,3.445,3.445h58.573
	c1.903,0,3.446-1.542,3.446-3.445v-25.825l64.974,0.478c2.055,36.589,32.468,65.727,69.562,65.727
	c37.4,0,68.008-29.622,69.606-66.636c0.478,0.25,1.013,0.406,1.59,0.406h63.34v25.85c0,1.903,1.542,3.445,3.446,3.445h58.573
	c1.903,0,3.445-1.542,3.445-3.445V484.73C-2021.2,482.827-2022.743,481.285-2024.646,481.285z M-2124.93,361.369v-51.665h51.682
	v51.665H-2124.93z M-2369.145,361.369v-51.665h51.682v51.665H-2369.145z M-2362.627,539.858h-51.682v-51.682h51.682V539.858z
	 M-2247.033,288.054v-51.682h51.683v51.682H-2247.033z M-2221.2,576.793c-34.62,0-62.785-28.165-62.785-62.785
	c0-12.26,3.536-23.709,9.637-33.386c0.52-0.442,0.88-1.013,1.065-1.639c11.29-16.733,30.423-27.759,52.083-27.759
	c34.62,0,62.785,28.165,62.785,62.785C-2158.415,548.628-2186.58,576.793-2221.2,576.793z M-2028.091,539.858h-51.682v-51.682
	h51.682V539.858z"/>
</svg>
