<?xml version="1.0" encoding="utf-8"?>
<!-- Generator: Adobe Illustrator 18.1.1, SVG Export Plug-In . SVG Version: 6.00 Build 0)  -->
<svg version="1.1" id="Layer_1" xmlns="http://www.w3.org/2000/svg" xmlns:xlink="http://www.w3.org/1999/xlink" x="0px" y="0px"
	 viewBox="-2841.2 206.582 400 400" enable-background="new -2841.2 206.582 400 400" xml:space="preserve">
<path d="M-2505.434,206.582c-35.419,0-64.234,28.815-64.234,64.234c0,16.008,5.949,31.353,16.75,43.209
	c10.73,11.777,25.312,19.127,41.058,20.697l3.287,0.327v81.97h-129.488v-27.664l3.287-0.327c15.745-1.57,30.326-8.921,41.057-20.7
	c10.801-11.856,16.75-27.201,16.75-43.207c0-35.419-28.815-64.234-64.234-64.234c-35.419,0-64.234,28.815-64.234,64.234
	c0,16.008,5.949,31.353,16.75,43.209c10.73,11.777,25.311,19.127,41.057,20.697l3.287,0.327v27.664h-129.488v-81.97l3.287-0.327
	c15.745-1.57,30.327-8.921,41.057-20.699c10.802-11.857,16.75-27.201,16.75-43.207c0-35.419-28.815-64.234-64.234-64.234
	s-64.234,28.815-64.234,64.234c0,16.008,5.949,31.353,16.751,43.209c10.729,11.777,25.311,19.127,41.057,20.697l3.287,0.327v85.109
	c0,1.731,1.408,3.139,3.139,3.139h132.627v43.59l-19.215-19.215l-4.438,4.438l24.573,24.573c0.594,0.594,1.382,0.921,2.219,0.921
	c0.837,0,1.625-0.327,2.219-0.92l24.573-24.573l-4.438-4.438l-19.214,19.215v-43.59h132.627c1.73,0,3.139-1.408,3.139-3.139V335.05
	l3.287-0.327c15.746-1.57,30.327-8.921,41.058-20.7c10.801-11.857,16.75-27.201,16.75-43.206
	C-2441.2,235.398-2470.016,206.582-2505.434,206.582z M-2834.922,270.816c0-31.957,25.999-57.956,57.956-57.956
	c31.957,0,57.955,25.999,57.955,57.956c0,31.957-25.999,57.955-57.955,57.955C-2808.923,328.772-2834.922,302.773-2834.922,270.816z
	 M-2641.2,383.078c-31.957,0-57.956-25.999-57.956-57.956c0-31.957,25.999-57.955,57.956-57.955
	c31.957,0,57.955,25.999,57.955,57.955C-2583.245,357.08-2609.244,383.078-2641.2,383.078z M-2505.434,328.772
	c-31.957,0-57.956-25.999-57.956-57.955c0-31.957,25.999-57.956,57.956-57.956s57.956,25.999,57.956,57.956
	C-2447.479,302.773-2473.477,328.772-2505.434,328.772z M-2506.448,469.758c-4.187,0-8.295,1.475-11.569,4.152l-52.441,42.907
	l-2.188-3.559c-3.074-5.003-8.401-7.99-14.249-7.99h-39.99l-12.913-6.46c-0.43-0.215-0.915-0.328-1.404-0.328h-67.883
	c-0.676,0-1.344,0.222-1.884,0.628l-22.609,16.953l-6.908-9.506c-0.491-0.675-1.241-1.131-2.059-1.251
	c-0.156-0.023-0.315-0.035-0.473-0.035c-0.69,0-1.345,0.217-1.892,0.626l-27.152,20.365c-1.364,1.023-1.657,2.977-0.652,4.358
	l54.307,74.672c0.49,0.674,1.241,1.13,2.115,1.259c0.136,0.022,0.28,0.034,0.418,0.034c0.677,0,1.344-0.222,1.884-0.628
	l27.149-20.362c0.339-0.255,0.616-0.564,0.823-0.917c0.204-0.349,0.344-0.741,0.403-1.133c0.125-0.82-0.075-1.639-0.569-2.316
	l-3.229-4.46l8.219-4.127h107.875c0.787,0,1.538-0.29,2.116-0.818l77.716-70.927c3.412-3.44,5.29-8.002,5.29-12.854
	c0-4.873-1.899-9.459-5.346-12.911C-2497.007,471.666-2501.591,469.758-2506.448,469.758z M-2715.206,599.018l-50.616-69.589
	l22.133-16.599l50.616,69.599L-2715.206,599.018z M-2497.757,496.305l-0.065,0.066l-76.714,69.992h-107.394
	c-0.49,0-0.974,0.113-1.403,0.327l-9.838,4.919l-36.707-50.476l21.839-16.375h66.098l12.915,6.461
	c0.428,0.214,0.913,0.327,1.402,0.327h40.73c5.749,0,10.434,4.579,10.444,10.213c0,6.278-4.295,10.662-10.444,10.662h-43.869v6.278
	h43.869c6.005,0,13.163-3.107,15.247-11.828l0.287-1.197l57.311-46.887c2.143-1.75,4.837-2.714,7.587-2.714
	c3.194,0,6.201,1.249,8.474,3.522c2.257,2.266,3.5,5.273,3.5,8.467C-2494.488,491.202-2495.679,494.206-2497.757,496.305z
	 M-2762.339,267.145c-1.903-0.458-4.016-0.708-6.28-0.746c-2.295-0.038-4.804-0.056-7.9-0.056c-1.647,0-3.294,0.005-4.942,0.01
	c-1.649,0.005-3.298,0.009-4.946,0.009h-0.342c-0.232,0-0.465-0.013-0.698-0.026l-1.002-0.047v-5.885h26.608v-5h-26.616v-7.686
	h31.861v-4.916h-38.114v12.662h-6.139v4.985h6.159v38.813h0.061c2.367,0,4.735,0.004,7.102,0.008
	c2.366,0.004,4.733,0.008,7.099,0.008c4.808,0,8.688-0.018,12.21-0.056c2.049-0.022,4.213-0.313,6.257-0.84
	c5.089-1.314,8.389-4.545,9.809-9.602c0.9-3.206,1.037-6.603,0.407-10.096C-2752.872,272.447-2756.436,268.564-2762.339,267.145z
	 M-2758.133,286.721c-1.02,3.133-3.284,5.225-6.73,6.216c-1.596,0.459-3.096,0.701-4.46,0.719c-3.324,0.044-6.585,0.05-9.055,0.05
	l-8.511-0.009h-0.326c-0.131,0-0.262-0.012-0.41-0.028l-0.85-0.075v-22.719l0.972-0.056c0.212-0.014,0.411-0.027,0.609-0.027
	c0,0,7.872-0.01,9.59-0.01c2.348,0,4.697,0.005,7.044,0.021c3.017,0.021,5.407,0.542,7.521,1.642
	c2.833,1.474,4.551,3.999,5.106,7.504C-2757.262,282.287-2757.431,284.566-2758.133,286.721z M-2488.653,267.145
	c-1.903-0.458-4.016-0.708-6.281-0.746c-2.294-0.038-4.804-0.056-7.899-0.056c-1.647,0-3.294,0.005-4.942,0.01
	c-1.648,0.005-3.298,0.009-4.946,0.009h-0.342c-0.232,0-0.465-0.013-0.697-0.026l-1.004-0.047v-5.885h26.607v-5h-26.616v-7.686
	h31.861v-4.916h-38.115v12.662h-6.139v4.985h6.159v38.813h0.061c2.367,0,4.735,0.004,7.102,0.008
	c2.367,0.004,4.733,0.008,7.099,0.008c4.808,0,8.688-0.018,12.21-0.056c2.05-0.022,4.214-0.313,6.257-0.84
	c5.089-1.314,8.389-4.545,9.808-9.602c0.9-3.207,1.038-6.604,0.408-10.096C-2479.187,272.447-2482.75,268.564-2488.653,267.145z
	 M-2484.447,286.721c-1.021,3.133-3.285,5.225-6.731,6.216c-1.596,0.459-3.096,0.701-4.459,0.719
	c-3.324,0.044-6.586,0.05-9.055,0.05l-8.511-0.009h-0.326c-0.131,0-0.262-0.012-0.411-0.028l-0.85-0.075v-22.719l0.973-0.056
	c0.212-0.014,0.411-0.027,0.609-0.027c0,0,7.871-0.01,9.59-0.01c2.348,0,4.697,0.005,7.045,0.021
	c3.017,0.021,5.407,0.542,7.521,1.642c2.833,1.474,4.552,3.999,5.106,7.504C-2483.577,282.286-2483.745,284.565-2484.447,286.721z
	 M-2626.591,322.612c-1.903-0.458-4.016-0.708-6.281-0.746c-2.294-0.038-4.804-0.056-7.899-0.056c-1.647,0-3.294,0.005-4.942,0.01
	c-1.649,0.005-3.298,0.009-4.946,0.009h-0.342c-0.232,0-0.465-0.013-0.698-0.026l-1.002-0.047v-5.885h26.607v-5h-26.616v-7.686
	h31.861v-4.916h-38.115v12.662h-6.139v4.985h6.158v38.813h0.062c2.367,0,4.735,0.004,7.102,0.008
	c2.366,0.004,4.733,0.008,7.099,0.008c4.808,0,8.688-0.018,12.21-0.056c2.05-0.022,4.214-0.313,6.257-0.84
	c5.089-1.314,8.389-4.545,9.808-9.602c0.9-3.207,1.038-6.604,0.408-10.096C-2617.124,327.914-2620.688,324.03-2626.591,322.612z
	 M-2622.384,342.188c-1.021,3.133-3.285,5.225-6.731,6.216c-1.596,0.459-3.096,0.701-4.459,0.719
	c-3.324,0.044-6.586,0.05-9.055,0.05l-8.511-0.009h-0.326c-0.131,0-0.262-0.012-0.41-0.028l-0.85-0.075v-22.719l0.972-0.056
	c0.212-0.014,0.411-0.027,0.609-0.027c0,0,7.872-0.01,9.591-0.01c2.348,0,4.697,0.005,7.044,0.021
	c3.017,0.021,5.407,0.542,7.521,1.642c2.833,1.474,4.552,3.999,5.106,7.504C-2621.514,337.753-2621.682,340.032-2622.384,342.188z"
	/>
</svg>
