<?xml version="1.0" encoding="utf-8"?>
<!-- Generator: Adobe Illustrator 18.1.1, SVG Export Plug-In . SVG Version: 6.00 Build 0)  -->
<svg version="1.1" id="Layer_1" xmlns="http://www.w3.org/2000/svg" xmlns:xlink="http://www.w3.org/1999/xlink" x="0px" y="0px"
	 viewBox="98.8 206.582 400 400" enable-background="new 98.8 206.582 400 400" xml:space="preserve">
<path d="M369.057,344.277V206.582H104.651v350.332h164.493v49.668h223.805V344.277H369.057z M269.144,534.954h-69.582v-52.612
	h69.582V534.954z M269.144,462.359H179.58v74.573h-54.946V226.565h224.44v117.712h-79.93V462.359z M472.966,586.6H289.127V364.259
	h183.839V586.6z M164.827,326.434h61.635v-62.563h-61.635V326.434z M184.809,283.854h21.67v22.597h-21.67V283.854z M164.827,416.399
	h61.635v-62.563h-61.635V416.399z M184.809,373.819h21.67v22.597h-21.67V373.819z M331.464,539.469h100.081v-79.907h23.091V439.58
	H309.125v19.983h22.34V539.469z M351.447,459.563h60.115v59.924h-60.115V459.563z"/>
</svg>
