<?xml version="1.0" encoding="utf-8"?>
<!-- Generator: Adobe Illustrator 18.1.1, SVG Export Plug-In . SVG Version: 6.00 Build 0)  -->
<svg version="1.1" id="Layer_1" xmlns="http://www.w3.org/2000/svg" xmlns:xlink="http://www.w3.org/1999/xlink" x="0px" y="0px"
	 viewBox="-1161.2 206.582 400 400" enable-background="new -1161.2 206.582 400 400" xml:space="preserve">
<path d="M-870.783,276.45h-69.245v69.245h69.245V276.45z M-887.66,328.818h-35.49v-35.49h35.49V328.818z M-974.765,375.564h-69.245
	v69.245h69.245V375.564z M-991.643,427.931h-35.49v-35.49h35.49V427.931z M-807.747,571.198V223.206h-302.473v347.992h-50.98v18.761
	h400v-18.761H-807.747z M-904.086,571.198h-109.796v-72.115h109.796V571.198z M-826.508,571.198h-58.817V480.32h-147.318v90.878
	h-58.816V241.967h264.951V571.198z M-870.783,375.564h-69.245v69.245h69.245V375.564z M-887.66,427.931h-35.49v-35.49h35.49V427.931
	z M-974.765,276.45h-69.245v69.245h69.245V276.45z M-991.643,328.818h-35.49v-35.49h35.49V328.818z"/>
</svg>
