<?xml version="1.0" encoding="utf-8"?>
<!-- Generator: Adobe Illustrator 18.1.1, SVG Export Plug-In . SVG Version: 6.00 Build 0)  -->
<svg version="1.1" id="Layer_1" xmlns="http://www.w3.org/2000/svg" xmlns:xlink="http://www.w3.org/1999/xlink" x="0px" y="0px"
	 viewBox="-3681.2 206.582 400 400" enable-background="new -3681.2 206.582 400 400" xml:space="preserve">
<path d="M-3618.861,288.616l2.478-2.267l8.718-6.516l2.713-2.039l-4.025-5.393l-2.701,2.03l-8.797,6.576l-0.197,0.14l-2.729,2.466
	l-2.487,2.263l4.535,4.996L-3618.861,288.616z M-3583.157,265.401l7.298-3.521h0.349l5.46-1.981l3.155-1.157l-2.328-6.349
	l-3.143,1.113l-6.694,2.447l-0.204,0.085l-0.212,0.096l-6.602,3.202l-3.042,1.462l2.92,6.065L-3583.157,265.401z M-3666.274,358.918
	l4.115-11.273l0.988-2.006l1.465-3.048l-6.052-2.915l-1.455,3.056l-1.099,2.255l-0.139,0.279l-0.052,0.114l-5.26,14.372l6.335,2.318
	L-3666.274,358.918z M-3542.651,252.275l11.94-1.846l2.062-0.154l3.468-0.177l-0.34-6.677l-3.323,0.208l-2.319,0.151h-0.568
	l-11.931,1.835l-3.321,0.499l1.013,6.659L-3542.651,252.275z M-3674.308,400.701l0.323-6.754l1.14-7.392l0.502-3.344l-6.659-1.027
	l-1.612,10.786l-0.084,0.535l-0.331,6.841l-0.171,3.347l6.722,0.342L-3674.308,400.701z M-3497.593,250.486l11.896,1.843
	l3.343,0.502l1.026-6.661l-3.327-0.5l-11.917-1.833h-0.566l-2.279-0.147l-3.384-0.159l-0.326,6.637l3.338,0.157L-3497.593,250.486z
	 M-3462.993,534.037h7.836v-79.925h-7.836V534.037z M-3281.2,297.258c0-7.234-2.818-14.192-7.731-19.09l-2.785-2.777l2.788-2.775
	c4.912-4.89,7.729-11.847,7.729-19.088c0-13.915-9.813-25.235-21.875-25.235h-123.361c-11.167,0-20.455,9.762-21.606,22.707
	l-0.452,5.086l-10.616-3.88l-2.338,6.442l3.181,1.162l5.474,1.986h0.348l6.671,3.214l0.599,1.185
	c1.23,2.432,2.785,4.593,4.621,6.422l2.784,2.773l-2.781,2.776c-4.914,4.903-7.732,11.862-7.732,19.091
	c0,7.237,2.817,14.195,7.73,19.089l2.783,2.773l-2.781,2.776c-4.914,4.903-7.732,11.862-7.732,19.091
	c0,7.237,2.817,14.195,7.73,19.089l2.783,2.773l-2.781,2.776c-4.914,4.903-7.732,11.862-7.732,19.091
	c0,4.677,1.201,9.343,3.475,13.491l3.67,6.698l-7.581-0.926c-4.075-0.498-7.683-0.74-11.026-0.74
	c-8.426,0-16.909,1.222-25.215,3.632l-3.032,0.88l-1.504-2.776c-0.59-1.089-1.726-1.765-2.963-1.765l-123.472,0.001
	c-12.047,0-21.847,11.321-21.847,25.235c0,7.237,2.818,14.195,7.73,19.089l2.783,2.774l-2.781,2.775
	c-4.914,4.903-7.732,11.861-7.732,19.091c0,7.237,2.818,14.195,7.73,19.089l2.783,2.774l-2.782,2.775
	c-2.517,2.511-4.443,5.441-5.725,8.707l-2.569,6.547l-5.344-7.139l-5.398,4.028l5.518,7.397l0.243,0.244l0.28,0.383l5.548,6.075
	l0.973,1.11l0.249,0.747c1.27,3.803,3.422,7.289,6.224,10.081l2.783,2.774l-2.782,2.775c-4.914,4.903-7.732,11.861-7.732,19.091
	c0,13.915,9.801,25.235,21.847,25.235l123.443,0.001c1.238,0,2.374-0.676,2.964-1.765l1.505-2.776l3.032,0.881
	c8.358,2.428,16.85,3.659,25.242,3.659c8.583,0,17.216-1.259,25.655-3.741l3.082-0.906l1.493,2.844
	c0.585,1.113,1.728,1.804,2.985,1.804l123.455-0.001c12.062,0,21.875-11.321,21.875-25.235c0-7.234-2.818-14.192-7.731-19.09
	l-2.785-2.777l2.787-2.775c4.912-4.89,7.729-11.847,7.729-19.088c0-7.234-2.818-14.192-7.731-19.09l-2.785-2.776l2.787-2.775
	c4.912-4.891,7.729-11.848,7.729-19.089c0-7.234-2.818-14.192-7.731-19.09l-2.785-2.777l2.787-2.775
	c4.912-4.89,7.729-11.847,7.729-19.088c0-7.234-2.818-14.192-7.731-19.09l-2.785-2.777l2.787-2.775
	c4.912-4.89,7.729-11.847,7.729-19.088c0-7.234-2.818-14.192-7.731-19.09l-2.785-2.777l2.787-2.774
	c4.912-4.89,7.729-11.847,7.729-19.088c0-7.234-2.818-14.192-7.731-19.09l-2.785-2.777l2.788-2.775
	C-3284.017,311.456-3281.2,304.499-3281.2,297.258z M-3441.542,253.528c0-11.577,7.68-18.495,15.106-18.495h123.361
	c7.439,0,15.135,6.918,15.135,18.495s-7.695,18.495-15.135,18.495h-123.361C-3433.862,272.022-3441.542,265.105-3441.542,253.528z
	 M-3631.038,428.447c0-11.577,7.681-18.495,15.106-18.495h119.547l-11.464,7.232c-11.227,7.082-20.948,16.747-28.113,27.95
	l-1.156,1.807h-78.814C-3623.357,446.942-3631.038,440.024-3631.038,428.447z M-3631.038,472.177
	c0-11.577,7.681-18.495,15.106-18.495h74.829l-2.258,5.424c-3.632,8.723-5.852,18.125-6.6,27.945l-0.276,3.62h-65.695
	C-3623.357,490.671-3631.038,483.753-3631.038,472.177z M-3631.038,515.906c0-11.577,7.681-18.495,15.106-18.495h65.695l0.276,3.619
	c0.75,9.822,2.97,19.225,6.6,27.946l2.257,5.423h-74.828C-3623.357,534.401-3631.038,527.483-3631.038,515.906z M-3615.931,578.131
	c-7.426,0-15.106-6.918-15.106-18.495s7.681-18.495,15.106-18.495h78.815l1.156,1.807c7.16,11.198,16.881,20.863,28.114,27.95
	l11.461,7.231H-3615.931z M-3459.745,578.131c-29.895,0-57.717-16.102-72.608-42.023c-7.344-12.783-11.225-27.329-11.225-42.065
	c0-46.352,37.607-84.061,83.833-84.061c46.508,0,84.345,37.71,84.345,84.061C-3375.4,540.409-3413.237,578.131-3459.745,578.131z
	 M-3287.941,559.636c0,11.424-7.856,18.495-15.135,18.495h-119.992l11.548-7.237c11.384-7.136,21.204-16.803,28.396-27.957
	l1.157-1.794h78.891C-3295.636,541.142-3287.941,548.059-3287.941,559.636z M-3287.941,515.906c0,11.424-7.856,18.495-15.135,18.495
	h-74.906l2.282-5.435c3.678-8.755,5.926-18.155,6.681-27.937l0.279-3.616h65.663
	C-3295.797,497.412-3287.941,504.482-3287.941,515.906z M-3287.941,472.177c0,11.424-7.856,18.494-15.135,18.494h-66.2l-0.282-3.613
	c-0.76-9.708-3.019-19.111-6.712-27.947l-2.27-5.429h75.465C-3295.636,453.682-3287.941,460.6-3287.941,472.177z M-3287.941,428.447
	c0,11.424-7.856,18.495-15.135,18.495h-79.354l-1.156-1.805c-7.178-11.208-16.9-20.874-28.116-27.953l-11.456-7.231h120.082
	C-3295.636,409.952-3287.941,416.87-3287.941,428.447z M-3287.941,384.717c0,11.577-7.695,18.495-15.135,18.495h-123.361
	c-7.426,0-15.106-6.918-15.106-18.495s7.68-18.495,15.106-18.495h123.361C-3295.636,366.223-3287.941,373.141-3287.941,384.717z
	 M-3287.941,340.987c0,11.577-7.695,18.495-15.135,18.495h-123.361c-7.426,0-15.106-6.918-15.106-18.495
	c0-11.577,7.68-18.495,15.106-18.495h123.361C-3295.636,322.493-3287.941,329.411-3287.941,340.987z M-3303.075,315.752h-123.361
	c-7.426,0-15.106-6.918-15.106-18.494c0-11.577,7.68-18.495,15.106-18.495h123.361c7.439,0,15.135,6.918,15.135,18.495
	C-3287.941,308.834-3295.636,315.752-3303.075,315.752z M-3671.502,442.547l-2.053-13.417l-0.514-3.338l-6.659,1.014l0.513,3.331
	l2.1,13.809l0.244,0.904l0.825,3.249l6.534-1.686l-0.82-3.232L-3671.502,442.547z M-3647.391,320.61l0.189-0.315l8.438-11.269
	l2.028-2.699l-5.415-4.055l-2.011,2.65l-8.716,11.696l-0.019,0.048l-1.917,3.157l5.773,3.493L-3647.391,320.61z M-3662.172,472.72
	l-0.714-2.018l-1.16-3.179l-6.335,2.318l1.93,5.295l0.21,0.504l5.251,10.897l1.463,3.046l6.091-2.927l-1.458-3.035L-3662.172,472.72
	z"/>
</svg>
