<?xml version="1.0" encoding="utf-8"?>
<!-- Generator: Adobe Illustrator 18.1.1, SVG Export Plug-In . SVG Version: 6.00 Build 0)  -->
<svg version="1.1" id="Layer_1" xmlns="http://www.w3.org/2000/svg" xmlns:xlink="http://www.w3.org/1999/xlink" x="0px" y="0px"
	 viewBox="-4941.2 206.582 400 400" enable-background="new -4941.2 206.582 400 400" xml:space="preserve">
<path d="M-4706.828,475.696l48.519,48.52h-162.104v6.974h162.104l-48.519,48.52l4.93,4.931l56.938-56.938l-56.938-56.938
	L-4706.828,475.696z M-4684.066,324.393c-3.609-0.867-7.625-1.344-11.938-1.415c-4.483-0.074-9.387-0.109-15.434-0.109
	c-3.238,0-6.477,0.01-9.714,0.019c-3.245,0.009-6.489,0.019-9.733,0.019h-0.639c-0.492,0-0.985-0.027-1.479-0.055l-0.566-0.03
	l-3.026-0.136v-14.937h52.171v-6.327h-52.188v-18.547h62.471v-6.162h-71.258v24.827h-12.037v6.299h12.076v76.104
	c4.105,0.002,8.21,0.008,12.315,0.015c4.64,0.008,9.282,0.016,13.922,0.016c9.416,0,17.014-0.034,23.912-0.108
	c3.879-0.041,7.979-0.592,11.853-1.592c9.467-2.445,15.353-8.206,17.993-17.615c1.694-6.033,1.95-12.431,0.762-19.017
	C-4666.705,333.987-4673.071,327.036-4684.066,324.393z M-4673.76,361.626c-2.19,6.726-7.024,11.208-14.369,13.321
	c-3.279,0.943-6.375,1.44-9.203,1.477c-6.525,0.086-12.928,0.098-17.777,0.098c-2.771,0-5.544-0.004-8.316-0.009
	c-2.769-0.004-5.538-0.008-8.306-0.008h-0.71c-0.316,0-0.632-0.027-0.99-0.065l-0.317-0.032l-2.898-0.249v-47.788l2.997-0.163
	l0.535-0.034c0.455-0.031,0.88-0.058,1.307-0.058c2.886-0.001,5.771-0.005,8.656-0.01c3.367-0.005,6.735-0.01,10.103-0.01
	c4.623,0,9.247,0.01,13.87,0.041c6.202,0.042,11.139,1.128,15.537,3.415c6.07,3.158,9.747,8.535,10.927,15.984
	C-4671.946,352.397-4672.298,357.137-4673.76,361.626z M-4564.915,228.525h-293.617c-13.076,0-23.714,10.656-23.714,23.753v15.55
	h-19.651v6.975h19.651v32.328h-39.303v6.975h39.303v32.328h-58.954v6.975h58.954v54.891c0,13.097,10.638,23.753,23.714,23.753
	h293.617c13.076,0,23.714-10.656,23.714-23.753v-156.02C-4541.2,239.18-4551.839,228.525-4564.915,228.525z M-4548.174,408.298
	c0,9.408-7.354,16.778-16.74,16.778h-293.617c-9.387,0-16.74-7.37-16.74-16.778v-94.193h19.651v-6.975h-19.651v-32.328h39.303
	v-6.975h-39.303v-15.55c0-9.408,7.353-16.778,16.74-16.778h293.617c9.387,0,16.74,7.37,16.74,16.778V408.298z"/>
</svg>
