<?xml version="1.0" encoding="utf-8"?>
<!-- Generator: Adobe Illustrator 18.1.1, SVG Export Plug-In . SVG Version: 6.00 Build 0)  -->
<svg version="1.1" id="Layer_1" xmlns="http://www.w3.org/2000/svg" xmlns:xlink="http://www.w3.org/1999/xlink" x="0px" y="0px"
	 viewBox="2198.8 206.582 400 400" enable-background="new 2198.8 206.582 400 400" xml:space="preserve">
<path d="M2352.656,292.034c21.272,0,68.226-9.933,80.407,13.542c5.248,10.114,0.807,29.167,0.313,39.757
	c-1.008,21.625,0.472,35.944,7.355,56.094c20.384-15.134,29.919-31.944,42.343-54.228c9.928-17.806,15.77-42.217,37.623-44.563
	c16.619-1.784,55.049-6.035,70.187,1.333c20.037,9.753-3.815,33.424-11.888,45.537c-12.713,19.076-30.089,37.884-40.274,58.371
	c-10.59,21.302,8.411,33.081,22.21,48.255c10.225,11.244,43.681,38.152,36.99,53.674c-8.717,20.22-53.879,11.572-70.765,11.572
	c-27.747,0-42.169-29.287-63.467-45.075c-20.51-15.204-24.043-0.655-29.271,18.161c-3.161,11.379-5.5,23.169-14.768,26.914
	c-8.451,3.415-31.242,0.165-39.865-1.254c-20.815-3.425-41.682-12.06-59.088-24.009c-37.331-25.627-62.73-67.273-84.274-106.128
	c-10.926-19.704-20.84-39.959-30.303-60.4c-6.456-13.943-12.912-16.736,0.712-24.228c11.03-6.065,26.773-2.54,38.688-2.755
	c27.326-0.493,35.477,3.323,48.237,27.612c9.549,18.176,23.46,55.112,41.195,66.596c24.237,15.694,21.172-36.483,20.592-51.631
	c-0.717-18.71-4.688-33.339-26.016-36.23C2331.435,300.843,2345.661,296.129,2352.656,292.034
	C2372.599,292.034,2345.254,296.367,2352.656,292.034z"/>
</svg>
