<?xml version="1.0" encoding="utf-8"?>
<!-- Generator: Adobe Illustrator 18.1.1, SVG Export Plug-In . SVG Version: 6.00 Build 0)  -->
<svg version="1.1" id="Layer_1" xmlns="http://www.w3.org/2000/svg" xmlns:xlink="http://www.w3.org/1999/xlink" x="0px" y="0px"
	 viewBox="-6201.2 206.582 400 400" enable-background="new -6201.2 206.582 400 400" xml:space="preserve">
<path d="M-6072.782,359.317c3.549,0.001,7.097,0.007,10.646,0.013c4.075,0.007,8.149,0.014,12.224,0.014
	c8.275,0,14.952-0.03,21.013-0.096c3.395-0.036,6.981-0.518,10.372-1.393c8.252-2.131,13.383-7.154,15.685-15.356
	c1.481-5.275,1.705-10.871,0.666-16.63c-1.833-10.165-7.384-16.227-16.972-18.532c-3.158-0.759-6.674-1.176-10.449-1.238
	c-3.938-0.065-8.249-0.096-13.563-0.096c-2.837,0-5.675,0.008-8.512,0.016c-2.843,0.008-5.686,0.016-8.529,0.016h-0.594
	c-0.436,0-0.872-0.023-1.309-0.048l-0.495-0.026l-2.82-0.126v-13.45h45.829v-5.223h-45.844v-16.627h54.876v-5.078h-62.259v21.809
	h-10.573v5.198h10.608V359.317z M-6065.463,310.511l2.791-0.153l0.465-0.03c0.405-0.028,0.785-0.051,1.162-0.051
	c0,0,13.544-0.017,16.517-0.017c4.048,0,8.098,0.008,12.146,0.036c5.476,0.037,9.837,0.997,13.725,3.019
	c5.382,2.8,8.642,7.565,9.686,14.163c0.68,4.295,0.369,8.485-0.924,12.455c-1.942,5.964-6.227,9.937-12.734,11.81
	c-2.895,0.833-5.63,1.271-8.128,1.304c-5.733,0.076-11.368,0.086-15.638,0.086c-2.408,0-12.033-0.014-14.438-0.014h-0.764
	c-0.283,0-0.567-0.024-0.888-0.058l-0.277-0.027l-2.701-0.231V310.511z M-5805.987,319.332l-43.435,40.842V212.765h-5.903v147.409
	l-43.435-40.842l-4.043,4.301l50.429,47.42l50.429-47.42L-5805.987,319.332z M-6041.631,414.406
	c57.297,0,103.912-46.615,103.912-103.912s-46.615-103.912-103.912-103.912s-103.912,46.614-103.912,103.912
	S-6098.928,414.406-6041.631,414.406z M-6041.631,213.079c53.715,0,97.416,43.7,97.416,97.416s-43.701,97.416-97.416,97.416
	c-53.715,0-97.416-43.701-97.416-97.416S-6095.347,213.079-6041.631,213.079z M-5901.323,415.188c-1.001,0-2.03,0.037-3.038,0.109
	c-0.773,0.058-1.501,0.392-2.05,0.941l-54.97,54.981l-4.138-3.403c-3.975-3.27-8.671-4.998-13.583-4.998h-35.262l-17.35-17.35
	c-0.614-0.614-1.43-0.953-2.296-0.953h-64.058c-0.759,0-1.502,0.27-2.078,0.746l-52.634,43.863l-16.202-16.202
	c-0.575-0.575-1.71-0.956-2.216-0.956l-0.122,0.003c-0.888,0.013-1.715,0.377-2.32,1.015l-25.925,27.453
	c-1.216,1.288-1.188,3.277,0.065,4.53l100.674,100.674c0.595,0.599,1.428,0.942,2.285,0.942h0.074
	c0.875-0.021,1.689-0.384,2.287-1.014l25.925-27.454c1.216-1.287,1.187-3.277-0.065-4.529l-15.112-15.112l13.571-6.799h99.91
	c0.911,0,1.779-0.38,2.393-1.05l87.826-95.824c6.44-7.024,7.916-17.098,3.76-25.665
	C-5880.27,420.271-5889.51,415.188-5901.323,415.188z M-6075.15,575.935l-21.458,22.739l-96.067-96.067l21.458-22.738
	L-6075.15,575.935z M-5884.509,450.416l-86.87,94.763h-99.234c-0.517,0-1.014,0.116-1.458,0.337l-16.207,8.109l-59.889-59.889
	l51.266-42.725h61.541l17.351,17.351c0.613,0.614,1.431,0.952,2.303,0.952h36.605c5.893,0,11.275,3.5,13.671,8.831
	c0.307,0.652,0.455,1.229,0.54,1.593c0.438,1.343,0.684,2.608,0.752,3.864c0.038,0.691,0.002,1.3-0.035,1.763
	c-0.077,1.147-0.332,2.088-0.519,2.778l-0.065,0.236c-0.355,1.198-0.814,2.587-1.771,3.974l-0.085,0.135l-0.137,0.185
	c-3.079,4.163-8.414,6.75-13.925,6.75h-56.582v6.496h58.155c7.568,0,14.448-3.953,18.422-10.579c0.063-0.127,0.129-0.25,0.195-0.365
	c0.674-1.185,1.119-2.083,1.453-2.938c0.082-0.208,0.181-0.553,0.284-0.92c0.075-0.262,0.15-0.525,0.212-0.725l0.213-0.705
	c0.164-0.531,0.306-0.991,0.375-1.355l0.018-0.088c0,0,0.077-0.324,0.11-0.445c0.12-0.796,0.166-1.681,0.197-2.764
	c0.01-0.274,0.034-0.539,0.07-0.832c-0.015-1.252-0.133-2.486-0.351-3.671l-0.561-3.05l55.877-55.886l2.564,0.089
	c8.546,0.296,15.184,4.046,18.211,10.288C-5878.826,438.127-5879.883,445.366-5884.509,450.416z"/>
</svg>
