<?xml version="1.0" encoding="utf-8"?>
<!-- Generator: Adobe Illustrator 18.1.1, SVG Export Plug-In . SVG Version: 6.00 Build 0)  -->
<svg version="1.1" id="Layer_1" xmlns="http://www.w3.org/2000/svg" xmlns:xlink="http://www.w3.org/1999/xlink" x="0px" y="0px"
	 viewBox="-5781.2 206.582 400 400" enable-background="new -5781.2 206.582 400 400" xml:space="preserve">
<path d="M-5533.559,374.686c-17.83-2.919-33.146-4.313-48.175-4.386h-1.249c-14.655,0-29.748,1.224-46.139,3.742
	c-1.514,0.233-2.677,0.764-3.187,1.45c-0.13,0.176-0.525,0.71-0.213,1.827c0.582,2.083,1.578,2.821,3.807,2.821c0,0,0,0,0,0
	c0.675,0,1.433-0.08,2.209-0.23c14.774-2.981,29.643-4.493,44.193-4.493c15.406,0,30.912,1.696,46.09,5.042
	c0.929,0.205,1.779,0.309,2.527,0.309c2.221,0,3.175-0.759,3.789-3.046c0.14-0.504,0.25-1.181-0.014-1.54
	C-5530.27,375.708-5531.432,375.031-5533.559,374.686z M-5561.749,303.191v-0.007h0.149c12.851-0.041,24.955-5.125,34.085-14.331
	c9.124-9.199,14.134-21.357,14.093-34.221c-0.088-26.442-21.703-47.995-48.294-48.05c-12.837,0-24.948,5.044-34.106,14.202
	c-9.165,9.165-14.208,21.275-14.208,34.106C-5610.022,281.529-5588.367,303.191-5561.749,303.191z M-5591.15,225.462
	c7.909-7.909,18.37-12.267,29.523-12.267c22.864,0.048,41.526,18.648,41.601,41.458c0.027,11.106-4.29,21.601-12.179,29.551
	c-7.881,7.943-18.329,12.342-29.415,12.376l-0.122,3.306v-3.306c-22.979,0-41.675-18.703-41.675-41.689
	C-5603.423,243.825-5599.065,233.37-5591.15,225.462z M-5383.893,461.599c-6.761-6.804-6.376-17.006-5.968-27.839
	c0.533-14.286,1.084-29.057-14.627-37.396c-3.905-2.072-8.085-3.167-12.091-3.167c-2.768,0-5.315,0.517-7.574,1.539
	c-1.744,0.787-3.293,1.874-4.604,3.232l-4.889,5.059l-3.298-6.214c-12.089-22.777-31.196-41.052-56.808-54.329
	c-22.236-11.631-58.56-18.576-97.167-18.576c-24.188,0-46.726,2.773-63.461,7.807l-2.081,0.626l-1.895-1.065
	c-11.121-6.252-23.411-11.516-37.582-16.098c-1.868-0.608-3.839-0.916-5.856-0.916c-6.34,0-12.379,2.961-16.147,7.912
	c-3.803,5.023-4.985,11.382-3.244,17.441c2.31,8.004,5.24,17.949,7.049,24.033l0.864,2.908l-2.14,2.151
	c-12.439,12.503-21.884,26.892-28.073,42.765l-1.139,2.919l-3.118,0.309c-5.796,0.574-11.549,1.301-16.412,1.937l-0.879,0.093
	c-11.142,1.357-14.224,10.252-14.287,15.281c-0.128,14.271-0.128,28.742,0,44.234c0.078,8.092,5.651,14.286,13.801,15.405
	l7.181,0.89c3.297,0.443,7.034,0.945,10.668,1.382l3.014,0.363l1.123,2.82c6.905,17.342,17.094,32.342,31.149,45.857l1.776,1.708
	l-0.23,2.453c-0.146,1.555-0.427,3.256-0.746,5.19l-0.162,1.026c-0.078,0.472-0.313,1.906-0.377,2.673l-0.011,0.133l-2.523,18.46
	c-0.69,5.068-1.228,9.14-1.691,12.824c-0.62,4.84,0.867,9.681,4.115,13.321c3.206,3.669,7.844,5.774,12.724,5.774h43.793
	c3.817,0,7.093-0.918,9.74-2.728l2.003-1.739c2.294-2.267,3.746-5.263,4.436-9.166c0.426-2.378,0.794-4.77,1.124-7.316l0.584-4.512
	l4.549,0.06c1.427,0.019,3.059,0.027,4.875,0.027c27.737,0,97.396-2.044,100.86-2.182c0.16-0.015,0.313-0.029,0.459-0.037
	l4.992-0.292l0.399,4.984l0.062,0.673c0.142,1.492,0.287,2.952,0.495,4.411l0.336,2.81c1.403,11.073,9.491,15.003,16.005,15.003
	l23.333,0.068l20.778-0.054c4.931,0,9.636-2.147,12.914-5.897c3.279-3.738,4.76-8.653,4.059-13.53l-3.181-23.596
	c-1.171-9.125-2.479-19.093-3.887-29.627l-0.287-2.145l1.342-1.699c20.954-26.512,30.549-61.887,25.667-94.634
	c-0.415-2.805-1.001-5.573-1.577-8.293c-1.484-6.927-2.766-12.911-1.1-19.889c0.785-3.28,2.531-5.549,5.188-6.742
	c1.445-0.65,3.108-0.98,4.945-0.98c2.958,0,6.213,0.863,9.165,2.43c12.228,6.489,11.766,18.687,11.278,31.602
	c-0.436,11.676-0.887,23.749,7.801,32.506c0.587,0.597,1.376,0.925,2.221,0.925c0.838,0,1.625-0.323,2.222-0.917
	c0.598-0.592,0.929-1.38,0.933-2.219C-5382.98,462.984-5383.305,462.192-5383.893,461.599z M-5455.39,527.019
	c-1.641,2.029-2.146,3.642-1.876,5.887c1.418,10.596,2.807,21.175,4.127,31.412l3.183,23.634c0.435,3-0.518,6.182-2.562,8.525
	c-2.12,2.411-5.028,3.739-8.173,3.739l-20.79,0.068l-23.304-0.068c-2.572,0-8.669-0.919-9.758-9.466l-0.332-2.787
	c-0.232-1.639-0.369-3.079-0.474-4.269c-0.643-6.713-1.71-11.114-10.359-11.114c-0.758,0-1.581,0.041-2.474,0.123
	c-7.05,0.616-80.785,2.195-102.471,2.195c-0.001,0-0.003,0-0.005,0c-4.42,0-5.698-0.064-6.317-0.12l-0.258-0.023l-0.255-0.049
	c-1.38-0.267-2.426-0.307-2.926-0.307h-2.287l-0.711,2.165c-0.051,0.158-0.239,0.798-0.522,2.495l-0.445,3.368
	c-0.387,3.349-0.82,6.327-1.364,9.361c-0.119,0.67-0.264,1.295-0.435,1.875l0.631,1.352l-4.13,3.708l-0.523,0.285
	c-1.49,0.813-3.293,1.208-5.516,1.208h-43.793c-3.063,0-5.989-1.34-7.995-3.636c-2.061-2.31-2.979-5.283-2.587-8.36
	c0.5-3.998,1.049-8.081,1.58-12.028l2.629-19.294c0.082-0.84,0.208-1.614,0.318-2.301l0.28-1.749
	c0.426-2.592,0.866-5.274,0.849-7.282l-0.001-0.204l0.014-0.204c0.103-1.433-0.394-3.587-1.722-4.976
	c-15.367-14.334-26.112-30.321-32.851-48.873l-0.04-0.115c-0.563-1.672-1.433-2.774-4.024-3.098c-4.7-0.503-9.39-1.133-13.927-1.742
	l-0.46-0.062l-7.332-0.907c-4.893-0.685-8.208-4.386-8.25-9.212c-0.129-15.457-0.129-29.884,0-44.138
	c0.074-4.868,3.455-8.424,8.611-9.059l0.899-0.093c5.79-0.749,12.528-1.597,19.353-2.207c3.062-0.36,4.504-1.448,5.482-4.096
	c6.068-16.907,15.98-32.099,29.484-45.176c2.213-2.117,2.681-3.924,1.833-7.135c-2.099-6.99-5.431-18.321-7.769-26.417
	c-1.181-4.135-0.377-8.46,2.211-11.869c2.591-3.407,6.724-5.44,11.055-5.44c1.379,0,2.727,0.211,3.998,0.624
	c14.59,4.715,27.146,10.183,38.406,16.727c0.885,0.519,1.805,0.772,2.811,0.772c1.222,0,2.338-0.365,3.191-0.644l0.078-0.025
	c16.246-5.028,38.433-7.798,62.472-7.798c37.638,0,72.88,6.678,94.254,17.856c32.067,16.617,53.258,41.241,63,73.247l0.145,0.498
	c0.068,0.245,0.152,0.463,0.254,0.649l0.378,0.696l0.149,0.778c0.274,1.423,0.57,2.823,0.929,4.486
	c0.485,2.247,1.088,5.044,1.519,7.916C-5425.596,467.84-5434.98,501.743-5455.39,527.019z M-5670.013,414.596
	c-5.077,0-9.208,4.131-9.208,9.208c0,5.077,4.131,9.208,9.208,9.208c5.078,0,9.208-4.131,9.208-9.208
	C-5660.805,418.726-5664.936,414.596-5670.013,414.596z"/>
</svg>
