<?xml version="1.0" encoding="utf-8"?>
<!-- Generator: Adobe Illustrator 18.1.1, SVG Export Plug-In . SVG Version: 6.00 Build 0)  -->
<svg version="1.1" id="Layer_1" xmlns="http://www.w3.org/2000/svg" xmlns:xlink="http://www.w3.org/1999/xlink" x="0px" y="0px"
	 viewBox="-3261.2 206.582 400 400" enable-background="new -3261.2 206.582 400 400" xml:space="preserve">
<path d="M-3174.949,287.091c-2.121,0-3.338,1.217-3.338,3.338c0,2.121,1.217,3.337,3.338,3.337h122.914
	c2.121,0,3.337-1.217,3.337-3.337c0-2.121-1.216-3.338-3.337-3.338H-3174.949z M-3187.896,211.555l30.107,57.143
	c0.806,1.153,1.829,1.714,3.121,1.714h82.967c1.292,0,2.314-0.561,3.121-1.714l30.108-57.143l0.08-0.12
	c0.604-0.906,0.604-2.125,0-3.031c-0.695-1.043-2.26-1.822-3.195-1.822h-143.195c-1.225,0-2.207,0.504-2.992,1.538
	c-0.282,0.895-0.718,2.541-0.202,3.314L-3187.896,211.555z M-3047.407,213.257l-26.278,50.48h-78.979l-26.969-50.48H-3047.407z
	 M-3129.112,473.41c3.608,0.005,7.215,0.012,10.823,0.012c7.329,0,13.243-0.027,18.611-0.084c3.047-0.032,6.264-0.464,9.304-1.249
	c7.393-1.909,12.188-6.603,14.25-13.951c1.331-4.743,1.533-9.773,0.6-14.951c-1.662-9.22-6.702-14.718-15.407-16.81
	c-2.832-0.681-5.981-1.054-9.362-1.111c-3.491-0.058-7.31-0.085-12.019-0.085c-2.514,0-5.028,0.007-7.541,0.014
	c-2.518,0.007-5.036,0.014-7.554,0.014h-0.518c-0.375,0-0.749-0.02-1.124-0.041l-0.449-0.024l-2.013-0.089v-10.917h40.576V408.5
	h-40.589v-13.707h48.587v-5.51h-56.137v19.309h-9.361v5.616h9.392v59.189C-3135.733,473.398-3132.423,473.404-3129.112,473.41z
	 M-3131.549,430.996l1.992-0.108l0.423-0.027c0.345-0.023,0.667-0.044,0.99-0.044c2.236-0.001,4.47-0.004,6.706-0.008
	c2.626-0.004,5.253-0.008,7.879-0.008c3.596,0,7.193,0.008,10.789,0.032c4.765,0.033,8.553,0.864,11.921,2.616
	c4.615,2.401,7.411,6.495,8.309,12.169c0.589,3.722,0.321,7.353-0.799,10.791c-1.665,5.111-5.343,8.517-10.933,10.126
	c-2.519,0.725-4.895,1.107-7.063,1.136c-5.059,0.066-10.023,0.075-13.783,0.075c-2.15,0-4.3-0.003-6.45-0.007
	c-2.148-0.003-4.296-0.006-6.444-0.006h-0.621c-0.232,0-0.464-0.02-0.726-0.048l-0.258-0.025l-1.931-0.161V430.996z
	 M-3059.86,541.528c-4.417,0.61-8.719,0.61-13.685,0.61h-79.894c-48.527,0-81.299-16.958-94.774-49.042
	c-18.08-43.016,3.275-102.192,34.389-134.576l39.543-40.171h120.965l39.573,40.202c13.087,13.711,24.427,31.936,31.918,51.29
	c0.527,1.316,1.97,2.307,3.358,2.307c0.345,0,0.676-0.062,0.982-0.184c0.833-0.334,1.548-1.025,1.961-1.898
	c0.23-0.486,0.557-1.45,0.161-2.441l-0.041-0.108c-6.869-19.462-18.653-38.529-33.154-53.661l-40.547-41.161
	c-0.783-0.783-1.324-1.022-2.317-1.022h-124.143c-0.992,0-1.534,0.239-2.302,1.006l-40.541,41.155
	c-32.532,33.737-54.776,96.08-35.687,142.013c10.018,24.163,35.613,52.965,100.654,52.965h79.894c4.927,0,9.583,0,14.288-0.579
	c1.492-0.33,3.05-1.464,3.177-3.693C-3056.535,542.984-3058.24,541.615-3059.86,541.528z M-2864.591,504.034h-12.714
	c-1.741-43.599-37.42-78.747-81.665-80.438v-12.097c0-2.152-1.185-3.338-3.337-3.338c-2.121,0-3.337,1.217-3.337,3.338v12.097
	c-44.245,1.691-79.923,36.839-81.664,80.438h-12.1c-2.121,0-3.338,1.217-3.338,3.338s1.217,3.337,3.338,3.337h12.1
	c1.741,43.6,37.419,78.747,81.664,80.438v12.097c0,2.121,1.216,3.338,3.337,3.338c2.152,0,3.337-1.185,3.337-3.338v-12.095
	c22.074-0.822,42.578-9.778,58.042-25.443c14.767-14.957,23.093-34.366,23.666-54.997h12.672c1.605,0,3.338-1.276,3.338-3.337
	C-2861.253,505.251-2862.47,504.034-2864.591,504.034z M-2908.226,510.709h24.24c-1.735,39.92-34.422,72.078-74.985,73.759v-24.244
	c0-2.152-1.185-3.337-3.337-3.337c-2.121,0-3.337,1.216-3.337,3.337v24.244c-40.563-1.681-73.25-33.839-74.985-73.759h24.855
	c1.605,0,3.337-1.276,3.337-3.337c0-2.121-1.216-3.338-3.337-3.338h-24.855c1.735-39.92,34.423-72.078,74.985-73.759v24.244
	c0,2.121,1.216,3.338,3.337,3.338c2.152,0,3.337-1.185,3.337-3.338v-24.244c40.563,1.681,73.25,33.839,74.985,73.759h-24.24
	c-2.121,0-3.337,1.217-3.337,3.338S-2910.347,510.709-2908.226,510.709z M-2962.308,472.691c-19.446,0-34.68,15.234-34.68,34.681
	c0,19.447,15.234,34.68,34.68,34.68c19.447,0,34.681-15.234,34.681-34.68C-2927.627,487.925-2942.861,472.691-2962.308,472.691z
	 M-2962.308,535.377c-15.704,0-28.005-12.301-28.005-28.005c0-15.705,12.301-28.006,28.005-28.006
	c15.443,0,28.006,12.563,28.006,28.006C-2934.302,523.076-2946.603,535.377-2962.308,535.377z"/>
</svg>
