<?xml version="1.0" encoding="utf-8"?>
<!-- Generator: Adobe Illustrator 18.1.1, SVG Export Plug-In . SVG Version: 6.00 Build 0)  -->
<svg version="1.1" id="Layer_1" xmlns="http://www.w3.org/2000/svg" xmlns:xlink="http://www.w3.org/1999/xlink" x="0px" y="0px"
	 viewBox="-4521.2 206.582 400 400" enable-background="new -4521.2 206.582 400 400" xml:space="preserve">
<path d="M-4384.797,250.052c0.901,0,1.752-0.375,2.502-1.124c12.625-12.139,29.537-18.824,47.62-18.824
	c14.265,0,27.927,4.183,39.51,12.098l5.181,3.54l-31.803,8.48c-1.962,0.491-3.051,2.406-2.628,4.585
	c0.17,0.493,0.281,0.717,0.339,0.816l0.297,0.149l0.331,0.33c0.43,0.43,1.136,0.87,3.105,0.87h0.899l37.375-10.192
	c0.923-0.231,1.7-0.889,1.822-1.115l0.064-0.195l0.092-0.184c0.462-0.924,0.583-1.828,0.428-2.136l-0.118-0.237l-10.806-37.61
	c-0.413-1.652-1.848-2.72-3.655-2.72c-0.335,0-0.681,0.038-1.027,0.112c-1.95,0.507-3.024,2.429-2.586,4.607l8.197,26.35
	l-6.469-3.882c-11.732-7.039-25.188-10.76-38.913-10.76c-19.642,0-38.199,7.482-52.219,21.034c-0.709,0.709-1.084,1.56-1.084,2.461
	c0,0.901,0.375,1.753,1.084,2.462C-4386.55,249.677-4385.699,250.052-4384.797,250.052z M-4257.603,563.73
	c-0.901,0-1.752,0.375-2.502,1.124c-12.625,12.138-29.536,18.823-47.62,18.824c-14.264,0-27.926-4.183-39.51-12.099l-5.18-3.54
	l31.802-8.48c1.991-0.497,3.083-2.463,2.607-4.683c-0.424-1.631-1.852-2.684-3.646-2.684c-0.33,0-0.669,0.037-1.009,0.108
	l-37.751,10.18c-1.133,0.603-1.713,1.183-2.435,1.905l-0.196,0.196c-0.495,0.878-0.218,1.431-0.123,1.622l0.119,0.237l10.762,37.453
	c0.189,0.56,0.31,0.807,0.372,0.911l0.298,0.149l0.33,0.33c0.813,0.814,1.814,1.299,2.676,1.299h1.308
	c1.791-0.606,2.752-2.461,2.325-4.549l-7.629-25.822l6.333,3.8c11.73,7.038,25.187,10.759,38.912,10.76c0.003,0,0.002,0,0.005,0
	c19.638-0.001,38.195-7.482,52.214-21.034c0.709-0.71,1.084-1.561,1.084-2.463c0-0.901-0.375-1.752-1.085-2.462
	C-4255.851,564.104-4256.702,563.73-4257.603,563.73z M-4202.578,432.796l-0.1-0.125c-0.292-0.365-0.813-0.584-1.393-0.584
	c-0.477,0-0.938,0.155-1.177,0.393c-7.96,7.961-15.795,13.262-28.159,13.262c-14.243,0-27.358-7.966-34.228-20.79l-2.27-4.237
	h39.068c0.909,0,2.689-0.812,2.689-2.689c0-0.908-0.812-2.69-2.689-2.69h-40.476l-0.462-2.314c-0.072-0.363-0.145-0.714-0.215-1.054
	c-0.358-1.73-0.697-3.365-0.697-5.077v-5.876h41.422c0.908,0,2.689-0.812,2.689-2.69c0-0.908-0.812-2.689-2.689-2.689h-39.93
	l1.743-4.022c6.11-14.101,20.423-23.575,35.617-23.575c13.022,0,20.198,4.867,28.173,13.277c0.194,0.177,0.76,0.428,1.591,0.428
	c0.854,0,1.428-0.265,1.605-0.442c0.281-0.281,0.442-0.944,0.442-1.82c0-0.885-0.119-1.213-0.647-2.025
	c-6.972-6.929-16.245-13.941-32.021-13.941c-19.362,0-36.155,12.432-41.786,30.936l-0.621,2.04h-9.842
	c-0.908,0-2.689,0.812-2.689,2.69c0,0.908,0.812,2.689,2.689,2.689h8.874v2.878c0,0.704-0.134,1.299-0.251,1.824
	c-0.099,0.439-0.176,0.785-0.176,1.174c0,1.56,0,3.5,0.342,4.87l0.893,3.575h-9.29l-0.443-0.148
	c-0.266-0.089-0.497-0.133-0.687-0.133c-0.159,0-0.363,0.027-0.663,0.226c-0.422,0.282-0.859,1.065-0.859,1.889
	c0,0.908,0.812,2.689,2.689,2.689h10.121l0.706,1.853c6.508,17.085,22.6,28.125,40.994,28.125c15.125,0,24.792-7.158,32.251-14.172
	c0.476-0.489,0.738-1.125,0.738-1.794c0-0.681-0.271-1.327-0.763-1.819L-4202.578,432.796z M-4393.452,402.822
	c-2.89-0.694-6.108-1.076-9.565-1.133c-3.618-0.06-7.576-0.088-12.458-0.088c-2.609,0-5.218,0.008-7.828,0.015
	c-2.615,0.008-5.229,0.015-7.844,0.015h-0.533c-0.401,0-0.802-0.021-1.205-0.044l-0.457-0.024l-2.75-0.122v-12.682h42.106v-4.467
	h-42.119v-15.608h50.417v-4.333h-56.869v20.037h-9.714v4.443h9.746v61.42c3.206,0.001,6.411,0.007,9.616,0.012
	c3.744,0.006,7.488,0.012,11.232,0.012c7.601,0,13.734-0.028,19.301-0.087c3.106-0.033,6.388-0.474,9.489-1.275
	c7.52-1.942,12.195-6.519,14.293-13.993c1.353-4.82,1.558-9.936,0.608-15.204C-4379.655,410.448-4384.714,404.922-4393.452,402.822z
	 M-4384.754,433.529c-1.802,5.536-5.777,9.223-11.812,10.959c-2.673,0.769-5.201,1.175-7.512,1.205
	c-5.266,0.07-10.436,0.078-14.353,0.078c-2.225,0-11.122-0.013-13.345-0.013h-0.639c-0.266,0-0.532-0.022-0.834-0.054l-0.251-0.025
	l-2.632-0.226V406.29l2.72-0.149l0.423-0.027c0.377-0.026,0.731-0.048,1.082-0.048c2.33-0.001,4.659-0.004,6.988-0.008
	c2.727-0.004,5.455-0.008,8.183-0.008c3.722,0,7.444,0.007,11.166,0.033c5.059,0.035,9.089,0.922,12.685,2.793
	c4.995,2.598,8.018,7.017,8.987,13.133C-4383.271,425.981-4383.559,429.857-4384.754,433.529z M-4157.502,325.623
	c-21.852-21.961-50.786-34.056-81.472-34.056c-30.439,0-58.917,11.716-80.192,32.99l-1.995,1.995l-2.034-1.956
	c-21.864-21.023-50.357-32.601-80.231-32.601c-30.569,0-59.511,11.875-81.477,33.419c-21.826,21.826-33.847,50.762-33.847,81.477
	c0,30.715,12.021,59.65,33.847,81.477c21.551,21.55,50.487,33.418,81.477,33.418c30.294,0,58.781-11.571,80.211-32.582l2.016-1.976
	l2.014,1.976c21.705,21.287,50.191,33.01,80.212,33.01c30.991,0,60.078-12.02,81.905-33.846
	c21.55-21.55,33.418-50.334,33.418-81.049C-4123.65,376.576-4135.672,347.562-4157.502,325.623z M-4327.752,484.322
	c-20.25,19.828-47.108,30.748-75.625,30.748c-29.003,0-56.208-11.231-76.602-31.626c-42.211-42.211-42.211-110.894,0-153.105
	c20.427-20.428,47.615-31.678,76.553-31.678c28.515,0,55.39,10.938,75.675,30.8l1.901,1.862l-1.708,2.041
	c-16.815,20.097-26.312,46.226-26.738,73.528c0,26.808,9.496,52.921,26.738,73.528l1.708,2.041L-4327.752,484.322z
	 M-4238.545,515.122c-59.679,0-108.231-48.552-108.231-108.231c0-28.938,11.25-56.125,31.678-76.553
	c20.704-20.704,47.891-32.106,76.553-32.106s55.849,11.402,76.574,32.128c20.414,20.858,31.657,48.037,31.657,76.531
	C-4130.314,466.57-4178.867,515.122-4238.545,515.122z"/>
</svg>
