<?xml version="1.0" encoding="utf-8"?>
<!-- Generator: Adobe Illustrator 18.1.1, SVG Export Plug-In . SVG Version: 6.00 Build 0)  -->
<svg version="1.1" id="Layer_1" xmlns="http://www.w3.org/2000/svg" xmlns:xlink="http://www.w3.org/1999/xlink" x="0px" y="0px"
	 viewBox="1778.8 206.582 400 400" enable-background="new 1778.8 206.582 400 400" xml:space="preserve">
<path d="M2010.916,606.582c-28.224,0-56.448,0-84.672,0c0-66.774,0-133.547,0-201.46c-15.836,0-29.816,0-43.796,0
	c0-22.384,0-44.769,0-67.153c14.225-0.988,28.449-1.976,43.797-3.042c0-19.173-0.136-37.493,0.028-55.81
	c0.344-38.506,18.562-63.932,56.303-69.442c30.361-4.433,61.679-2.308,92.573-3.092c0,23.358,0,46.715,0,70.073
	c-16.006-0.119-32.103-1.246-47.97,0.183c-5.643,0.508-14.789,6.726-15.333,11.191c-1.899,15.574-0.735,31.522-0.735,47.1
	c22.563,1.001,43.301,1.921,64.038,2.841c0,4.866,0,9.732,0,14.599c-2.411,16.981-4.822,33.962-7.403,52.143
	c-19.025,0-37.285,0-56.83,0C2010.916,472.894,2010.916,539.738,2010.916,606.582z"/>
</svg>
