<?xml version="1.0" encoding="utf-8"?>
<!-- Generator: Adobe Illustrator 18.1.1, SVG Export Plug-In . SVG Version: 6.00 Build 0)  -->
<svg version="1.1" id="Layer_1" xmlns="http://www.w3.org/2000/svg" xmlns:xlink="http://www.w3.org/1999/xlink" x="0px" y="0px"
	 viewBox="-1581.2 206.582 400 400" enable-background="new -1581.2 206.582 400 400" xml:space="preserve">
<path d="M-1193.811,606.505c-2.225,0-5.108-1.917-9.348-6.214c-22.822-23.127-46.2-46.461-68.809-69.025
	c-9.907-9.888-19.814-19.776-29.707-29.678c-0.609-0.609-1.201-1.363-1.826-2.161c-0.342-0.437-0.692-0.883-1.062-1.331
	l-1.928-2.335l-2.39,1.86c-0.867,0.675-1.679,1.312-2.457,1.921c-1.545,1.211-2.95,2.313-4.374,3.389
	c-29.876,22.579-63.6,34.028-100.232,34.03c-2.622,0-5.299-0.059-7.957-0.175c-36.328-1.586-71.694-15.635-99.585-39.557
	c-27.877-23.911-47.201-56.751-54.411-92.469c-1.008-4.997-1.691-10.202-2.35-15.235c-0.302-2.302-0.613-4.679-0.954-7.026v-21.223
	c0.043-0.173,0.089-0.345,0.135-0.517c0.204-0.768,0.435-1.639,0.507-2.616c1.292-17.52,5.208-33.898,11.64-48.679
	c11.773-27.059,28.003-49.17,48.238-65.717c20.299-16.6,45.214-28.079,74.05-34.117c4.455-0.933,9.121-1.538,13.632-2.123
	c2.055-0.266,4.178-0.541,6.275-0.846h21.36c2.098,0.305,4.221,0.581,6.276,0.847c4.513,0.585,9.179,1.19,13.635,2.124
	c59.212,12.409,100.248,46.03,121.97,99.93c23.689,58.778,15.343,114.905-24.806,166.82c-0.317,0.41-0.629,0.825-0.997,1.315
	l-2.217,2.94l1.805,1.915c0.321,0.341,0.639,0.685,0.957,1.027c0.703,0.759,1.43,1.543,2.194,2.306
	c26.825,26.836,53.656,53.668,80.487,80.501l20.855,20.856c5.311,5.312,5.328,7.534,0.104,13.209
	C-1188.954,604.638-1191.641,606.505-1193.811,606.505z M-1416.07,228.476c-78.945,0-143.236,64.252-143.314,143.229
	c-0.078,79.015,64.173,143.369,143.228,143.455h0.158c78.938,0.008,143.221-64.249,143.298-143.239
	c0.037-38.194-14.865-74.173-41.964-101.31c-27.098-27.137-63.065-42.101-101.275-42.135H-1416.07z"/>
</svg>
