<?xml version="1.0" encoding="utf-8"?>
<!-- Generator: Adobe Illustrator 18.1.1, SVG Export Plug-In . SVG Version: 6.00 Build 0)  -->
<svg version="1.1" id="Layer_1" xmlns="http://www.w3.org/2000/svg" xmlns:xlink="http://www.w3.org/1999/xlink" x="0px" y="0px"
	 viewBox="1358.8 206.582 400 400" enable-background="new 1358.8 206.582 400 400" xml:space="preserve">
<path d="M1640.319,606.582c-21.475-1.218-42.424-4.726-62.965-10.713c-1.564-0.456-2.896-1.744-4.306-2.689
	c-37.766-25.338-67.835-58.255-93.859-95.184c-16.515-23.434-33.427-46.588-47.067-71.917
	c-15.901-29.529-28.769-60.217-35.563-93.16c-1.025-4.969-0.061-10.55,0.869-15.687c5.648-31.179,15.908-60.676,32.362-87.928
	c2.026-3.355,5.09-4.813,7.873-6.901c9.874-7.407,20.511-13.244,32.901-15.158c9.445-1.459,18.655-0.676,27.154,4.053
	c1.613,0.897,2.696,2.784,3.951,4.275c0.663,0.788,1.155,1.717,1.749,2.566c14.925,21.323,29.857,42.641,44.78,63.966
	c10.257,14.658,7.009,31.232-7.97,40.915c-10.443,6.751-20.854,13.554-31.287,20.32c-1.792,1.162-3.896,1.996-5.343,3.481
	c-0.871,0.894-1.017,2.751-1.032,4.181c-0.094,8.564,2.336,16.624,5.523,24.424c9.916,24.268,23.798,46.201,39.876,66.801
	c9.721,12.455,19.686,24.72,32,34.766c3.269,2.666,6.968,4.898,10.716,6.858c4.128,2.16,8.075-0.235,11.347-2.158
	c10.417-6.122,20.541-12.747,30.726-19.258c12.749-8.15,28.206-5.417,36.918,7.054c16.884,24.167,33.699,48.388,50.054,72.912
	c2.061,3.091,1.906,8.216,1.515,12.277c-1.041,10.796-5.911,20.219-13.407,27.805c-6.431,6.508-13.601,12.422-21.083,17.691
	c-3.315,2.334-8.149,2.959-12.396,3.432C1663.039,604.866,1651.668,605.624,1640.319,606.582z M1642.767,587.401
	c8.588-0.812,17.191-1.505,25.758-2.495c3.502-0.405,7.541-0.552,10.265-2.397c5.952-4.031,11.514-8.771,16.675-13.796
	c4.431-4.314,7.077-9.964,7.88-16.188c0.227-1.76-0.093-4.031-1.069-5.439c-15.604-22.531-31.328-44.979-47.089-67.401
	c-4.177-5.943-8.769-6.725-14.786-2.734c-9.403,6.237-18.786,12.505-28.154,18.795c-0.936,0.628-1.847,1.389-2.537,2.271
	c-2.647,3.379-6.181,5.082-10.326,5.632c-6.541,0.868-12.863-0.461-18.208-3.991c-7.068-4.667-14.24-9.53-20.181-15.49
	c-22.684-22.756-40.617-49.099-56.088-77.145c-7.41-13.434-13.966-27.304-16.617-42.574c-3.196-18.406-0.015-28.295,16.323-38.286
	c9.035-5.525,17.948-11.25,26.878-16.945c7.086-4.519,8.026-9.201,3.335-16.156c-14.101-20.905-28.417-41.671-42.192-62.789
	c-3.991-6.119-9.139-7.564-15.541-7c-10.224,0.901-18.818,5.857-26.934,11.621c-2.629,1.867-5.058,4.395-6.756,7.132
	c-14.453,23.289-22.784,48.905-28.051,75.611c-1.072,5.437-2.597,10.744-1.016,16.61c4.892,18.152,11.014,35.833,18.689,52.98
	c18.411,41.129,42.678,78.608,70.606,113.862c22.428,28.312,47.035,54.34,76.575,75.382c1.642,1.17,3.582,2.109,5.524,2.641
	C1604.376,584.219,1623.407,586.603,1642.767,587.401z"/>
</svg>
