<?xml version="1.0" encoding="utf-8"?>
<!-- Generator: Adobe Illustrator 18.1.1, SVG Export Plug-In . SVG Version: 6.00 Build 0)  -->
<svg version="1.1" id="Layer_1" xmlns="http://www.w3.org/2000/svg" xmlns:xlink="http://www.w3.org/1999/xlink" x="0px" y="0px"
	 viewBox="-5361.2 206.582 400 400" enable-background="new -5361.2 206.582 400 400" xml:space="preserve">
<path d="M-4970.816,398.021c-4.226-3.225-9.49-5.001-14.823-5.001c-4.083,0-8.133,1.033-11.71,2.986l-70.582,38.584
	c-2.404,1.315-5.015,2.092-7.764,2.311l-30.961,2.421v-3.485c0-13.718-10.736-24.881-24.441-25.413l-85.65-3.338
	c-0.315-0.011-0.63-0.016-0.944-0.016c-7.498,0-14.663,3.155-19.658,8.656l-31.037,34.191c-3.662,4.032-8.882,6.344-14.322,6.344
	h-13.047v-17.167c0-1.951-1.587-3.538-3.538-3.538h-58.364c-1.953,0.002-3.542,1.591-3.542,3.542v140.107
	c0,1.951,1.587,3.538,3.538,3.538h58.376c1.951,0,3.538-1.587,3.538-3.538v-16.314h62.045c2.819,0,5.606-0.447,8.281-1.327
	l137.648-45.447c2.373-0.782,4.625-1.903,6.699-3.331l109.296-75.224c6.527-4.491,10.38-11.607,10.572-19.519
	C-4961.022,410.115-4964.523,402.818-4970.816,398.021z M-5302.823,575.67h-51.307V442.633h51.307V575.67z M-4975.795,431.735
	l-109.3,75.233c-1.515,1.044-3.165,1.863-4.902,2.434l-137.653,45.45c-1.971,0.645-4.011,0.971-6.062,0.971h-62.041v-92.485h13.047
	c7.43,0,14.559-3.159,19.56-8.666l31.039-34.191c3.663-4.03,8.897-6.341,14.36-6.341c0.236,0,0.472,0.004,0.715,0.013l85.664,3.339
	c9.894,0.384,17.645,8.443,17.645,18.347c0,9.261-6.935,17.097-16.132,18.227l-59.313,7.25c-1.937,0.238-3.319,2.003-3.082,3.938
	c0.219,1.799,1.705,3.103,3.534,3.103c0.142,0,0.285-0.008,0.402-0.021l59.314-7.25c8.1-0.995,15.284-5.873,19.218-13.048
	l0.788-1.437l33.852-2.65c3.756-0.3,7.323-1.362,10.603-3.157l70.574-38.578c2.538-1.392,5.412-2.127,8.312-2.127
	c3.785,0,7.527,1.263,10.541,3.557c4.475,3.413,6.96,8.598,6.819,14.218C-4968.418,423.487-4971.153,428.543-4975.795,431.735z
	 M-5060.191,351.035h-27.822c-1.836,0-3.329,1.494-3.329,3.329c0,1.836,1.493,3.329,3.329,3.329h27.822
	c1.835,0,3.329-1.493,3.329-3.329C-5056.862,352.529-5058.356,351.035-5060.191,351.035z M-5277.497,355.648
	c0,15.787,12.844,28.632,28.631,28.632h188.347c15.794,0,28.644-12.844,28.644-28.632v-96.596c0-15.787-12.85-28.632-28.644-28.632
	h-188.15c-15.903,0-28.841,12.844-28.841,28.632v48.351l0.012,9.789V355.648z M-5270.839,259.052
	c0-12.116,9.853-21.973,21.962-21.973h188.347c12.123,0,21.985,9.857,21.985,21.973v96.596c0,12.116-9.857,21.974-21.974,21.974
	h-188.359c-12.109,0-21.962-9.857-21.962-21.974V259.052z M-5107.393,298.585c4.76,0,9.375-1.422,13.345-4.112l0.851-0.577
	l0.851,0.578c3.959,2.689,8.557,4.111,13.295,4.111c13.116,0,23.787-10.665,23.787-23.775c0-13.103-10.671-23.763-23.787-23.763
	c-4.71,0-9.309,1.422-13.3,4.113l-0.851,0.574l-0.849-0.578c-3.951-2.689-8.564-4.11-13.342-4.11
	c-13.11,0-23.775,10.665-23.775,23.775C-5131.168,287.925-5120.503,298.585-5107.393,298.585z M-5086.862,259.816
	c2.751-1.436,5.306-2.134,7.812-2.134h0.002c9.437,0.013,17.115,7.697,17.115,17.129c0,9.438-7.679,17.116-17.117,17.116
	c-2.521,0-5.076-0.694-7.812-2.122l-1.472-0.769l0.899-1.396c2.505-3.888,3.829-8.324,3.829-12.83c0-4.523-1.323-8.959-3.826-12.827
	l-0.905-1.397L-5086.862,259.816z M-5107.393,257.694c9.438,0,17.117,7.678,17.117,17.116c0,9.438-7.679,17.116-17.117,17.116
	c-9.431,0-17.104-7.678-17.104-17.116C-5124.498,265.372-5116.824,257.694-5107.393,257.694z M-5249.192,357.693h27.81
	c1.835,0,3.329-1.493,3.329-3.329c0-1.836-1.494-3.329-3.329-3.329h-27.81c-1.835,0-3.329,1.494-3.329,3.329
	C-5252.521,356.2-5251.028,357.693-5249.192,357.693z M-5195.462,357.693h27.81c1.836,0,3.33-1.493,3.33-3.329
	c0-1.836-1.494-3.329-3.33-3.329h-27.81c-1.835,0-3.329,1.494-3.329,3.329C-5198.791,356.2-5197.297,357.693-5195.462,357.693z
	 M-5141.744,357.693h27.81c1.835,0,3.329-1.493,3.329-3.329c0-1.836-1.494-3.329-3.329-3.329h-27.81c-1.836,0-3.33,1.494-3.33,3.329
	C-5145.073,356.2-5143.58,357.693-5141.744,357.693z"/>
</svg>
