<?xml version="1.0" encoding="utf-8"?><svg xmlns="http://www.w3.org/2000/svg" xmlns:xlink="http://www.w3.org/1999/xlink"><symbol viewBox="-6201.2 206.582 400 400" id="icon_1-01" xmlns="http://www.w3.org/2000/svg"><path d="M-6072.782 359.317c3.549.001 7.097.007 10.646.013 4.075.007 8.149.014 12.224.014 8.275 0 14.952-.03 21.013-.096 3.395-.036 6.981-.518 10.372-1.393 8.252-2.131 13.383-7.154 15.685-15.356 1.481-5.275 1.705-10.871.666-16.63-1.833-10.165-7.384-16.227-16.972-18.532-3.158-.759-6.674-1.176-10.449-1.238a815.757 815.757 0 0 0-13.563-.096c-2.837 0-5.675.008-8.512.016-2.843.008-5.686.016-8.529.016h-.594c-.436 0-.872-.023-1.309-.048l-.495-.026-2.82-.126v-13.45h45.829v-5.223h-45.844v-16.627h54.876v-5.078h-62.259v21.809h-10.573v5.198h10.608v66.853zm7.319-48.806l2.791-.153.465-.03a16.86 16.86 0 0 1 1.162-.051s13.544-.017 16.517-.017c4.048 0 8.098.008 12.146.036 5.476.037 9.837.997 13.725 3.019 5.382 2.8 8.642 7.565 9.686 14.163.68 4.295.369 8.485-.924 12.455-1.942 5.964-6.227 9.937-12.734 11.81-2.895.833-5.63 1.271-8.128 1.304-5.733.076-11.368.086-15.638.086-2.408 0-12.033-.014-14.438-.014h-.764a8.39 8.39 0 0 1-.888-.058l-.277-.027-2.701-.231v-42.292zm259.476 8.821l-43.435 40.842V212.765h-5.903v147.409l-43.435-40.842-4.043 4.301 50.429 47.42 50.429-47.42-4.042-4.301zm-235.644 95.074c57.297 0 103.912-46.615 103.912-103.912s-46.615-103.912-103.912-103.912-103.912 46.614-103.912 103.912 46.615 103.912 103.912 103.912zm0-201.327c53.715 0 97.416 43.7 97.416 97.416s-43.701 97.416-97.416 97.416c-53.715 0-97.416-43.701-97.416-97.416s43.7-97.416 97.416-97.416zm140.308 202.109c-1.001 0-2.03.037-3.038.109a3.244 3.244 0 0 0-2.05.941l-54.97 54.981-4.138-3.403c-3.975-3.27-8.671-4.998-13.583-4.998h-35.262l-17.35-17.35a3.228 3.228 0 0 0-2.296-.953h-64.058c-.759 0-1.502.27-2.078.746l-52.634 43.863-16.202-16.202c-.575-.575-1.71-.956-2.216-.956l-.122.003a3.244 3.244 0 0 0-2.32 1.015l-25.925 27.453a3.234 3.234 0 0 0 .065 4.53l100.674 100.674a3.238 3.238 0 0 0 2.285.942h.074a3.244 3.244 0 0 0 2.287-1.014l25.925-27.454a3.233 3.233 0 0 0-.065-4.529l-15.112-15.112 13.571-6.799h99.91c.911 0 1.779-.38 2.393-1.05l87.826-95.824c6.44-7.024 7.916-17.098 3.76-25.665-4.298-8.865-13.538-13.948-25.351-13.948zm-173.827 160.747l-21.458 22.739-96.067-96.067 21.458-22.738 96.067 96.066zm190.641-125.519l-86.87 94.763h-99.234c-.517 0-1.014.116-1.458.337l-16.207 8.109-59.889-59.889 51.266-42.725h61.541l17.351 17.351a3.231 3.231 0 0 0 2.303.952h36.605c5.893 0 11.275 3.5 13.671 8.831.307.652.455 1.229.54 1.593.438 1.343.684 2.608.752 3.864.038.691.002 1.3-.035 1.763-.077 1.147-.332 2.088-.519 2.778l-.065.236c-.355 1.198-.814 2.587-1.771 3.974l-.085.135-.137.185c-3.079 4.163-8.414 6.75-13.925 6.75h-56.582v6.496h58.155c7.568 0 14.448-3.953 18.422-10.579.063-.127.129-.25.195-.365.674-1.185 1.119-2.083 1.453-2.938.082-.208.181-.553.284-.92.075-.262.15-.525.212-.725l.213-.705c.164-.531.306-.991.375-1.355l.018-.088s.077-.324.11-.445c.12-.796.166-1.681.197-2.764.01-.274.034-.539.07-.832a21.783 21.783 0 0 0-.351-3.671l-.561-3.05 55.877-55.886 2.564.089c8.546.296 15.184 4.046 18.211 10.288 2.987 6.154 1.93 13.393-2.696 18.443z"/></symbol><symbol viewBox="-5781.2 206.582 400 400" id="icon_1-02" xmlns="http://www.w3.org/2000/svg"><path d="M-5533.559 374.686c-17.83-2.919-33.146-4.313-48.175-4.386h-1.249c-14.655 0-29.748 1.224-46.139 3.742-1.514.233-2.677.764-3.187 1.45-.13.176-.525.71-.213 1.827.582 2.083 1.578 2.821 3.807 2.821.675 0 1.433-.08 2.209-.23 14.774-2.981 29.643-4.493 44.193-4.493 15.406 0 30.912 1.696 46.09 5.042.929.205 1.779.309 2.527.309 2.221 0 3.175-.759 3.789-3.046.14-.504.25-1.181-.014-1.54-.349-.474-1.511-1.151-3.638-1.496zm-28.19-71.495v-.007h.149c12.851-.041 24.955-5.125 34.085-14.331 9.124-9.199 14.134-21.357 14.093-34.221-.088-26.442-21.703-47.995-48.294-48.05-12.837 0-24.948 5.044-34.106 14.202-9.165 9.165-14.208 21.275-14.208 34.106.008 26.639 21.663 48.301 48.281 48.301zm-29.401-77.729c7.909-7.909 18.37-12.267 29.523-12.267 22.864.048 41.526 18.648 41.601 41.458.027 11.106-4.29 21.601-12.179 29.551-7.881 7.943-18.329 12.342-29.415 12.376l-.122 3.306v-3.306c-22.979 0-41.675-18.703-41.675-41.689-.006-11.066 4.352-21.521 12.267-29.429zm207.257 236.137c-6.761-6.804-6.376-17.006-5.968-27.839.533-14.286 1.084-29.057-14.627-37.396-3.905-2.072-8.085-3.167-12.091-3.167-2.768 0-5.315.517-7.574 1.539a14.863 14.863 0 0 0-4.604 3.232l-4.889 5.059-3.298-6.214c-12.089-22.777-31.196-41.052-56.808-54.329-22.236-11.631-58.56-18.576-97.167-18.576-24.188 0-46.726 2.773-63.461 7.807l-2.081.626-1.895-1.065c-11.121-6.252-23.411-11.516-37.582-16.098a18.891 18.891 0 0 0-5.856-.916c-6.34 0-12.379 2.961-16.147 7.912-3.803 5.023-4.985 11.382-3.244 17.441 2.31 8.004 5.24 17.949 7.049 24.033l.864 2.908-2.14 2.151c-12.439 12.503-21.884 26.892-28.073 42.765l-1.139 2.919-3.118.309c-5.796.574-11.549 1.301-16.412 1.937l-.879.093c-11.142 1.357-14.224 10.252-14.287 15.281a2546.673 2546.673 0 0 0 0 44.234c.078 8.092 5.651 14.286 13.801 15.405l7.181.89c3.297.443 7.034.945 10.668 1.382l3.014.363 1.123 2.82c6.905 17.342 17.094 32.342 31.149 45.857l1.776 1.708-.23 2.453c-.146 1.555-.427 3.256-.746 5.19l-.162 1.026c-.078.472-.313 1.906-.377 2.673l-.011.133-2.523 18.46c-.69 5.068-1.228 9.14-1.691 12.824-.62 4.84.867 9.681 4.115 13.321a16.894 16.894 0 0 0 12.724 5.774h43.793c3.817 0 7.093-.918 9.74-2.728l2.003-1.739c2.294-2.267 3.746-5.263 4.436-9.166.426-2.378.794-4.77 1.124-7.316l.584-4.512 4.549.06c1.427.019 3.059.027 4.875.027 27.737 0 97.396-2.044 100.86-2.182.16-.015.313-.029.459-.037l4.992-.292.399 4.984.062.673c.142 1.492.287 2.952.495 4.411l.336 2.81c1.403 11.073 9.491 15.003 16.005 15.003l23.333.068 20.778-.054c4.931 0 9.636-2.147 12.914-5.897 3.279-3.738 4.76-8.653 4.059-13.53l-3.181-23.596a5749.438 5749.438 0 0 0-3.887-29.627l-.287-2.145 1.342-1.699c20.954-26.512 30.549-61.887 25.667-94.634-.415-2.805-1.001-5.573-1.577-8.293-1.484-6.927-2.766-12.911-1.1-19.889.785-3.28 2.531-5.549 5.188-6.742 1.445-.65 3.108-.98 4.945-.98 2.958 0 6.213.863 9.165 2.43 12.228 6.489 11.766 18.687 11.278 31.602-.436 11.676-.887 23.749 7.801 32.506a3.089 3.089 0 0 0 2.221.925c.838 0 1.625-.323 2.222-.917.598-.592.929-1.38.933-2.219a3.13 3.13 0 0 0-.91-2.23zm-71.497 65.42c-1.641 2.029-2.146 3.642-1.876 5.887a6637.981 6637.981 0 0 1 4.127 31.412l3.183 23.634c.435 3-.518 6.182-2.562 8.525-2.12 2.411-5.028 3.739-8.173 3.739l-20.79.068-23.304-.068c-2.572 0-8.669-.919-9.758-9.466l-.332-2.787a79.701 79.701 0 0 1-.474-4.269c-.643-6.713-1.71-11.114-10.359-11.114-.758 0-1.581.041-2.474.123-7.05.616-80.785 2.195-102.471 2.195h-.005c-4.42 0-5.698-.064-6.317-.12l-.258-.023-.255-.049c-1.38-.267-2.426-.307-2.926-.307h-2.287l-.711 2.165c-.051.158-.239.798-.522 2.495l-.445 3.368a148.53 148.53 0 0 1-1.364 9.361c-.119.67-.264 1.295-.435 1.875l.631 1.352-4.13 3.708-.523.285c-1.49.813-3.293 1.208-5.516 1.208h-43.793c-3.063 0-5.989-1.34-7.995-3.636-2.061-2.31-2.979-5.283-2.587-8.36.5-3.998 1.049-8.081 1.58-12.028l2.629-19.294c.082-.84.208-1.614.318-2.301l.28-1.749c.426-2.592.866-5.274.849-7.282l-.001-.204.014-.204c.103-1.433-.394-3.587-1.722-4.976-15.367-14.334-26.112-30.321-32.851-48.873l-.04-.115c-.563-1.672-1.433-2.774-4.024-3.098-4.7-.503-9.39-1.133-13.927-1.742l-.46-.062-7.332-.907c-4.893-.685-8.208-4.386-8.25-9.212a2516.003 2516.003 0 0 1 0-44.138c.074-4.868 3.455-8.424 8.611-9.059l.899-.093c5.79-.749 12.528-1.597 19.353-2.207 3.062-.36 4.504-1.448 5.482-4.096 6.068-16.907 15.98-32.099 29.484-45.176 2.213-2.117 2.681-3.924 1.833-7.135a3051.008 3051.008 0 0 1-7.769-26.417c-1.181-4.135-.377-8.46 2.211-11.869 2.591-3.407 6.724-5.44 11.055-5.44 1.379 0 2.727.211 3.998.624 14.59 4.715 27.146 10.183 38.406 16.727a5.419 5.419 0 0 0 2.811.772c1.222 0 2.338-.365 3.191-.644l.078-.025c16.246-5.028 38.433-7.798 62.472-7.798 37.638 0 72.88 6.678 94.254 17.856 32.067 16.617 53.258 41.241 63 73.247l.145.498c.068.245.152.463.254.649l.378.696.149.778c.274 1.423.57 2.823.929 4.486.485 2.247 1.088 5.044 1.519 7.916 4.689 31.515-4.695 65.418-25.105 90.694zm-214.623-112.423c-5.077 0-9.208 4.131-9.208 9.208s4.131 9.208 9.208 9.208c5.078 0 9.208-4.131 9.208-9.208 0-5.078-4.131-9.208-9.208-9.208z"/></symbol><symbol viewBox="-5361.2 206.582 400 400" id="icon_1-03" xmlns="http://www.w3.org/2000/svg"><path d="M-4970.816 398.021a24.565 24.565 0 0 0-14.823-5.001 24.508 24.508 0 0 0-11.71 2.986l-70.582 38.584a19.254 19.254 0 0 1-7.764 2.311l-30.961 2.421v-3.485a25.355 25.355 0 0 0-24.441-25.413l-85.65-3.338a27.06 27.06 0 0 0-.944-.016c-7.498 0-14.663 3.155-19.658 8.656l-31.037 34.191a19.387 19.387 0 0 1-14.322 6.344h-13.047v-17.167a3.542 3.542 0 0 0-3.538-3.538h-58.364a3.549 3.549 0 0 0-3.542 3.542v140.107a3.542 3.542 0 0 0 3.538 3.538h58.376a3.542 3.542 0 0 0 3.538-3.538v-16.314h62.045a26.46 26.46 0 0 0 8.281-1.327l137.648-45.447a26.354 26.354 0 0 0 6.699-3.331l109.296-75.224c6.527-4.491 10.38-11.607 10.572-19.519.184-7.928-3.317-15.225-9.61-20.022zm-332.007 177.649h-51.307V442.633h51.307V575.67zm327.028-143.935l-109.3 75.233a19.212 19.212 0 0 1-4.902 2.434l-137.653 45.45a19.464 19.464 0 0 1-6.062.971h-62.041v-92.485h13.047c7.43 0 14.559-3.159 19.56-8.666l31.039-34.191a19.438 19.438 0 0 1 15.075-6.328l85.664 3.339a18.305 18.305 0 0 1 17.645 18.347c0 9.261-6.935 17.097-16.132 18.227l-59.313 7.25a3.54 3.54 0 0 0-3.082 3.938c.219 1.799 1.705 3.103 3.534 3.103.142 0 .285-.008.402-.021l59.314-7.25c8.1-.995 15.284-5.873 19.218-13.048l.788-1.437 33.852-2.65a26.301 26.301 0 0 0 10.603-3.157l70.574-38.578a17.33 17.33 0 0 1 8.312-2.127 17.5 17.5 0 0 1 10.541 3.557c4.475 3.413 6.96 8.598 6.819 14.218-.125 5.623-2.86 10.679-7.502 13.871zm-84.396-80.7h-27.822a3.333 3.333 0 0 0-3.329 3.329 3.332 3.332 0 0 0 3.329 3.329h27.822a3.333 3.333 0 0 0 3.329-3.329 3.334 3.334 0 0 0-3.329-3.329zm-217.306 4.613c0 15.787 12.844 28.632 28.631 28.632h188.347c15.794 0 28.644-12.844 28.644-28.632v-96.596c0-15.787-12.85-28.632-28.644-28.632h-188.15c-15.903 0-28.841 12.844-28.841 28.632v48.351l.012 9.789v38.456zm6.658-96.596c0-12.116 9.853-21.973 21.962-21.973h188.347c12.123 0 21.985 9.857 21.985 21.973v96.596c0 12.116-9.857 21.974-21.974 21.974h-188.359c-12.109 0-21.962-9.857-21.962-21.974v-96.596zm163.446 39.533c4.76 0 9.375-1.422 13.345-4.112l.851-.577.851.578c3.959 2.689 8.557 4.111 13.295 4.111 13.116 0 23.787-10.665 23.787-23.775 0-13.103-10.671-23.763-23.787-23.763-4.71 0-9.309 1.422-13.3 4.113l-.851.574-.849-.578a23.62 23.62 0 0 0-13.342-4.11c-13.11 0-23.775 10.665-23.775 23.775 0 13.104 10.665 23.764 23.775 23.764zm20.531-38.769c2.751-1.436 5.306-2.134 7.812-2.134h.002c9.437.013 17.115 7.697 17.115 17.129 0 9.438-7.679 17.116-17.117 17.116-2.521 0-5.076-.694-7.812-2.122l-1.472-.769.899-1.396c2.505-3.888 3.829-8.324 3.829-12.83 0-4.523-1.323-8.959-3.826-12.827l-.905-1.397 1.475-.77zm-20.531-2.122c9.438 0 17.117 7.678 17.117 17.116 0 9.438-7.679 17.116-17.117 17.116-9.431 0-17.104-7.678-17.104-17.116-.001-9.438 7.673-17.116 17.104-17.116zm-141.799 99.999h27.81a3.333 3.333 0 0 0 3.329-3.329 3.333 3.333 0 0 0-3.329-3.329h-27.81a3.334 3.334 0 0 0-3.329 3.329 3.332 3.332 0 0 0 3.329 3.329zm53.73 0h27.81a3.333 3.333 0 0 0 3.33-3.329 3.333 3.333 0 0 0-3.33-3.329h-27.81a3.334 3.334 0 0 0-3.329 3.329 3.333 3.333 0 0 0 3.329 3.329zm53.718 0h27.81a3.333 3.333 0 0 0 3.329-3.329 3.333 3.333 0 0 0-3.329-3.329h-27.81a3.334 3.334 0 0 0-3.33 3.329 3.334 3.334 0 0 0 3.33 3.329z"/></symbol><symbol viewBox="-4941.2 206.582 400 400" id="icon_1-04" xmlns="http://www.w3.org/2000/svg"><path d="M-4706.828 475.696l48.519 48.52h-162.104v6.974h162.104l-48.519 48.52 4.93 4.931 56.938-56.938-56.938-56.938-4.93 4.931zm22.762-151.303c-3.609-.867-7.625-1.344-11.938-1.415a928.348 928.348 0 0 0-15.434-.109c-3.238 0-6.477.01-9.714.019-3.245.009-6.489.019-9.733.019h-.639c-.492 0-.985-.027-1.479-.055l-.566-.03-3.026-.136v-14.937h52.171v-6.327h-52.188v-18.547h62.471v-6.162h-71.258v24.827h-12.037v6.299h12.076v76.104c4.105.002 8.21.008 12.315.015 4.64.008 9.282.016 13.922.016 9.416 0 17.014-.034 23.912-.108 3.879-.041 7.979-.592 11.853-1.592 9.467-2.445 15.353-8.206 17.993-17.615 1.694-6.033 1.95-12.431.762-19.017-2.102-11.655-8.468-18.606-19.463-21.249zm10.306 37.233c-2.19 6.726-7.024 11.208-14.369 13.321-3.279.943-6.375 1.44-9.203 1.477-6.525.086-12.928.098-17.777.098-2.771 0-5.544-.004-8.316-.009-2.769-.004-5.538-.008-8.306-.008h-.71c-.316 0-.632-.027-.99-.065l-.317-.032-2.898-.249v-47.788l2.997-.163.535-.034c.455-.031.88-.058 1.307-.058 2.886-.001 5.771-.005 8.656-.01 3.367-.005 6.735-.01 10.103-.01 4.623 0 9.247.01 13.87.041 6.202.042 11.139 1.128 15.537 3.415 6.07 3.158 9.747 8.535 10.927 15.984.768 4.861.416 9.601-1.046 14.09zm108.845-133.101h-293.617c-13.076 0-23.714 10.656-23.714 23.753v15.55h-19.651v6.975h19.651v32.328h-39.303v6.975h39.303v32.328h-58.954v6.975h58.954V408.3c0 13.097 10.638 23.753 23.714 23.753h293.617c13.076 0 23.714-10.656 23.714-23.753V252.28c.001-13.1-10.638-23.755-23.714-23.755zm16.741 179.773c0 9.408-7.354 16.778-16.74 16.778h-293.617c-9.387 0-16.74-7.37-16.74-16.778v-94.193h19.651v-6.975h-19.651v-32.328h39.303v-6.975h-39.303v-15.55c0-9.408 7.353-16.778 16.74-16.778h293.617c9.387 0 16.74 7.37 16.74 16.778v156.021z"/></symbol><symbol viewBox="-4521.2 206.582 400 400" id="icon_1-05" xmlns="http://www.w3.org/2000/svg"><path d="M-4384.797 250.052c.901 0 1.752-.375 2.502-1.124 12.625-12.139 29.537-18.824 47.62-18.824 14.265 0 27.927 4.183 39.51 12.098l5.181 3.54-31.803 8.48c-1.962.491-3.051 2.406-2.628 4.585.17.493.281.717.339.816l.297.149.331.33c.43.43 1.136.87 3.105.87h.899l37.375-10.192c.923-.231 1.7-.889 1.822-1.115l.064-.195.092-.184c.462-.924.583-1.828.428-2.136l-.118-.237-10.806-37.61c-.413-1.652-1.848-2.72-3.655-2.72-.335 0-.681.038-1.027.112-1.95.507-3.024 2.429-2.586 4.607l8.197 26.35-6.469-3.882a75.642 75.642 0 0 0-38.913-10.76c-19.642 0-38.199 7.482-52.219 21.034-.709.709-1.084 1.56-1.084 2.461 0 .901.375 1.753 1.084 2.462.709.71 1.56 1.085 2.462 1.085zm127.194 313.678c-.901 0-1.752.375-2.502 1.124-12.625 12.138-29.536 18.823-47.62 18.824-14.264 0-27.926-4.183-39.51-12.099l-5.18-3.54 31.802-8.48c1.991-.497 3.083-2.463 2.607-4.683-.424-1.631-1.852-2.684-3.646-2.684-.33 0-.669.037-1.009.108l-37.751 10.18c-1.133.603-1.713 1.183-2.435 1.905l-.196.196c-.495.878-.218 1.431-.123 1.622l.119.237 10.762 37.453c.189.56.31.807.372.911l.298.149.33.33c.813.814 1.814 1.299 2.676 1.299h1.308c1.791-.606 2.752-2.461 2.325-4.549l-7.629-25.822 6.333 3.8a75.653 75.653 0 0 0 38.912 10.76h.005c19.638-.001 38.195-7.482 52.214-21.034.709-.71 1.084-1.561 1.084-2.463 0-.901-.375-1.752-1.085-2.462-.709-.708-1.56-1.082-2.461-1.082zm55.025-130.934l-.1-.125c-.292-.365-.813-.584-1.393-.584-.477 0-.938.155-1.177.393-7.96 7.961-15.795 13.262-28.159 13.262-14.243 0-27.358-7.966-34.228-20.79l-2.27-4.237h39.068c.909 0 2.689-.812 2.689-2.689 0-.908-.812-2.69-2.689-2.69h-40.476l-.462-2.314c-.072-.363-.145-.714-.215-1.054-.358-1.73-.697-3.365-.697-5.077v-5.876h41.422c.908 0 2.689-.812 2.689-2.69 0-.908-.812-2.689-2.689-2.689h-39.93l1.743-4.022c6.11-14.101 20.423-23.575 35.617-23.575 13.022 0 20.198 4.867 28.173 13.277.194.177.76.428 1.591.428.854 0 1.428-.265 1.605-.442.281-.281.442-.944.442-1.82 0-.885-.119-1.213-.647-2.025-6.972-6.929-16.245-13.941-32.021-13.941-19.362 0-36.155 12.432-41.786 30.936l-.621 2.04h-9.842c-.908 0-2.689.812-2.689 2.69 0 .908.812 2.689 2.689 2.689h8.874v2.878c0 .704-.134 1.299-.251 1.824-.099.439-.176.785-.176 1.174 0 1.56 0 3.5.342 4.87l.893 3.575h-9.29l-.443-.148a2.23 2.23 0 0 0-.687-.133c-.159 0-.363.027-.663.226-.422.282-.859 1.065-.859 1.889 0 .908.812 2.689 2.689 2.689h10.121l.706 1.853c6.508 17.085 22.6 28.125 40.994 28.125 15.125 0 24.792-7.158 32.251-14.172a2.561 2.561 0 0 0 .738-1.794 2.56 2.56 0 0 0-.763-1.819l-.113-.112zm-190.874-29.974c-2.89-.694-6.108-1.076-9.565-1.133a746.27 746.27 0 0 0-12.458-.088c-2.609 0-5.218.008-7.828.015-2.615.008-5.229.015-7.844.015h-.533c-.401 0-.802-.021-1.205-.044l-.457-.024-2.75-.122v-12.682h42.106v-4.467h-42.119v-15.608h50.417v-4.333h-56.869v20.037h-9.714v4.443h9.746v61.42c3.206.001 6.411.007 9.616.012 3.744.006 7.488.012 11.232.012 7.601 0 13.734-.028 19.301-.087a40.249 40.249 0 0 0 9.489-1.275c7.52-1.942 12.195-6.519 14.293-13.993 1.353-4.82 1.558-9.936.608-15.204-1.669-9.268-6.728-14.794-15.466-16.894zm8.698 30.707c-1.802 5.536-5.777 9.223-11.812 10.959-2.673.769-5.201 1.175-7.512 1.205-5.266.07-10.436.078-14.353.078-2.225 0-11.122-.013-13.345-.013h-.639a7.86 7.86 0 0 1-.834-.054l-.251-.025-2.632-.226V406.29l2.72-.149.423-.027c.377-.026.731-.048 1.082-.048 2.33-.001 4.659-.004 6.988-.008 2.727-.004 5.455-.008 8.183-.008 3.722 0 7.444.007 11.166.033 5.059.035 9.089.922 12.685 2.793 4.995 2.598 8.018 7.017 8.987 13.133.627 3.972.339 7.848-.856 11.52zm227.252-107.906c-21.852-21.961-50.786-34.056-81.472-34.056-30.439 0-58.917 11.716-80.192 32.99l-1.995 1.995-2.034-1.956c-21.864-21.023-50.357-32.601-80.231-32.601-30.569 0-59.511 11.875-81.477 33.419-21.826 21.826-33.847 50.762-33.847 81.477 0 30.715 12.021 59.65 33.847 81.477 21.551 21.55 50.487 33.418 81.477 33.418 30.294 0 58.781-11.571 80.211-32.582l2.016-1.976 2.014 1.976c21.705 21.287 50.191 33.01 80.212 33.01 30.991 0 60.078-12.02 81.905-33.846 21.55-21.55 33.418-50.334 33.418-81.049 0-30.743-12.022-59.757-33.852-81.696zm-170.25 158.699c-20.25 19.828-47.108 30.748-75.625 30.748-29.003 0-56.208-11.231-76.602-31.626-42.211-42.211-42.211-110.894 0-153.105 20.427-20.428 47.615-31.678 76.553-31.678 28.515 0 55.39 10.938 75.675 30.8l1.901 1.862-1.708 2.041c-16.815 20.097-26.312 46.226-26.738 73.528 0 26.808 9.496 52.921 26.738 73.528l1.708 2.041-1.902 1.861zm89.207 30.8c-59.679 0-108.231-48.552-108.231-108.231 0-28.938 11.25-56.125 31.678-76.553 20.704-20.704 47.891-32.106 76.553-32.106s55.849 11.402 76.574 32.128c20.414 20.858 31.657 48.037 31.657 76.531 0 59.679-48.553 108.231-108.231 108.231z"/></symbol><symbol viewBox="-4101.2 206.582 400 400" id="icon_1-06" xmlns="http://www.w3.org/2000/svg"><path d="M-4062.959 292.051c-3.374 0-6.119 2.745-6.119 6.119s2.745 6.119 6.119 6.119c3.374 0 6.118-2.745 6.118-6.119s-2.745-6.119-6.118-6.119zm32.313 0c-3.374 0-6.119 2.745-6.119 6.119s2.745 6.119 6.119 6.119 6.119-2.745 6.119-6.119-2.745-6.119-6.119-6.119zm32.314 12.237c3.374 0 6.119-2.745 6.119-6.119s-2.745-6.119-6.119-6.119c-3.374 0-6.118 2.745-6.118 6.119s2.744 6.119 6.118 6.119zm262.715-39.388h-331.167c-18.977 0-34.417 15.439-34.417 34.417v214.532c0 18.978 15.439 34.417 34.417 34.417h331.167c18.978 0 34.417-15.439 34.417-34.417V299.317c0-18.978-15.439-34.417-34.417-34.417zm28.298 248.948c0 15.603-12.695 28.298-28.298 28.298h-331.167c-15.604 0-28.298-12.695-28.298-28.298V299.317c0-15.604 12.695-28.298 28.298-28.298h331.167c15.603 0 28.298 12.695 28.298 28.298v214.531zm-194.503-152.581c-25.146 0-45.602 20.457-45.602 45.602 0 25.145 20.457 45.602 45.602 45.602 25.145 0 45.602-20.457 45.602-45.602.001-25.145-20.457-45.602-45.602-45.602zm0 85.086c-21.772 0-39.484-17.712-39.484-39.484 0-21.772 17.712-39.484 39.484-39.484 21.771 0 39.484 17.712 39.484 39.484 0 21.772-17.713 39.484-39.484 39.484zm68.292-75.809l15.269-23.157-24.079-24.079-23.156 15.269a77.067 77.067 0 0 0-13.723-5.69l-5.575-27.165h-34.053l-5.576 27.165a77.1 77.1 0 0 0-13.722 5.69l-23.157-15.269-24.08 24.079 15.27 23.157a77.014 77.014 0 0 0-5.69 13.722l-27.165 5.576v34.053l27.165 5.576a77.07 77.07 0 0 0 5.69 13.722l-15.27 23.157 24.08 24.079 23.157-15.269a76.993 76.993 0 0 0 13.723 5.69l5.576 27.165h34.053l5.575-27.165a76.993 76.993 0 0 0 13.723-5.69l23.156 15.269 24.079-24.079-15.269-23.156a77.024 77.024 0 0 0 5.69-13.723l27.165-5.576v-34.053l-27.165-5.576a77.049 77.049 0 0 0-5.691-13.722zm26.737 48.362l-25.913 5.319-.501 1.8a70.94 70.94 0 0 1-6.555 15.811l-.919 1.628 14.566 22.09-17.022 17.022-22.09-14.565-1.628.919a70.78 70.78 0 0 1-15.811 6.555l-1.8.501-5.319 25.913h-24.073l-5.319-25.913-1.801-.501a70.893 70.893 0 0 1-15.811-6.555l-1.628-.919-22.09 14.566-17.022-17.022 14.566-22.09-.919-1.628a70.912 70.912 0 0 1-6.556-15.811l-.501-1.8-25.912-5.319v-24.073l25.912-5.319.502-1.8a70.92 70.92 0 0 1 6.555-15.811l.919-1.628-14.566-22.09 17.022-17.022 22.09 14.566 1.628-.919a70.912 70.912 0 0 1 15.811-6.556l1.8-.501 5.319-25.912h24.073l5.319 25.912 1.8.501a70.932 70.932 0 0 1 15.811 6.556l1.628.919 22.09-14.566 17.022 17.022-14.566 22.09.919 1.628a70.854 70.854 0 0 1 6.555 15.811l.501 1.8 25.913 5.319v24.072z"/></symbol><symbol viewBox="-3681.2 206.582 400 400" id="icon_1-07" xmlns="http://www.w3.org/2000/svg"><path d="M-3618.861 288.616l2.478-2.267 8.718-6.516 2.713-2.039-4.025-5.393-2.701 2.03-8.797 6.576-.197.14-2.729 2.466-2.487 2.263 4.535 4.996 2.492-2.256zm35.704-23.215l7.298-3.521h.349l5.46-1.981 3.155-1.157-2.328-6.349-3.143 1.113-6.694 2.447-.204.085-.212.096-6.602 3.202-3.042 1.462 2.92 6.065 3.043-1.462zm-83.117 93.517l4.115-11.273.988-2.006 1.465-3.048-6.052-2.915-1.455 3.056-1.099 2.255-.139.279-.052.114-5.26 14.372 6.335 2.318 1.154-3.152zm123.623-106.643l11.94-1.846 2.062-.154 3.468-.177-.34-6.677-3.323.208-2.319.151h-.568l-11.931 1.835-3.321.499 1.013 6.659 3.319-.498zm-131.657 148.426l.323-6.754 1.14-7.392.502-3.344-6.659-1.027-1.612 10.786-.084.535-.331 6.841-.171 3.347 6.722.342.17-3.334zm176.715-150.215l11.896 1.843 3.343.502 1.026-6.661-3.327-.5-11.917-1.833h-.566l-2.279-.147-3.384-.159-.326 6.637 3.338.157 2.196.161zm34.6 283.551h7.836v-79.925h-7.836v79.925zm181.793-236.779c0-7.234-2.818-14.192-7.731-19.09l-2.785-2.777 2.788-2.775c4.912-4.89 7.729-11.847 7.729-19.088 0-13.915-9.813-25.235-21.875-25.235h-123.361c-11.167 0-20.455 9.762-21.606 22.707l-.452 5.086-10.616-3.88-2.338 6.442 3.181 1.162 5.474 1.986h.348l6.671 3.214.599 1.185c1.23 2.432 2.785 4.593 4.621 6.422l2.784 2.773-2.781 2.776c-4.914 4.903-7.732 11.862-7.732 19.091 0 7.237 2.817 14.195 7.73 19.089l2.783 2.773-2.781 2.776c-4.914 4.903-7.732 11.862-7.732 19.091 0 7.237 2.817 14.195 7.73 19.089l2.783 2.773-2.781 2.776c-4.914 4.903-7.732 11.862-7.732 19.091 0 4.677 1.201 9.343 3.475 13.491l3.67 6.698-7.581-.926c-4.075-.498-7.683-.74-11.026-.74-8.426 0-16.909 1.222-25.215 3.632l-3.032.88-1.504-2.776a3.368 3.368 0 0 0-2.963-1.765l-123.472.001c-12.047 0-21.847 11.321-21.847 25.235 0 7.237 2.818 14.195 7.73 19.089l2.783 2.774-2.781 2.775c-4.914 4.903-7.732 11.861-7.732 19.091 0 7.237 2.818 14.195 7.73 19.089l2.783 2.774-2.782 2.775a25.29 25.29 0 0 0-5.725 8.707l-2.569 6.547-5.344-7.139-5.398 4.028 5.518 7.397.243.244.28.383 5.548 6.075.973 1.11.249.747a25.846 25.846 0 0 0 6.224 10.081l2.783 2.774-2.782 2.775c-4.914 4.903-7.732 11.861-7.732 19.091 0 13.915 9.801 25.235 21.847 25.235l123.443.001a3.368 3.368 0 0 0 2.964-1.765l1.505-2.776 3.032.881c8.358 2.428 16.85 3.659 25.242 3.659 8.583 0 17.216-1.259 25.655-3.741l3.082-.906 1.493 2.844a3.363 3.363 0 0 0 2.985 1.804l123.455-.001c12.062 0 21.875-11.321 21.875-25.235 0-7.234-2.818-14.192-7.731-19.09l-2.785-2.777 2.787-2.775c4.912-4.89 7.729-11.847 7.729-19.088 0-7.234-2.818-14.192-7.731-19.09l-2.785-2.776 2.787-2.775c4.912-4.891 7.729-11.848 7.729-19.089 0-7.234-2.818-14.192-7.731-19.09l-2.785-2.777 2.787-2.775c4.912-4.89 7.729-11.847 7.729-19.088 0-7.234-2.818-14.192-7.731-19.09l-2.785-2.777 2.787-2.775c4.912-4.89 7.729-11.847 7.729-19.088 0-7.234-2.818-14.192-7.731-19.09l-2.785-2.777 2.787-2.774c4.912-4.89 7.729-11.847 7.729-19.088 0-7.234-2.818-14.192-7.731-19.09l-2.785-2.777 2.788-2.775c4.911-4.885 7.728-11.842 7.728-19.083zm-160.342-43.73c0-11.577 7.68-18.495 15.106-18.495h123.361c7.439 0 15.135 6.918 15.135 18.495s-7.695 18.495-15.135 18.495h-123.361c-7.426-.001-15.106-6.918-15.106-18.495zm-189.496 174.919c0-11.577 7.681-18.495 15.106-18.495h119.547l-11.464 7.232c-11.227 7.082-20.948 16.747-28.113 27.95l-1.156 1.807h-78.814c-7.425.001-15.106-6.917-15.106-18.494zm0 43.73c0-11.577 7.681-18.495 15.106-18.495h74.829l-2.258 5.424c-3.632 8.723-5.852 18.125-6.6 27.945l-.276 3.62h-65.695c-7.425 0-15.106-6.918-15.106-18.494zm0 43.729c0-11.577 7.681-18.495 15.106-18.495h65.695l.276 3.619c.75 9.822 2.97 19.225 6.6 27.946l2.257 5.423h-74.828c-7.425.002-15.106-6.916-15.106-18.493zm15.107 62.225c-7.426 0-15.106-6.918-15.106-18.495s7.681-18.495 15.106-18.495h78.815l1.156 1.807c7.16 11.198 16.881 20.863 28.114 27.95l11.461 7.231h-119.546zm156.186 0c-29.895 0-57.717-16.102-72.608-42.023a84.568 84.568 0 0 1-11.225-42.065c0-46.352 37.607-84.061 83.833-84.061 46.508 0 84.345 37.71 84.345 84.061 0 46.366-37.837 84.088-84.345 84.088zm171.804-18.495c0 11.424-7.856 18.495-15.135 18.495h-119.992l11.548-7.237c11.384-7.136 21.204-16.803 28.396-27.957l1.157-1.794h78.891c7.44-.001 15.135 6.916 15.135 18.493zm0-43.73c0 11.424-7.856 18.495-15.135 18.495h-74.906l2.282-5.435c3.678-8.755 5.926-18.155 6.681-27.937l.279-3.616h65.663c7.28-.001 15.136 7.069 15.136 18.493zm0-43.729c0 11.424-7.856 18.494-15.135 18.494h-66.2l-.282-3.613c-.76-9.708-3.019-19.111-6.712-27.947l-2.27-5.429h75.465c7.439 0 15.134 6.918 15.134 18.495zm0-43.73c0 11.424-7.856 18.495-15.135 18.495h-79.354l-1.156-1.805c-7.178-11.208-16.9-20.874-28.116-27.953l-11.456-7.231h120.082c7.44-.001 15.135 6.917 15.135 18.494zm0-43.73c0 11.577-7.695 18.495-15.135 18.495h-123.361c-7.426 0-15.106-6.918-15.106-18.495s7.68-18.495 15.106-18.495h123.361c7.44.001 15.135 6.919 15.135 18.495zm0-43.73c0 11.577-7.695 18.495-15.135 18.495h-123.361c-7.426 0-15.106-6.918-15.106-18.495 0-11.577 7.68-18.495 15.106-18.495h123.361c7.44.001 15.135 6.919 15.135 18.495zm-15.134-25.235h-123.361c-7.426 0-15.106-6.918-15.106-18.494 0-11.577 7.68-18.495 15.106-18.495h123.361c7.439 0 15.135 6.918 15.135 18.495-.001 11.576-7.696 18.494-15.135 18.494zm-368.427 126.795l-2.053-13.417-.514-3.338-6.659 1.014.513 3.331 2.1 13.809.244.904.825 3.249 6.534-1.686-.82-3.232-.17-.634zm24.111-121.937l.189-.315 8.438-11.269 2.028-2.699-5.415-4.055-2.011 2.65-8.716 11.696-.019.048-1.917 3.157 5.773 3.493 1.65-2.706zm-14.781 152.11l-.714-2.018-1.16-3.179-6.335 2.318 1.93 5.295.21.504 5.251 10.897 1.463 3.046 6.091-2.927-1.458-3.035-5.278-10.901z"/></symbol><symbol viewBox="-3261.2 206.582 400 400" id="icon_1-08" xmlns="http://www.w3.org/2000/svg"><path d="M-3174.949 287.091c-2.121 0-3.338 1.217-3.338 3.338s1.217 3.337 3.338 3.337h122.914c2.121 0 3.337-1.217 3.337-3.337 0-2.121-1.216-3.338-3.337-3.338h-122.914zm-12.947-75.536l30.107 57.143c.806 1.153 1.829 1.714 3.121 1.714h82.967c1.292 0 2.314-.561 3.121-1.714l30.108-57.143.08-.12a2.762 2.762 0 0 0 0-3.031c-.695-1.043-2.26-1.822-3.195-1.822h-143.195c-1.225 0-2.207.504-2.992 1.538-.282.895-.718 2.541-.202 3.314l.08.121zm140.489 1.702l-26.278 50.48h-78.979l-26.969-50.48h132.226zm-81.705 260.153c3.608.005 7.215.012 10.823.012 7.329 0 13.243-.027 18.611-.084a39.45 39.45 0 0 0 9.304-1.249c7.393-1.909 12.188-6.603 14.25-13.951 1.331-4.743 1.533-9.773.6-14.951-1.662-9.22-6.702-14.718-15.407-16.81-2.832-.681-5.981-1.054-9.362-1.111-3.491-.058-7.31-.085-12.019-.085-2.514 0-5.028.007-7.541.014-2.518.007-5.036.014-7.554.014h-.518c-.375 0-.749-.02-1.124-.041l-.449-.024-2.013-.089v-10.917h40.576V408.5h-40.589v-13.707h48.587v-5.51h-56.137v19.309h-9.361v5.616h9.392v59.189c3.31.001 6.62.007 9.931.013zm-2.437-42.414l1.992-.108.423-.027c.345-.023.667-.044.99-.044 2.236-.001 4.47-.004 6.706-.008 2.626-.004 5.253-.008 7.879-.008 3.596 0 7.193.008 10.789.032 4.765.033 8.553.864 11.921 2.616 4.615 2.401 7.411 6.495 8.309 12.169.589 3.722.321 7.353-.799 10.791-1.665 5.111-5.343 8.517-10.933 10.126-2.519.725-4.895 1.107-7.063 1.136-5.059.066-10.023.075-13.783.075-2.15 0-4.3-.003-6.45-.007a4613.91 4613.91 0 0 0-6.444-.006h-.621c-.232 0-.464-.02-.726-.048l-.258-.025-1.931-.161v-36.503zm71.689 110.532c-4.417.61-8.719.61-13.685.61h-79.894c-48.527 0-81.299-16.958-94.774-49.042-18.08-43.016 3.275-102.192 34.389-134.576l39.543-40.171h120.965l39.573 40.202c13.087 13.711 24.427 31.936 31.918 51.29.527 1.316 1.97 2.307 3.358 2.307.345 0 .676-.062.982-.184.833-.334 1.548-1.025 1.961-1.898.23-.486.557-1.45.161-2.441l-.041-.108c-6.869-19.462-18.653-38.529-33.154-53.661l-40.547-41.161c-.783-.783-1.324-1.022-2.317-1.022h-124.143c-.992 0-1.534.239-2.302 1.006l-40.541 41.155c-32.532 33.737-54.776 96.08-35.687 142.013 10.018 24.163 35.613 52.965 100.654 52.965h79.894c4.927 0 9.583 0 14.288-.579 1.492-.33 3.05-1.464 3.177-3.693-.453-1.556-2.158-2.925-3.778-3.012zm195.269-37.494h-12.714c-1.741-43.599-37.42-78.747-81.665-80.438v-12.097c0-2.152-1.185-3.338-3.337-3.338-2.121 0-3.337 1.217-3.337 3.338v12.097c-44.245 1.691-79.923 36.839-81.664 80.438h-12.1c-2.121 0-3.338 1.217-3.338 3.338s1.217 3.337 3.338 3.337h12.1c1.741 43.6 37.419 78.747 81.664 80.438v12.097c0 2.121 1.216 3.338 3.337 3.338 2.152 0 3.337-1.185 3.337-3.338v-12.095c22.074-.822 42.578-9.778 58.042-25.443 14.767-14.957 23.093-34.366 23.666-54.997h12.672c1.605 0 3.338-1.276 3.338-3.337-.001-2.121-1.218-3.338-3.339-3.338zm-43.635 6.675h24.24c-1.735 39.92-34.422 72.078-74.985 73.759v-24.244c0-2.152-1.185-3.337-3.337-3.337-2.121 0-3.337 1.216-3.337 3.337v24.244c-40.563-1.681-73.25-33.839-74.985-73.759h24.855c1.605 0 3.337-1.276 3.337-3.337 0-2.121-1.216-3.338-3.337-3.338h-24.855c1.735-39.92 34.423-72.078 74.985-73.759v24.244c0 2.121 1.216 3.338 3.337 3.338 2.152 0 3.337-1.185 3.337-3.338v-24.244c40.563 1.681 73.25 33.839 74.985 73.759h-24.24c-2.121 0-3.337 1.217-3.337 3.338s1.216 3.337 3.337 3.337zm-54.082-38.018c-19.446 0-34.68 15.234-34.68 34.681 0 19.447 15.234 34.68 34.68 34.68 19.447 0 34.681-15.234 34.681-34.68 0-19.447-15.234-34.681-34.681-34.681zm0 62.686c-15.704 0-28.005-12.301-28.005-28.005 0-15.705 12.301-28.006 28.005-28.006 15.443 0 28.006 12.563 28.006 28.006 0 15.704-12.301 28.005-28.006 28.005z"/></symbol><symbol viewBox="-2841.2 206.582 400 400" id="icon_1-09" xmlns="http://www.w3.org/2000/svg"><path d="M-2505.434 206.582c-35.419 0-64.234 28.815-64.234 64.234 0 16.008 5.949 31.353 16.75 43.209 10.73 11.777 25.312 19.127 41.058 20.697l3.287.327v81.97h-129.488v-27.664l3.287-.327c15.745-1.57 30.326-8.921 41.057-20.7 10.801-11.856 16.75-27.201 16.75-43.207 0-35.419-28.815-64.234-64.234-64.234s-64.234 28.815-64.234 64.234c0 16.008 5.949 31.353 16.75 43.209 10.73 11.777 25.311 19.127 41.057 20.697l3.287.327v27.664h-129.488v-81.97l3.287-.327c15.745-1.57 30.327-8.921 41.057-20.699 10.802-11.857 16.75-27.201 16.75-43.207 0-35.419-28.815-64.234-64.234-64.234s-64.234 28.815-64.234 64.234c0 16.008 5.949 31.353 16.751 43.209 10.729 11.777 25.311 19.127 41.057 20.697l3.287.327v85.109a3.142 3.142 0 0 0 3.139 3.139h132.627v43.59l-19.215-19.215-4.438 4.438 24.573 24.573a3.118 3.118 0 0 0 2.219.921c.837 0 1.625-.327 2.219-.92l24.573-24.573-4.438-4.438-19.214 19.215v-43.59h132.627a3.143 3.143 0 0 0 3.139-3.139V335.05l3.287-.327c15.746-1.57 30.327-8.921 41.058-20.7 10.801-11.857 16.75-27.201 16.75-43.206.002-35.419-28.814-64.235-64.232-64.235zm-329.488 64.234c0-31.957 25.999-57.956 57.956-57.956 31.957 0 57.955 25.999 57.955 57.956 0 31.957-25.999 57.955-57.955 57.955-31.957.001-57.956-25.998-57.956-57.955zm193.722 112.262c-31.957 0-57.956-25.999-57.956-57.956 0-31.957 25.999-57.955 57.956-57.955 31.957 0 57.955 25.999 57.955 57.955 0 31.958-25.999 57.956-57.955 57.956zm135.766-54.306c-31.957 0-57.956-25.999-57.956-57.955 0-31.957 25.999-57.956 57.956-57.956s57.956 25.999 57.956 57.956c-.001 31.956-25.999 57.955-57.956 57.955zm-1.014 140.986c-4.187 0-8.295 1.475-11.569 4.152l-52.441 42.907-2.188-3.559c-3.074-5.003-8.401-7.99-14.249-7.99h-39.99l-12.913-6.46a3.152 3.152 0 0 0-1.404-.328h-67.883a3.15 3.15 0 0 0-1.884.628l-22.609 16.953-6.908-9.506a3.125 3.125 0 0 0-2.532-1.286c-.69 0-1.345.217-1.892.626l-27.152 20.365a3.15 3.15 0 0 0-.652 4.358l54.307 74.672a3.162 3.162 0 0 0 2.115 1.259c.136.022.28.034.418.034.677 0 1.344-.222 1.884-.628l27.149-20.362c.339-.255.616-.564.823-.917a3.22 3.22 0 0 0 .403-1.133 3.104 3.104 0 0 0-.569-2.316l-3.229-4.46 8.219-4.127h107.875c.787 0 1.538-.29 2.116-.818l77.716-70.927a18.133 18.133 0 0 0 5.29-12.854c0-4.873-1.899-9.459-5.346-12.911-3.464-3.464-8.048-5.372-12.905-5.372zm-208.758 129.26l-50.616-69.589 22.133-16.599 50.616 69.599-22.133 16.589zm217.449-102.713l-.065.066-76.714 69.992h-107.394c-.49 0-.974.113-1.403.327l-9.838 4.919-36.707-50.476 21.839-16.375h66.098l12.915 6.461a3.15 3.15 0 0 0 1.402.327h40.73c5.749 0 10.434 4.579 10.444 10.213 0 6.278-4.295 10.662-10.444 10.662h-43.869v6.278h43.869c6.005 0 13.163-3.107 15.247-11.828l.287-1.197 57.311-46.887a12.032 12.032 0 0 1 7.587-2.714c3.194 0 6.201 1.249 8.474 3.522a11.923 11.923 0 0 1 3.5 8.467c0 3.14-1.191 6.144-3.269 8.243zm-264.582-229.16c-1.903-.458-4.016-.708-6.28-.746a473.58 473.58 0 0 0-7.9-.056c-1.647 0-3.294.005-4.942.01-1.649.005-3.298.009-4.946.009h-.342c-.232 0-.465-.013-.698-.026l-1.002-.047v-5.885h26.608v-5h-26.616v-7.686h31.861v-4.916h-38.114v12.662h-6.139v4.985h6.159v38.813h.061c2.367 0 4.735.004 7.102.008 2.366.004 4.733.008 7.099.008 4.808 0 8.688-.018 12.21-.056a26.6 26.6 0 0 0 6.257-.84c5.089-1.314 8.389-4.545 9.809-9.602.9-3.206 1.037-6.603.407-10.096-1.127-6.237-4.691-10.12-10.594-11.539zm4.206 19.576c-1.02 3.133-3.284 5.225-6.73 6.216-1.596.459-3.096.701-4.46.719-3.324.044-6.585.05-9.055.05l-8.511-.009h-.326c-.131 0-.262-.012-.41-.028l-.85-.075v-22.719l.972-.056c.212-.014.411-.027.609-.027 0 0 7.872-.01 9.59-.01 2.348 0 4.697.005 7.044.021 3.017.021 5.407.542 7.521 1.642 2.833 1.474 4.551 3.999 5.106 7.504.371 2.338.202 4.617-.5 6.772zm269.48-19.576c-1.903-.458-4.016-.708-6.281-.746a473.452 473.452 0 0 0-7.899-.056c-1.647 0-3.294.005-4.942.01-1.648.005-3.298.009-4.946.009h-.342c-.232 0-.465-.013-.697-.026l-1.004-.047v-5.885h26.607v-5h-26.616v-7.686h31.861v-4.916h-38.115v12.662h-6.139v4.985h6.159v38.813h.061c2.367 0 4.735.004 7.102.008s4.733.008 7.099.008c4.808 0 8.688-.018 12.21-.056a26.587 26.587 0 0 0 6.257-.84c5.089-1.314 8.389-4.545 9.808-9.602.9-3.207 1.038-6.604.408-10.096-1.125-6.237-4.688-10.12-10.591-11.539zm4.206 19.576c-1.021 3.133-3.285 5.225-6.731 6.216-1.596.459-3.096.701-4.459.719-3.324.044-6.586.05-9.055.05l-8.511-.009h-.326c-.131 0-.262-.012-.411-.028l-.85-.075v-22.719l.973-.056c.212-.014.411-.027.609-.027 0 0 7.871-.01 9.59-.01 2.348 0 4.697.005 7.045.021 3.017.021 5.407.542 7.521 1.642 2.833 1.474 4.552 3.999 5.106 7.504.369 2.337.201 4.616-.501 6.772zm-142.144 35.891c-1.903-.458-4.016-.708-6.281-.746a473.452 473.452 0 0 0-7.899-.056c-1.647 0-3.294.005-4.942.01-1.649.005-3.298.009-4.946.009h-.342c-.232 0-.465-.013-.698-.026l-1.002-.047v-5.885h26.607v-5h-26.616v-7.686h31.861v-4.916h-38.115v12.662h-6.139v4.985h6.158v38.813h.062c2.367 0 4.735.004 7.102.008 2.366.004 4.733.008 7.099.008 4.808 0 8.688-.018 12.21-.056a26.587 26.587 0 0 0 6.257-.84c5.089-1.314 8.389-4.545 9.808-9.602.9-3.207 1.038-6.604.408-10.096-1.125-6.237-4.689-10.121-10.592-11.539zm4.207 19.576c-1.021 3.133-3.285 5.225-6.731 6.216-1.596.459-3.096.701-4.459.719-3.324.044-6.586.05-9.055.05l-8.511-.009h-.326c-.131 0-.262-.012-.41-.028l-.85-.075v-22.719l.972-.056c.212-.014.411-.027.609-.027 0 0 7.872-.01 9.591-.01 2.348 0 4.697.005 7.044.021 3.017.021 5.407.542 7.521 1.642 2.833 1.474 4.552 3.999 5.106 7.504.369 2.337.201 4.616-.501 6.772z"/></symbol><symbol viewBox="-2421.2 206.582 400 400" id="icon_1-10" xmlns="http://www.w3.org/2000/svg"><path d="M-2206.318 511.891c-2.051-.493-4.331-.763-6.776-.803a514.831 514.831 0 0 0-8.65-.061c-1.814 0-3.628.005-5.443.01-1.817.005-3.634.011-5.451.011h-.368c-.27 0-.539-.015-.81-.03l-1.635-.077v-7.591h29.237v-4.342h-29.246v-9.597h35.009v-4.249h-40.728v13.913h-6.745v4.326h6.767v42.648c2.439.001 4.877.005 7.316.009 2.607.005 5.213.009 7.82.009 5.262 0 9.511-.019 13.369-.061a28.624 28.624 0 0 0 6.737-.905c5.379-1.389 8.866-4.803 10.366-10.149.965-3.439 1.112-7.085.436-10.836-1.191-6.612-4.961-10.724-11.205-12.225zm5.304 21.129c-1.184 3.636-3.803 6.06-7.783 7.205-1.8.519-3.5.792-5.053.813a768.73 768.73 0 0 1-9.959.055c-1.567 0-7.835-.009-9.401-.009h-.306c-.163 0-.326-.015-.511-.034l-1.45-.125v-26.039l1.302-.071.303-.019c.247-.017.478-.032.708-.032 0 0 8.56-.011 10.458-.011 2.608 0 5.216.005 7.824.023 3.408.023 6.118.616 8.526 1.869 3.284 1.709 5.274 4.624 5.914 8.667.421 2.657.229 5.252-.572 7.708zm176.368-51.735h-58.573a3.445 3.445 0 0 0-3.446 3.445v25.832h-63.34c-.577 0-1.112.155-1.59.406a69.2 69.2 0 0 0-8.915-31.151l65.305-110.947c.116-.197.208-.402.281-.61h25.122a3.446 3.446 0 0 0 3.446-3.445v-58.556a3.445 3.445 0 0 0-3.446-3.445h-58.573a3.445 3.445 0 0 0-3.445 3.445v58.556a3.445 3.445 0 0 0 3.445 3.445h25.534l-61.836 105.055c-12.116-16.781-31.509-27.974-53.514-28.913.27-.492.438-1.048.438-1.649V294.945h25.85a3.446 3.446 0 0 0 3.446-3.445v-58.573a3.445 3.445 0 0 0-3.446-3.445h-58.573a3.446 3.446 0 0 0-3.446 3.445V291.5a3.445 3.445 0 0 0 3.446 3.445h25.833v147.808a3.4 3.4 0 0 0 .438 1.649c-21.249.907-40.061 11.375-52.238 27.202l-63.05-103.343h25.479a3.445 3.445 0 0 0 3.445-3.445V306.26a3.445 3.445 0 0 0-3.445-3.445h-58.573a3.446 3.446 0 0 0-3.446 3.445v58.556a3.445 3.445 0 0 0 3.446 3.445h25.114c.079.225.18.445.309.656l66.444 108.908a69.22 69.22 0 0 0-10.086 33.241l-64.927-.478V484.73a3.445 3.445 0 0 0-3.446-3.445h-58.573a3.445 3.445 0 0 0-3.445 3.445v58.573a3.445 3.445 0 0 0 3.445 3.445h58.573a3.445 3.445 0 0 0 3.446-3.445v-25.825l64.974.478c2.055 36.589 32.468 65.727 69.562 65.727 37.4 0 68.008-29.622 69.606-66.636.478.25 1.013.406 1.59.406h63.34v25.85a3.445 3.445 0 0 0 3.446 3.445h58.573a3.445 3.445 0 0 0 3.445-3.445V484.73a3.45 3.45 0 0 0-3.449-3.445zm-100.284-119.916v-51.665h51.682v51.665h-51.682zm-244.215 0v-51.665h51.682v51.665h-51.682zm6.518 178.489h-51.682v-51.682h51.682v51.682zm115.594-251.804v-51.682h51.683v51.682h-51.683zm25.833 288.739c-34.62 0-62.785-28.165-62.785-62.785a62.405 62.405 0 0 1 9.637-33.386c.52-.442.88-1.013 1.065-1.639 11.29-16.733 30.423-27.759 52.083-27.759 34.62 0 62.785 28.165 62.785 62.785 0 34.619-28.165 62.784-62.785 62.784zm193.109-36.935h-51.682v-51.682h51.682v51.682z"/></symbol><symbol viewBox="-2001.2 206.582 400 400" id="icon_1-11" xmlns="http://www.w3.org/2000/svg"><path d="M-1701.198 356.577v-49.992c0-55.153-44.85-100.002-100.002-100.002s-100.002 44.85-100.002 100.002v49.992h-75.002v250.006h350.008V356.577h-75.002zm-50.001 0h-100.002v-49.992c0-27.564 22.437-50.001 50.001-50.001s50.001 22.437 50.001 50.001v49.992z"/></symbol><symbol viewBox="-1581.2 206.582 400 400" id="icon_1-12" xmlns="http://www.w3.org/2000/svg"><path d="M-1193.811 606.505c-2.225 0-5.108-1.917-9.348-6.214-22.822-23.127-46.2-46.461-68.809-69.025-9.907-9.888-19.814-19.776-29.707-29.678-.609-.609-1.201-1.363-1.826-2.161a64.313 64.313 0 0 0-1.062-1.331l-1.928-2.335-2.39 1.86c-.867.675-1.679 1.312-2.457 1.921-1.545 1.211-2.95 2.313-4.374 3.389-29.876 22.579-63.6 34.028-100.232 34.03-2.622 0-5.299-.059-7.957-.175-36.328-1.586-71.694-15.635-99.585-39.557-27.877-23.911-47.201-56.751-54.411-92.469-1.008-4.997-1.691-10.202-2.35-15.235-.302-2.302-.613-4.679-.954-7.026v-21.223c.043-.173.089-.345.135-.517.204-.768.435-1.639.507-2.616 1.292-17.52 5.208-33.898 11.64-48.679 11.773-27.059 28.003-49.17 48.238-65.717 20.299-16.6 45.214-28.079 74.05-34.117 4.455-.933 9.121-1.538 13.632-2.123 2.055-.266 4.178-.541 6.275-.846h21.36c2.098.305 4.221.581 6.276.847 4.513.585 9.179 1.19 13.635 2.124 59.212 12.409 100.248 46.03 121.97 99.93 23.689 58.778 15.343 114.905-24.806 166.82-.317.41-.629.825-.997 1.315l-2.217 2.94 1.805 1.915c.321.341.639.685.957 1.027a81.5 81.5 0 0 0 2.194 2.306c26.825 26.836 53.656 53.668 80.487 80.501l20.855 20.856c5.311 5.312 5.328 7.534.104 13.209-3.853 4.187-6.54 6.054-8.71 6.054zm-222.259-378.029c-78.945 0-143.236 64.252-143.314 143.229-.078 79.015 64.173 143.369 143.228 143.455h.158c78.938.008 143.221-64.249 143.298-143.239.037-38.194-14.865-74.173-41.964-101.31-27.098-27.137-63.065-42.101-101.275-42.135h-.131z"/></symbol><symbol viewBox="-1161.2 206.582 400 400" id="icon_1-13" xmlns="http://www.w3.org/2000/svg"><path d="M-870.783 276.45h-69.245v69.245h69.245V276.45zm-16.877 52.368h-35.49v-35.49h35.49v35.49zm-87.105 46.746h-69.245v69.245h69.245v-69.245zm-16.878 52.367h-35.49v-35.49h35.49v35.49zm183.896 143.267V223.206h-302.473v347.992h-50.98v18.761h400v-18.761h-46.547zm-96.339 0h-109.796v-72.115h109.796v72.115zm77.578 0h-58.817V480.32h-147.318v90.878h-58.816V241.967h264.951v329.231zm-44.275-195.634h-69.245v69.245h69.245v-69.245zm-16.877 52.367h-35.49v-35.49h35.49v35.49zm-87.105-151.481h-69.245v69.245h69.245V276.45zm-16.878 52.368h-35.49v-35.49h35.49v35.49z"/></symbol><symbol viewBox="-741.2 206.582 400 400" id="icon_1-14" xmlns="http://www.w3.org/2000/svg"><path d="M-374.435 206.543h-333.414c-18.343 0-33.351 15.008-33.351 33.351v333.335c0 18.429 14.963 33.392 33.313 33.392h333.335c18.343 0 33.351-15.008 33.351-33.351V239.857c.079-18.35-14.884-33.314-33.234-33.314zm0 377.87h-333.414c-6.154 0-11.142-4.988-11.142-11.142V239.894c0-6.154 4.988-11.142 11.142-11.142h333.297c6.154 0 11.142 4.988 11.142 11.142v333.414h.079a11.092 11.092 0 0 1-11.104 11.105zm-50.009-205.069h-234.215c-6.544 0-12.168 5.129-12.254 11.672a11.818 11.818 0 0 0 11.831 11.992h45.01a.04.04 0 0 1 .04.04v101.793c0 19.545 15.991 35.536 35.536 35.536h80.395c19.545 0 35.536-15.991 35.536-35.536V403.048a.04.04 0 0 1 .04-.04h38.081a11.819 11.819 0 0 0 11.832-11.832c.084-6.545-5.287-11.832-11.832-11.832zm-61.785 125.497c0 6.557-5.315 11.872-11.872 11.872h-80.395c-6.557 0-11.872-5.315-11.872-11.872V403.048a.04.04 0 0 1 .04-.04h104.058a.04.04 0 0 1 .04.04v101.793z"/></symbol><symbol viewBox="-321.2 206.582 400 400" id="icon_1-15" xmlns="http://www.w3.org/2000/svg"><path d="M9.433 206.582h-261.266c-36.626 0-66.424 29.798-66.424 66.424v321.488c0 6.665 5.423 12.088 12.088 12.088h.004a12.034 12.034 0 0 0 9.368-4.472l54.784-67.522H9.433c36.627 0 66.424-29.798 66.424-66.425V273.006c0-36.626-29.798-66.424-66.424-66.424zm42.248 261.581c0 23.296-18.952 42.248-42.248 42.248h-252.905a21.056 21.056 0 0 0-16.421 7.824l-34.188 42.167V273.006c0-23.295 18.952-42.248 42.248-42.248H9.433c23.296 0 42.248 18.952 42.248 42.248v195.157zM-121.2 336.4c-6.665 0-12.088 5.423-12.088 12.088v96.447c0 6.665 5.423 12.088 12.088 12.088 6.666 0 12.088-5.423 12.088-12.088v-96.447c0-6.665-5.423-12.088-12.088-12.088zm0-49.808c-6.665 0-12.088 5.423-12.088 12.088v14.942c0 6.666 5.423 12.089 12.088 12.089 6.666 0 12.088-5.423 12.088-12.089V298.68c0-6.665-5.423-12.088-12.088-12.088z"/></symbol><symbol viewBox="98.8 206.582 400 400" id="icon_1-16" xmlns="http://www.w3.org/2000/svg"><path d="M369.057 344.277V206.582H104.651v350.332h164.493v49.668h223.805V344.277H369.057zm-99.913 190.677h-69.582v-52.612h69.582v52.612zm0-72.595H179.58v74.573h-54.946V226.565h224.44v117.712h-79.93v118.082zM472.966 586.6H289.127V364.259h183.839V586.6zM164.827 326.434h61.635v-62.563h-61.635v62.563zm19.982-42.58h21.67v22.597h-21.67v-22.597zm-19.982 132.545h61.635v-62.563h-61.635v62.563zm19.982-42.58h21.67v22.597h-21.67v-22.597zm146.655 165.65h100.081v-79.907h23.091V439.58H309.125v19.983h22.34v79.906zm19.983-79.906h60.115v59.924h-60.115v-59.924z"/></symbol><symbol viewBox="518.8 206.582 400 400" id="icon_1-17" xmlns="http://www.w3.org/2000/svg"><path d="M908.763 378.146c5.534 0 10.037-4.503 10.037-10.037v-79.352c0-5.534-4.503-10.037-10.037-10.037h-20.02v-35.049c0-12.164-9.896-22.06-22.061-22.06H540.859c-12.164 0-22.06 9.896-22.06 22.06v325.823c0 12.163 9.896 22.059 22.06 22.059h325.823c12.165 0 22.061-9.896 22.061-22.059v-35.049h20.02c5.534 0 10.037-4.503 10.037-10.038v-79.351c0-5.534-4.503-10.037-10.037-10.037h-20.02v-56.873h20.02zm-40.094 191.349a1.988 1.988 0 0 1-1.987 1.985H540.859a1.988 1.988 0 0 1-1.986-1.985V243.671c0-1.095.891-1.986 1.986-1.986h325.823c1.096 0 1.987.891 1.987 1.986v35.049h-18.217c-5.535 0-10.038 4.503-10.038 10.037v79.352c0 5.534 4.502 10.037 10.038 10.037h18.217v56.873h-18.217c-5.535 0-10.038 4.503-10.038 10.037v79.351c0 5.535 4.502 10.038 10.038 10.038h18.217v35.05zm30.057-114.401v59.277h-38.237v-59.277h38.237zm-38.238-97.022v-59.278h38.237v59.278h-38.237zm-174.751-42.081c-49.953 0-90.591 40.639-90.591 90.591 0 49.952 40.639 90.591 90.591 90.591s90.591-40.638 90.591-90.591c0-49.952-40.639-90.591-90.591-90.591zM755 419.626c-5.467 29.59-29.437 52.667-59.226 56.993v-39.796H675.7v39.198c-29.551-4.271-53.495-27.098-59.185-56.395h41.387v-20.075h-42.407c3.11-32.346 28.05-58.435 60.205-63.015v44.616h20.074v-44.616c32.154 4.581 57.095 30.669 60.205 63.015h-42.407v20.075H755z"/></symbol><symbol viewBox="938.8 206.582 400 400" id="icon_1-18" xmlns="http://www.w3.org/2000/svg"><path d="M1311.532 372.978c-4.062-4.466-9.88-7.028-15.966-7.028h-22.399c-3.325 0-6.066-1.974-7.011-5.116-1.227-3.682-2.928-7.71-5.057-11.975-1.234-2.842-.605-6.312 1.476-8.095l.088-.075 15.761-15.762c8.313-8.313 8.313-22.361 0-30.674l-26.432-26.432c-4.033-4.034-9.48-6.255-15.337-6.255-5.857 0-11.305 2.221-15.338 6.255l-15.68 15.68c-1.467 1.467-3.346 2.274-5.291 2.274-1.024 0-2.04-.22-3.018-.655-.955-.424-1.884-.848-2.8-1.267-3.033-1.385-5.898-2.693-9.117-3.766-2.965-.988-5.117-3.937-5.117-7.01v-22.4c0-12.029-9.787-21.816-21.816-21.816h-37.632c-12.029 0-21.815 9.787-21.815 21.816v24.64c0 2.854-2.008 5.675-4.669 6.562l-.104.037c-3.705 1.389-7.396 3.231-10.976 5.021-1.145.5-2.337.764-3.453.764-1.212 0-2.923-.311-4.192-1.792l-.075-.087-18.002-18.001c-4.033-4.034-9.479-6.255-15.337-6.255-5.856 0-11.304 2.221-15.337 6.255l-26.432 26.432c-8.314 8.313-8.314 22.361 0 30.674l19.712 19.712c1.853 1.853 2.381 4.986 1.229 7.289l-.074.16a130.915 130.915 0 0 0-1.834 4.583c-.565 1.471-1.1 2.86-1.75 4.377l-.049.115-.04.118c-.96 2.88-3.475 4.669-6.562 4.669h-28.224c-12.03 0-21.816 9.787-21.816 21.816v37.632c0 12.029 9.786 21.816 21.816 21.816h30.464c3.41 0 5.267 2.194 6.23 4.075l3.124 7.584c1.27 2.855.648 6.039-1.62 8.308l-21.056 21.057c-4.034 4.033-6.255 9.479-6.255 15.337s2.221 11.304 6.255 15.337l26.432 26.432c4.033 4.033 9.48 6.255 15.338 6.255 5.856 0 11.304-2.222 15.337-6.255l21.056-21.056c1.467-1.467 3.346-2.274 5.291-2.274 1.025 0 2.04.22 3.033.661l7.152 3.13c2.938 1.306 4.49 3.766 4.49 7.114v29.568c0 12.029 9.787 21.815 21.816 21.815h37.632c12.029 0 21.815-9.786 21.815-21.815v-28.225c0-2.834 1.979-5.636 4.614-6.543 2.933-.844 6.098-2.11 9.408-3.765a6.029 6.029 0 0 1 2.686-.616c1.727 0 3.447.69 4.604 1.846l19.712 19.712c4.033 4.033 9.479 6.255 15.337 6.255s11.304-2.222 15.337-6.255l26.432-26.433c4.033-4.033 6.255-9.479 6.255-15.337s-2.222-11.304-6.255-15.337l-17.92-17.92c-2.064-2.065-2.548-5.103-1.229-7.737.93-1.861 1.743-3.719 2.529-5.516.791-1.807 1.537-3.513 2.399-5.236l.058-.124c1.354-3.046 3.908-4.938 6.666-4.938h24.641c12.029 0 21.815-9.787 21.815-21.816v-37.496c.44-5.052-1.316-10.028-4.953-14.028zm-9.109 52.42c0 3.716-3.14 6.856-6.856 6.856h-24.64c-9 0-16.919 5.324-20.668 13.894l-.061.149c-1.481 3.95-2.761 6.768-4.276 9.421l-.079.146c-4.249 8.498-2.526 18.771 4.187 25.007l17.88 17.88c2.44 2.441 2.403 6.872-.068 9.714l-26.363 26.364c-1.167 1.167-2.82 1.809-4.655 1.809a7.691 7.691 0 0 1-5.058-1.876l-19.645-19.645c-4.161-4.162-9.629-6.454-15.396-6.454-2.942 0-5.814.604-8.536 1.795l-.14.064c-2.67 1.335-5.42 2.199-7.994 2.935l-.175.056c-8.968 3.166-14.993 11.504-14.993 20.749v28.225c0 3.716-3.14 6.855-6.856 6.855h-37.632c-3.716 0-6.855-3.14-6.855-6.855v-29.568c0-8.982-5.278-17.096-13.446-20.668l-7.292-3.19-1.11-.375c-2.437-.83-4.738-1.614-7.583-1.614-6.089 0-11.625 2.317-16.01 6.703l-21.056 21.056c-1.167 1.167-2.82 1.809-4.655 1.809a7.691 7.691 0 0 1-5.058-1.876L1010.97 508.4c-2.441-2.441-2.404-6.872.067-9.714l20.988-20.988c6.56-6.56 8.388-16.305 4.685-24.767l-3.191-7.743c-3.666-7.856-11.416-12.932-19.743-12.932h-30.464c-3.716 0-6.855-3.14-6.855-6.856v-37.632c0-3.716 3.14-6.856 6.855-6.856h28.225c9.568 0 17.72-5.905 20.766-15.043.427-1.279.983-2.727 1.522-4.127.546-1.419 1.109-2.886 1.571-4.258 3.489-8.115 1.646-17.444-4.714-23.804l-19.713-19.712c-2.44-2.441-2.403-6.871.068-9.713l26.364-26.365c1.167-1.167 2.819-1.809 4.654-1.809 1.873 0 3.666.666 5.059 1.877l17.853 17.852c4.152 4.153 9.595 6.44 15.324 6.44 3.354 0 6.599-.771 9.643-2.294l.146-.079c2.261-1.292 4.834-2.36 7.323-3.393a229.12 229.12 0 0 0 2.187-.917c8.737-3.597 13.954-11.333 13.954-20.694v-24.64c0-3.716 3.14-6.856 6.855-6.856h37.632c3.717 0 6.856 3.14 6.856 6.856v22.4c0 9.365 6.166 18.082 14.938 21.177a286.7 286.7 0 0 0 2.352.866c2.895 1.058 5.888 2.151 8.625 3.519 3.004 1.414 6.172 2.131 9.415 2.131 5.92 0 11.579-2.399 15.935-6.755l15.681-15.681c1.167-1.167 2.82-1.809 4.654-1.809 1.873 0 3.667.666 5.059 1.877l26.364 26.364c2.44 2.441 2.403 6.871-.068 9.713l-15.611 15.612c-6.583 6.583-8.379 16.245-4.686 25.215l.042.102.049.098c1.505 3.01 2.797 6.242 4.335 10.856 3.165 8.969 11.684 14.994 21.197 14.994h22.399c3.717 0 6.856 3.14 6.856 6.856v37.63zm-162.76-92.151c-19.652 0-38.086 7.611-51.905 21.431-13.82 13.82-21.431 32.253-21.431 51.905s7.61 38.085 21.431 51.905c13.819 13.819 32.253 21.431 51.905 21.431 19.651 0 38.085-7.611 51.905-21.431 13.819-13.82 21.431-32.253 21.431-51.905s-7.611-38.085-21.431-51.905c-13.82-13.821-32.253-21.431-51.905-21.431zm0 131.711c-32.188 0-58.376-26.188-58.376-58.376s26.188-58.376 58.376-58.376 58.376 26.188 58.376 58.376-26.187 58.376-58.376 58.376z"/></symbol><symbol viewBox="1358.8 206.582 400 400" id="icon_1-19" xmlns="http://www.w3.org/2000/svg"><path d="M1640.319 606.582c-21.475-1.218-42.424-4.726-62.965-10.713-1.564-.456-2.896-1.744-4.306-2.689-37.766-25.338-67.835-58.255-93.859-95.184-16.515-23.434-33.427-46.588-47.067-71.917-15.901-29.529-28.769-60.217-35.563-93.16-1.025-4.969-.061-10.55.869-15.687 5.648-31.179 15.908-60.676 32.362-87.928 2.026-3.355 5.09-4.813 7.873-6.901 9.874-7.407 20.511-13.244 32.901-15.158 9.445-1.459 18.655-.676 27.154 4.053 1.613.897 2.696 2.784 3.951 4.275.663.788 1.155 1.717 1.749 2.566 14.925 21.323 29.857 42.641 44.78 63.966 10.257 14.658 7.009 31.232-7.97 40.915-10.443 6.751-20.854 13.554-31.287 20.32-1.792 1.162-3.896 1.996-5.343 3.481-.871.894-1.017 2.751-1.032 4.181-.094 8.564 2.336 16.624 5.523 24.424 9.916 24.268 23.798 46.201 39.876 66.801 9.721 12.455 19.686 24.72 32 34.766 3.269 2.666 6.968 4.898 10.716 6.858 4.128 2.16 8.075-.235 11.347-2.158 10.417-6.122 20.541-12.747 30.726-19.258 12.749-8.15 28.206-5.417 36.918 7.054 16.884 24.167 33.699 48.388 50.054 72.912 2.061 3.091 1.906 8.216 1.515 12.277-1.041 10.796-5.911 20.219-13.407 27.805-6.431 6.508-13.601 12.422-21.083 17.691-3.315 2.334-8.149 2.959-12.396 3.432-11.316 1.26-22.687 2.018-34.036 2.976zm2.448-19.181c8.588-.812 17.191-1.505 25.758-2.495 3.502-.405 7.541-.552 10.265-2.397 5.952-4.031 11.514-8.771 16.675-13.796 4.431-4.314 7.077-9.964 7.88-16.188.227-1.76-.093-4.031-1.069-5.439-15.604-22.531-31.328-44.979-47.089-67.401-4.177-5.943-8.769-6.725-14.786-2.734a6014.004 6014.004 0 0 0-28.154 18.795c-.936.628-1.847 1.389-2.537 2.271-2.647 3.379-6.181 5.082-10.326 5.632-6.541.868-12.863-.461-18.208-3.991-7.068-4.667-14.24-9.53-20.181-15.49-22.684-22.756-40.617-49.099-56.088-77.145-7.41-13.434-13.966-27.304-16.617-42.574-3.196-18.406-.015-28.295 16.323-38.286 9.035-5.525 17.948-11.25 26.878-16.945 7.086-4.519 8.026-9.201 3.335-16.156-14.101-20.905-28.417-41.671-42.192-62.789-3.991-6.119-9.139-7.564-15.541-7-10.224.901-18.818 5.857-26.934 11.621-2.629 1.867-5.058 4.395-6.756 7.132-14.453 23.289-22.784 48.905-28.051 75.611-1.072 5.437-2.597 10.744-1.016 16.61 4.892 18.152 11.014 35.833 18.689 52.98 18.411 41.129 42.678 78.608 70.606 113.862 22.428 28.312 47.035 54.34 76.575 75.382 1.642 1.17 3.582 2.109 5.524 2.641 18.646 5.107 37.677 7.491 57.037 8.289z"/></symbol><symbol viewBox="1778.8 206.582 400 400" id="icon_1-20" xmlns="http://www.w3.org/2000/svg"><path d="M2010.916 606.582h-84.672v-201.46h-43.796v-67.153l43.797-3.042c0-19.173-.136-37.493.028-55.81.344-38.506 18.562-63.932 56.303-69.442 30.361-4.433 61.679-2.308 92.573-3.092v70.073c-16.006-.119-32.103-1.246-47.97.183-5.643.508-14.789 6.726-15.333 11.191-1.899 15.574-.735 31.522-.735 47.1l64.038 2.841v14.599l-7.403 52.143h-56.83v201.869z"/></symbol><symbol viewBox="2198.8 206.582 400 400" id="icon_1-21" xmlns="http://www.w3.org/2000/svg"><path d="M2352.656 292.034c21.272 0 68.226-9.933 80.407 13.542 5.248 10.114.807 29.167.313 39.757-1.008 21.625.472 35.944 7.355 56.094 20.384-15.134 29.919-31.944 42.343-54.228 9.928-17.806 15.77-42.217 37.623-44.563 16.619-1.784 55.049-6.035 70.187 1.333 20.037 9.753-3.815 33.424-11.888 45.537-12.713 19.076-30.089 37.884-40.274 58.371-10.59 21.302 8.411 33.081 22.21 48.255 10.225 11.244 43.681 38.152 36.99 53.674-8.717 20.22-53.879 11.572-70.765 11.572-27.747 0-42.169-29.287-63.467-45.075-20.51-15.204-24.043-.655-29.271 18.161-3.161 11.379-5.5 23.169-14.768 26.914-8.451 3.415-31.242.165-39.865-1.254-20.815-3.425-41.682-12.06-59.088-24.009-37.331-25.627-62.73-67.273-84.274-106.128-10.926-19.704-20.84-39.959-30.303-60.4-6.456-13.943-12.912-16.736.712-24.228 11.03-6.065 26.773-2.54 38.688-2.755 27.326-.493 35.477 3.323 48.237 27.612 9.549 18.176 23.46 55.112 41.195 66.596 24.237 15.694 21.172-36.483 20.592-51.631-.717-18.71-4.688-33.339-26.016-36.23 1.906-8.108 16.132-12.822 23.127-16.917 19.943 0-7.402 4.333 0 0z"/></symbol></svg>