<?xml version="1.0" encoding="utf-8"?>
<svg version="1.1" xmlns="http://www.w3.org/2000/svg" xmlns:xlink="http://www.w3.org/1999/xlink" x="0px" y="0px"
	 viewBox="0 0 230 50" enable-background="new 0 0 230 50" xml:space="preserve">
<rect x="0" fill="#FFFFFF" width="230" height="50"/>
<path fill="#F37636" d="M47.1,26.1h2.5c0.3,0,0.5,0,0.8,0c0.3,0,0.5,0.1,0.8,0.2c0.3,0.1,0.6,0.3,0.8,0.5c0.4,0.3,0.7,0.7,0.8,1
	c0.2,0.4,0.2,0.8,0.2,1.3c0,0.4-0.1,0.8-0.2,1.2c-0.1,0.4-0.3,0.7-0.5,0.9c-0.1,0.2-0.3,0.3-0.6,0.5c-0.2,0.2-0.5,0.3-0.8,0.4
	c-0.3,0.1-0.6,0.2-1,0.2h-3V26.1z M42.1,36.3h7.1c0.5,0,1.1,0,1.7-0.1c0.6,0,1.2-0.1,1.8-0.2c0.6-0.1,1.2-0.3,1.8-0.6
	c0.6-0.3,1.2-0.6,1.7-1c0.5-0.4,0.9-0.9,1.2-1.4c0.4-0.5,0.6-1.1,0.8-1.8c0.2-0.6,0.3-1.3,0.3-2c0-0.8-0.1-1.6-0.4-2.4
	c-0.2-0.5-0.5-1-0.8-1.5c-0.4-0.5-0.9-1-1.5-1.5c-0.6-0.4-1.2-0.7-1.8-0.9c-0.6-0.2-1.2-0.4-1.8-0.4c-0.6-0.1-1.2-0.1-1.8-0.2
	c-0.6,0-1.1,0-1.6,0h-1.6v-4.7h9.4v-4H42.1V36.3z"/>
<path fill="#F37636" d="M76.1,32.9c0.6-0.1,1.3-0.3,1.7-0.7c1-0.8,0.9-2.5,1-3.9l0-8.8h12.3v16.7h-4.2v-13h-3.9c0,2.3,0,4.7-0.2,7.1
	c-0.2,1.9-0.7,4.1-2.7,5.4c-0.8,0.5-2.1,0.9-3.2,1l-0.7,0V32.9z"/>
<path fill="#F37636" d="M67.8,19.3c-0.7,0-1.3,0.1-2,0.2c-0.7,0.1-1.3,0.3-2,0.6c-0.6,0.3-1.2,0.7-1.8,1.2c-0.7,0.7-1.2,1.4-1.6,2.2
	c-0.4,0.8-0.6,1.6-0.7,2.3c-0.1,0.8-0.2,1.5-0.2,2.3c0,0.7,0,1.5,0.2,2.3c0.1,0.8,0.4,1.6,0.7,2.3c0.4,0.8,0.9,1.5,1.6,2.2
	c0.6,0.5,1.2,0.9,1.8,1.2c0.6,0.3,1.3,0.5,2,0.6c0.7,0.1,1.3,0.2,2,0.2c0.7,0,1.3-0.1,2-0.2c0.7-0.1,1.3-0.3,1.9-0.6
	c0.6-0.3,1.2-0.7,1.8-1.2c0.7-0.7,1.2-1.4,1.6-2.2c0.1-0.2,0.2-0.5,0.3-0.7h-4.8c-0.1,0.3-0.3,0.6-0.6,0.8c-0.3,0.3-0.7,0.5-1.1,0.6
	c-0.4,0.1-0.8,0.2-1.2,0.2c-0.4,0-0.8-0.1-1.2-0.2c-0.4-0.1-0.8-0.4-1.1-0.6c-0.3-0.3-0.6-0.7-0.7-1.1c-0.1-0.4-0.2-0.8-0.2-1.1
	c0-0.4,0-0.9,0-1.3l11.4,0c0-0.4,0-0.7,0-1c0-0.7,0-1.6-0.1-2.3c-0.1-0.8-0.4-1.6-0.7-2.3c-0.4-0.8-0.9-1.5-1.6-2.2
	c-0.6-0.5-1.2-0.9-1.8-1.2c-0.6-0.3-1.3-0.5-1.9-0.6C69.1,19.3,68.4,19.2,67.8,19.3 M64.5,26.2c0-0.2,0-0.5,0.1-0.7
	c0-0.4,0.1-0.8,0.2-1.1c0.1-0.4,0.4-0.7,0.7-1.1c0.3-0.3,0.7-0.5,1.1-0.6c0.4-0.1,0.8-0.2,1.2-0.2c0.4,0,0.8,0.1,1.2,0.2
	c0.4,0.1,0.8,0.4,1.1,0.6c0.3,0.3,0.6,0.7,0.7,1.1c0.1,0.4,0.2,0.8,0.2,1.1c0,0.2,0,0.5,0,0.7H64.5z"/>
<path fill="#006E92" d="M26.4,23.2c-0.1-0.2-0.3-0.5-0.5-0.7c-0.7,0.5-1.5,0.7-2.3,0.7c-0.9,0-1.7-0.3-2.3-0.7
	c-0.2,0.2-0.4,0.4-0.5,0.7c0.8,0.6,1.8,0.9,2.9,0.9C24.6,24.1,25.6,23.8,26.4,23.2"/>
<path fill="#006E92" d="M26.8,24.9c0-0.1,0-0.4,0-0.4h-6.6c0,0,0,0.2,0,0.4c0,0.1,0,0.2,0,0.4h6.6C26.8,25.1,26.8,25.1,26.8,24.9"/>
<path fill="#006E92" d="M20.7,26.6c0.1,0.2,0.3,0.5,0.5,0.7c0.7-0.5,1.5-0.7,2.3-0.7c0.9,0,1.7,0.3,2.3,0.7c0.2-0.2,0.4-0.4,0.5-0.7
	c-0.8-0.6-1.8-0.9-2.8-0.9C22.5,25.7,21.5,26,20.7,26.6"/>
<path fill="#006E92" d="M23.5,29.9c2.7,0,5-2.2,5-5c0-2.7-2.2-5-5-5c-2.7,0-5,2.2-5,5C18.6,27.6,20.8,29.9,23.5,29.9 M23.5,20.8
	c2.3,0,4.1,1.9,4.1,4.1c0,2.3-1.9,4.1-4.1,4.1c-2.3,0-4.1-1.9-4.1-4.1C19.4,22.6,21.3,20.8,23.5,20.8"/>
<path fill="#006E92" d="M9.7,38.7h27.5V11.2H9.7V38.7z M36.1,37.5H10.9V12.3h1.7V25c0,6,5,10.9,10.9,10.9c6.1,0,11-4.9,11-11
	c0-6-4.9-10.9-10.8-11l-0.2,0v4.8l0.2,0c3.3,0.1,6,2.8,6,6.1c0,3.4-2.7,6.1-6.1,6.1c-3.3,0-6.1-2.7-6.1-6.1l0-12.6h18.7V37.5z"/>
<path fill="#006E92" d="M132,26.2h2.5c0.3,0,0.5,0,0.8,0c0.3,0,0.5,0.1,0.8,0.2c0.3,0.1,0.6,0.3,0.8,0.5c0.4,0.3,0.7,0.7,0.8,1
	c0.2,0.4,0.2,0.8,0.2,1.3c0,0.4-0.1,0.8-0.2,1.2c-0.1,0.4-0.3,0.7-0.5,0.9c-0.1,0.2-0.3,0.3-0.6,0.5c-0.2,0.2-0.5,0.3-0.8,0.4
	c-0.3,0.1-0.6,0.2-1,0.2h-3V26.2z M127,36.3h7.1c0.5,0,1.1,0,1.7-0.1c0.6,0,1.2-0.1,1.8-0.2c0.6-0.1,1.2-0.3,1.8-0.6
	c0.6-0.3,1.2-0.6,1.7-1c0.5-0.4,0.9-0.9,1.2-1.4c0.4-0.5,0.6-1.1,0.8-1.8c0.2-0.6,0.3-1.3,0.3-2c0-0.2,0-0.6-0.1-1
	c-0.1-0.4-0.2-0.9-0.3-1.4c-0.2-0.5-0.5-1-0.8-1.5c-0.4-0.5-0.9-1-1.5-1.5c-0.6-0.4-1.2-0.7-1.8-0.9c-0.6-0.2-1.2-0.4-1.8-0.4
	c-0.6-0.1-1.2-0.1-1.8-0.2c-0.6,0-1.1,0-1.6,0H132v-4.7h9.4v-4H127V36.3z"/>
<path fill="#006E92" d="M97.3,26.4h2.5c0.3,0,0.6,0,0.9,0c0.3,0,0.6,0.1,0.9,0.2c0.3,0.1,0.6,0.2,0.9,0.4c0.2,0.1,0.3,0.3,0.5,0.5
	c0.1,0.2,0.3,0.4,0.4,0.7c0.1,0.3,0.1,0.6,0.2,1.1c0,0.5-0.1,0.9-0.2,1.3c-0.1,0.4-0.3,0.7-0.6,0.9c-0.2,0.2-0.5,0.4-0.8,0.5
	c-0.3,0.1-0.6,0.2-0.8,0.2c-0.3,0-0.5,0.1-0.7,0.1h-3.1V26.4z M97.3,17.4h3c0.3,0,0.6,0,1,0.1c0.4,0.1,0.7,0.3,1,0.5
	c0.2,0.2,0.4,0.4,0.4,0.6c0.1,0.2,0.2,0.5,0.2,0.7c0,0.2,0,0.5,0,0.7c0,0.2,0,0.5-0.1,0.8c-0.1,0.3-0.2,0.5-0.4,0.8
	c-0.2,0.3-0.5,0.5-0.8,0.6c-0.3,0.1-0.6,0.2-0.9,0.2c-0.3,0-0.6,0.1-0.8,0h-2.6V17.4z M92.3,13.5v22.7h7.9c0.5,0,1.1,0,1.6,0
	c0.6,0,1.2-0.1,1.8-0.2c0.6-0.1,1.2-0.3,1.7-0.5c0.6-0.2,1.1-0.6,1.5-0.9c0.4-0.3,0.7-0.7,1-1.2c0.3-0.5,0.6-1.1,0.7-1.7
	c0.2-0.6,0.3-1.3,0.3-2.1c0-0.6-0.1-1.1-0.2-1.7c-0.2-0.5-0.4-1.1-0.8-1.6c-0.3-0.4-0.6-0.7-0.9-0.9c-0.3-0.2-0.6-0.4-0.9-0.6
	c-0.3-0.1-0.6-0.2-0.8-0.3v-0.1c0.4-0.1,0.7-0.3,1.1-0.6c0.4-0.3,0.7-0.7,1.1-1.2c0.2-0.4,0.3-0.7,0.4-1.1c0.1-0.4,0.2-0.7,0.2-1
	c0-0.3,0.1-0.6,0.1-0.8c0-1.1-0.2-2-0.5-2.8c-0.4-0.8-0.9-1.4-1.5-1.9c-0.4-0.3-0.9-0.6-1.5-0.8c-0.5-0.2-1.1-0.3-1.6-0.4
	c-0.6-0.1-1.1-0.2-1.6-0.2c-0.5,0-1,0-1.4,0H92.3z"/>
<path fill="#006E92" d="M114.3,26.8h6.1V27c0,0.3,0,0.7-0.1,1.1c0,0.4-0.1,0.9-0.3,1.4c-0.2,0.5-0.4,0.9-0.7,1.4
	c-0.5,0.6-1,1.1-1.6,1.4c-0.6,0.3-1.3,0.4-2.1,0.4c-0.7,0-1.4-0.1-2.1-0.3c-0.7-0.2-1.3-0.5-2-0.9c-0.6-0.4-1.2-0.7-1.6-1.2l-1.3,4
	c0.6,0.4,1.2,0.7,1.7,1c0.9,0.4,1.8,0.8,2.7,1c0.9,0.2,1.8,0.3,2.6,0.3c1,0,2-0.1,2.9-0.3c0.9-0.2,1.8-0.5,2.6-1
	c0.8-0.5,1.6-1.1,2.2-1.9c0.5-0.7,1-1.4,1.3-2.1c0.3-0.7,0.5-1.5,0.7-2.2c0.1-0.7,0.2-1.5,0.3-2.2c0-0.7,0-1.4,0-2c0-0.6,0-1.3,0-2
	c0-0.7-0.1-1.4-0.3-2.2c-0.1-0.7-0.4-1.5-0.7-2.2c-0.3-0.7-0.7-1.4-1.3-2.1c-0.7-0.8-1.4-1.5-2.2-1.9c-0.8-0.5-1.7-0.8-2.6-1
	c-0.9-0.2-1.9-0.3-2.9-0.3c-0.9,0-1.7,0.1-2.6,0.3c-0.9,0.2-1.8,0.5-2.7,1c-0.6,0.3-1.1,0.6-1.7,1l1.3,4c0.5-0.4,1-0.8,1.6-1.2
	c0.6-0.4,1.3-0.6,2-0.9c0.7-0.2,1.4-0.3,2.1-0.3c0.8,0,1.5,0.1,2.1,0.4c0.6,0.3,1.2,0.8,1.6,1.4c0.3,0.5,0.6,0.9,0.7,1.4
	c0.2,0.5,0.3,0.9,0.3,1.4c0,0.4,0.1,0.8,0.1,1.1v0.3h-6.1V26.8z"/>
<rect x="154.2" fill="#F37636" width="2.5" height="50"/>
<g>
	<path fill="#006E92" d="M171.1,15.3c0,0.3-0.1,0.6-0.2,0.8c-0.1,0.3-0.3,0.5-0.5,0.6c-0.2,0.2-0.5,0.3-0.8,0.4
		c-0.3,0.1-0.6,0.1-1.1,0.1h-1.9v-6.4h3.9v0.8h-3.1v1.8h1c0.4,0,0.8,0,1.1,0.1c0.3,0.1,0.5,0.2,0.8,0.4c0.2,0.2,0.4,0.4,0.5,0.6
		C171,14.7,171.1,14.9,171.1,15.3z M170.2,15.3c0-0.2,0-0.4-0.1-0.6c-0.1-0.2-0.2-0.3-0.3-0.4c-0.2-0.1-0.3-0.2-0.5-0.2
		c-0.2,0-0.5,0-0.9,0h-0.8v2.4h0.7c0.4,0,0.7,0,0.9-0.1c0.2,0,0.4-0.1,0.5-0.2c0.2-0.1,0.3-0.2,0.4-0.4
		C170.1,15.7,170.2,15.5,170.2,15.3z"/>
	<path fill="#006E92" d="M171.6,17.3l2.2-6.4h1.1l2.2,6.4h-0.9l-0.6-1.8H173l-0.6,1.8H171.6z M175.3,14.7l-1-3l-1,3H175.3z"/>
	<path fill="#006E92" d="M182.7,17.3h-0.9v-3.2h-3v3.2H178v-6.4h0.9v2.5h3v-2.5h0.9V17.3z"/>
	<path fill="#006E92" d="M189.1,17.3h-1.1l-2.3-2.9h-0.5v2.9h-0.9v-6.4h0.9v2.9c0.3,0,0.6-0.1,0.8-0.3c0.2-0.2,0.4-0.4,0.5-0.7
		c0.1-0.1,0.1-0.3,0.1-0.4c0-0.1,0.1-0.2,0.1-0.3c0.2-0.5,0.4-0.8,0.7-1c0.3-0.2,0.6-0.3,1.1-0.3h0.3v0.8h-0.2
		c-0.4,0-0.6,0.1-0.7,0.2c-0.1,0.1-0.3,0.4-0.4,0.8c-0.1,0.4-0.3,0.7-0.4,0.8c-0.1,0.2-0.3,0.3-0.5,0.5L189.1,17.3z"/>
	<path fill="#006E92" d="M171.9,29.3h-0.8v-1.5h-4.2v1.5h-0.8v-2.2h0.4c0.4-0.6,0.7-1.4,0.9-2.4c0.2-1,0.3-2.1,0.3-3.3h3.6v5.7h0.6
		V29.3z M170.4,27.1v-4.9h-1.9c0,1-0.2,2-0.4,2.8c-0.2,0.8-0.5,1.5-0.8,2.1H170.4z"/>
	<path fill="#006E92" d="M177.8,27.9H177v-5.7h-2.2c0,0.3,0,0.6,0,1c0,0.3,0,0.6,0,0.8c0,0.6-0.1,1.1-0.1,1.5
		c-0.1,0.4-0.1,0.7-0.2,1c-0.1,0.3-0.2,0.5-0.3,0.6s-0.2,0.3-0.3,0.4c-0.1,0.1-0.3,0.2-0.4,0.3c-0.1,0.1-0.3,0.1-0.5,0.1
		c-0.1,0-0.1,0-0.2,0c-0.1,0-0.1,0-0.1,0v-0.8h0.1c0,0,0.1,0,0.1,0c0,0,0.1,0,0.1,0c0.1,0,0.2,0,0.3,0c0.1,0,0.2-0.1,0.2-0.1
		c0.2-0.2,0.3-0.5,0.4-1c0.1-0.5,0.2-1.2,0.2-2c0-0.3,0-0.7,0-1.1c0-0.5,0-0.9,0-1.3h3.8V27.9z"/>
	<path fill="#006E92" d="M183.6,27.9h-0.9v-2.6h-1l-1.9,2.6h-1l2.1-2.7c-0.4-0.1-0.8-0.4-1-0.7c-0.2-0.3-0.4-0.7-0.4-1.2
		c0-0.3,0.1-0.6,0.2-0.9c0.1-0.2,0.3-0.4,0.5-0.6c0.2-0.1,0.4-0.2,0.7-0.3c0.3-0.1,0.6-0.1,0.9-0.1h1.7V27.9z M182.8,24.6v-2.4h-0.9
		c-0.2,0-0.4,0-0.6,0c-0.1,0-0.3,0.1-0.4,0.2c-0.1,0.1-0.2,0.2-0.3,0.4c-0.1,0.2-0.1,0.3-0.1,0.5c0,0.2,0,0.4,0.1,0.6
		c0.1,0.2,0.1,0.3,0.3,0.4c0.1,0.1,0.3,0.2,0.5,0.3c0.2,0,0.4,0.1,0.7,0.1H182.8z"/>
	<path fill="#006E92" d="M192.9,25.9c0,0.3-0.1,0.6-0.2,0.8c-0.1,0.2-0.3,0.4-0.5,0.6c-0.2,0.2-0.5,0.3-0.8,0.4
		c-0.3,0.1-0.6,0.1-1.1,0.1h-1.8v-6.4h1.7c0.5,0,0.8,0,1,0c0.2,0,0.4,0.1,0.7,0.2c0.2,0.1,0.4,0.3,0.5,0.5c0.1,0.2,0.2,0.4,0.2,0.7
		c0,0.3-0.1,0.6-0.2,0.8c-0.2,0.2-0.4,0.4-0.7,0.6v0c0.4,0.1,0.7,0.3,0.9,0.6S192.9,25.5,192.9,25.9z M191.7,23c0-0.2,0-0.3-0.1-0.4
		s-0.1-0.2-0.3-0.3c-0.1-0.1-0.3-0.1-0.5-0.1c-0.2,0-0.4,0-0.7,0h-0.8v1.9h1c0.3,0,0.5,0,0.6,0c0.1,0,0.3-0.1,0.4-0.2
		c0.1-0.1,0.2-0.2,0.3-0.3C191.7,23.4,191.7,23.2,191.7,23z M192,25.9c0-0.2,0-0.4-0.1-0.6c-0.1-0.2-0.2-0.3-0.4-0.4
		c-0.1-0.1-0.3-0.1-0.4-0.1c-0.2,0-0.4,0-0.7,0h-1v2.4h0.7c0.4,0,0.7,0,0.9-0.1c0.2,0,0.4-0.1,0.6-0.2c0.2-0.1,0.3-0.2,0.4-0.4
		S192,26.2,192,25.9z"/>
	<path fill="#006E92" d="M193.4,27.9l2.2-6.4h1.1l2.2,6.4h-0.9l-0.6-1.8h-2.5l-0.6,1.8H193.4z M197.1,25.4l-1-3l-1,3H197.1z"/>
	<path fill="#006E92" d="M206.9,27.9h-7.1v-6.4h0.9v5.7h2.2v-5.7h0.9v5.7h2.2v-5.7h0.9V27.9z"/>
	<path fill="#006E92" d="M213.2,27.9h-0.9v-5.1l-2.9,5.1h-0.9v-6.4h0.9v5l2.9-5h0.9V27.9z"/>
	<path fill="#006E92" d="M219.4,27.9h-1l-1.6-2.6l-1.6,2.6h-0.9l2-3.2l-2-3.2h1l1.5,2.5l1.6-2.5h0.9l-2,3.2L219.4,27.9z"/>
	<path fill="#006E92" d="M171.3,38.5h-0.9v-5.1l-2.9,5.1h-0.9v-6.4h0.9v5l2.9-5h0.9V38.5z"/>
	<path fill="#006E92" d="M177.6,38.5h-0.9v-3.2h-3v3.2H173v-6.4h0.9v2.5h3v-2.5h0.9V38.5z"/>
	<path fill="#006E92" d="M183.9,38.5h-0.9v-5.1l-2.9,5.1h-0.9v-6.4h0.9v5l2.9-5h0.9V38.5z"/>
	<path fill="#006E92" d="M190.8,40H190v-1.5h-4.4v-6.4h0.9v5.7h2.9v-5.7h0.9v5.7h0.6V40z"/>
	<path fill="#006E92" d="M196.6,38.5h-0.9v-5.1l-2.9,5.1H192v-6.4h0.9v5l2.9-5h0.9V38.5z"/>
	<path fill="#006E92" d="M197.6,38.5l2.2-6.4h1.1l2.2,6.4h-0.9l-0.6-1.8h-2.5l-0.6,1.8H197.6z M201.3,36l-1-3l-1,3H201.3z"/>
	<path fill="#006E92" d="M205.5,38.5v-5.7h-2.2v-0.8h5.2v0.8h-2.2v5.7H205.5z"/>
	<path fill="#006E92" d="M214.1,38.5h-0.9v-5.1l-2.9,5.1h-0.9v-6.4h0.9v5l2.9-5h0.9V38.5z"/>
	<path fill="#006E92" d="M220.2,36.5c0,0.3-0.1,0.6-0.2,0.8c-0.1,0.2-0.3,0.4-0.5,0.6c-0.2,0.2-0.5,0.3-0.8,0.4s-0.6,0.1-1.1,0.1
		h-1.8v-6.4h1.7c0.5,0,0.8,0,1,0c0.2,0,0.4,0.1,0.7,0.2c0.2,0.1,0.4,0.3,0.5,0.5c0.1,0.2,0.2,0.4,0.2,0.7c0,0.3-0.1,0.6-0.2,0.8
		c-0.2,0.2-0.4,0.4-0.7,0.6v0c0.4,0.1,0.7,0.3,0.9,0.6C220,35.8,220.2,36.1,220.2,36.5z M219,33.7c0-0.2,0-0.3-0.1-0.4
		c-0.1-0.1-0.1-0.2-0.3-0.3c-0.1-0.1-0.3-0.1-0.5-0.1c-0.2,0-0.4,0-0.7,0h-0.8v1.9h1c0.3,0,0.5,0,0.6,0c0.1,0,0.3-0.1,0.4-0.2
		c0.1-0.1,0.2-0.2,0.3-0.3C218.9,34,219,33.8,219,33.7z M219.3,36.6c0-0.2,0-0.4-0.1-0.6c-0.1-0.2-0.2-0.3-0.4-0.4
		c-0.1-0.1-0.3-0.1-0.4-0.1c-0.2,0-0.4,0-0.7,0h-1v2.4h0.7c0.4,0,0.7,0,0.9-0.1c0.2,0,0.4-0.1,0.6-0.2c0.2-0.1,0.3-0.2,0.4-0.4
		S219.3,36.8,219.3,36.6z"/>
</g>
</svg>
