<?xml version="1.0" encoding="utf-8" standalone="no"?>
<svg xmlns="http://www.w3.org/2000/svg" viewBox="0 0 230 50"><path fill="#FFF" d="M0 0h230v50H0z"/><path fill="#F37636" d="M47.1 26.1h3.3c.3 0 .5.1.8.2.3.1.6.3.8.5.4.3.7.7.8 1 .2.4.2.8.2 1.3 0 .4-.1.8-.2 1.2-.1.4-.3.7-.5.9-.1.2-.3.3-.6.5-.2.2-.5.3-.8.4-.3.1-.6.2-1 .2h-3v-6.2zm-5 10.2h7.1c.5 0 1.1 0 1.7-.1.6 0 1.2-.1 1.8-.2.6-.1 1.2-.3 1.8-.6.6-.3 1.2-.6 1.7-1s.9-.9 1.2-1.4c.4-.5.6-1.1.8-1.8.2-.6.3-1.3.3-2 0-.8-.1-1.6-.4-2.4-.2-.5-.5-1-.8-1.5-.4-.5-.9-1-1.5-1.5-.6-.4-1.2-.7-1.8-.9-.6-.2-1.2-.4-1.8-.4-.6-.1-1.2-.1-1.8-.2h-3.2v-4.7h9.4v-4H42.1v22.7zM76.1 32.9c.6-.1 1.3-.3 1.7-.7 1-.8.9-2.5 1-3.9v-8.8h12.3v16.7h-4.2v-13H83c0 2.3 0 4.7-.2 7.1-.2 1.9-.7 4.1-2.7 5.4-.8.5-2.1.9-3.2 1h-.7v-3.8zM67.8 19.3c-.7 0-1.3.1-2 .2s-1.3.3-2 .6c-.6.3-1.2.7-1.8 1.2-.7.7-1.2 1.4-1.6 2.2-.4.8-.6 1.6-.7 2.3-.1.8-.2 1.5-.2 2.3 0 .7 0 1.5.2 2.3.1.8.4 1.6.7 2.3.4.8.9 1.5 1.6 2.2.6.5 1.2.9 1.8 1.2.6.3 1.3.5 2 .6.7.1 1.3.2 2 .2s1.3-.1 2-.2 1.3-.3 1.9-.6c.6-.3 1.2-.7 1.8-1.2.7-.7 1.2-1.4 1.6-2.2.1-.2.2-.5.3-.7h-4.8c-.1.3-.3.6-.6.8-.3.3-.7.5-1.1.6-.4.1-.8.2-1.2.2-.4 0-.8-.1-1.2-.2-.4-.1-.8-.4-1.1-.6-.3-.3-.6-.7-.7-1.1-.1-.4-.2-.8-.2-1.1v-1.3h11.4v-1c0-.7 0-1.6-.1-2.3-.1-.8-.4-1.6-.7-2.3-.4-.8-.9-1.5-1.6-2.2-.6-.5-1.2-.9-1.8-1.2-.6-.3-1.3-.5-1.9-.6-.7-.4-1.4-.5-2-.4m-3.3 6.9c0-.2 0-.5.1-.7 0-.4.1-.8.2-1.1.1-.4.4-.7.7-1.1.3-.3.7-.5 1.1-.6.4-.1.8-.2 1.2-.2.4 0 .8.1 1.2.2.4.1.8.4 1.1.6.3.3.6.7.7 1.1.1.4.2.8.2 1.1v.7h-6.5z"/><path fill="#006E92" d="M26.4 23.2c-.1-.2-.3-.5-.5-.7-.7.5-1.5.7-2.3.7-.9 0-1.7-.3-2.3-.7-.2.2-.4.4-.5.7.8.6 1.8.9 2.9.9.9 0 1.9-.3 2.7-.9M26.8 24.9v-.4h-6.6v.8h6.6v-.4M20.7 26.6c.1.2.3.5.5.7.7-.5 1.5-.7 2.3-.7.9 0 1.7.3 2.3.7.2-.2.4-.4.5-.7-.8-.6-1.8-.9-2.8-.9-1 0-2 .3-2.8.9"/><path fill="#006E92" d="M23.5 29.9c2.7 0 5-2.2 5-5 0-2.7-2.2-5-5-5-2.7 0-5 2.2-5 5 .1 2.7 2.3 5 5 5m0-9.1c2.3 0 4.1 1.9 4.1 4.1 0 2.3-1.9 4.1-4.1 4.1-2.3 0-4.1-1.9-4.1-4.1 0-2.3 1.9-4.1 4.1-4.1"/><path fill="#006E92" d="M9.7 38.7h27.5V11.2H9.7v27.5zm26.4-1.2H10.9V12.3h1.7V25c0 6 5 10.9 10.9 10.9 6.1 0 11-4.9 11-11 0-6-4.9-10.9-10.8-11h-.2v4.8h.2c3.3.1 6 2.8 6 6.1 0 3.4-2.7 6.1-6.1 6.1-3.3 0-6.1-2.7-6.1-6.1V12.2h18.7v25.3zM132 26.2h3.3c.3 0 .5.1.8.2.3.1.6.3.8.5.4.3.7.7.8 1 .2.4.2.8.2 1.3 0 .4-.1.8-.2 1.2-.1.4-.3.7-.5.9-.1.2-.3.3-.6.5-.2.2-.5.3-.8.4-.3.1-.6.2-1 .2h-3v-6.2zm-5 10.1h7.1c.5 0 1.1 0 1.7-.1.6 0 1.2-.1 1.8-.2.6-.1 1.2-.3 1.8-.6.6-.3 1.2-.6 1.7-1s.9-.9 1.2-1.4c.4-.5.6-1.1.8-1.8.2-.6.3-1.3.3-2 0-.2 0-.6-.1-1s-.2-.9-.3-1.4c-.2-.5-.5-1-.8-1.5-.4-.5-.9-1-1.5-1.5-.6-.4-1.2-.7-1.8-.9-.6-.2-1.2-.4-1.8-.4-.6-.1-1.2-.1-1.8-.2H132v-4.7h9.4v-4H127v22.7zM97.3 26.4h3.4c.3 0 .6.1.9.2.3.1.6.2.9.4.2.1.3.3.5.5.1.2.3.4.4.7.1.3.1.6.2 1.1 0 .5-.1.9-.2 1.3s-.3.7-.6.9c-.2.2-.5.4-.8.5-.3.1-.6.2-.8.2-.3 0-.5.1-.7.1h-3.1v-5.9zm0-9h3c.3 0 .6 0 1 .1s.7.3 1 .5c.2.2.4.4.4.6.1.2.2.5.2.7v.7c0 .2 0 .5-.1.8-.1.3-.2.5-.4.8-.2.3-.5.5-.8.6-.3.1-.6.2-.9.2-.3 0-.6.1-.8 0h-2.6v-5zm-5-3.9v22.7h9.5c.6 0 1.2-.1 1.8-.2.6-.1 1.2-.3 1.7-.5.6-.2 1.1-.6 1.5-.9.4-.3.7-.7 1-1.2.3-.5.6-1.1.7-1.7.2-.6.3-1.3.3-2.1 0-.6-.1-1.1-.2-1.7-.2-.5-.4-1.1-.8-1.6-.3-.4-.6-.7-.9-.9l-.9-.6c-.3-.1-.6-.2-.8-.3v-.1c.4-.1.7-.3 1.1-.6.4-.3.7-.7 1.1-1.2.2-.4.3-.7.4-1.1.1-.4.2-.7.2-1 0-.3.1-.6.1-.8 0-1.1-.2-2-.5-2.8-.4-.8-.9-1.4-1.5-1.9-.4-.3-.9-.6-1.5-.8-.5-.2-1.1-.3-1.6-.4-.6-.1-1.1-.2-1.6-.2h-9.1z"/><path fill="#006E92" d="M114.3 26.8h6.1v.2c0 .3 0 .7-.1 1.1 0 .4-.1.9-.3 1.4-.2.5-.4.9-.7 1.4-.5.6-1 1.1-1.6 1.4-.6.3-1.3.4-2.1.4-.7 0-1.4-.1-2.1-.3-.7-.2-1.3-.5-2-.9-.6-.4-1.2-.7-1.6-1.2l-1.3 4c.6.4 1.2.7 1.7 1 .9.4 1.8.8 2.7 1 .9.2 1.8.3 2.6.3 1 0 2-.1 2.9-.3.9-.2 1.8-.5 2.6-1s1.6-1.1 2.2-1.9c.5-.7 1-1.4 1.3-2.1.3-.7.5-1.5.7-2.2.1-.7.2-1.5.3-2.2v-2-2c0-.7-.1-1.4-.3-2.2-.1-.7-.4-1.5-.7-2.2-.3-.7-.7-1.4-1.3-2.1-.7-.8-1.4-1.5-2.2-1.9-.8-.5-1.7-.8-2.6-1-.9-.2-1.9-.3-2.9-.3-.9 0-1.7.1-2.6.3-.9.2-1.8.5-2.7 1-.6.3-1.1.6-1.7 1l1.3 4c.5-.4 1-.8 1.6-1.2.6-.4 1.3-.6 2-.9.7-.2 1.4-.3 2.1-.3.8 0 1.5.1 2.1.4.6.3 1.2.8 1.6 1.4.3.5.6.9.7 1.4.2.5.3.9.3 1.4 0 .4.1.8.1 1.1v.3h-6.1v3.7z"/><path fill="#F37636" d="M154.2 0h2.5v50h-2.5z"/><g fill="#006E92"><path d="M171.1 15.3c0 .3-.1.6-.2.8-.1.3-.3.5-.5.6-.2.2-.5.3-.8.4-.3.1-.6.1-1.1.1h-1.9v-6.4h3.9v.8h-3.1v1.8h1c.4 0 .8 0 1.1.1.3.1.5.2.8.4.2.2.4.4.5.6.2.2.3.4.3.8zm-.9 0c0-.2 0-.4-.1-.6-.1-.2-.2-.3-.3-.4-.2-.1-.3-.2-.5-.2H167.6v2.4h.7c.4 0 .7 0 .9-.1.2 0 .4-.1.5-.2.2-.1.3-.2.4-.4 0-.1.1-.3.1-.5zM171.6 17.3l2.2-6.4h1.1l2.2 6.4h-.9l-.6-1.8H173l-.6 1.8h-.8zm3.7-2.6l-1-3-1 3h2zM182.7 17.3h-.9v-3.2h-3v3.2h-.8v-6.4h.9v2.5h3v-2.5h.9v6.4zM189.1 17.3H188l-2.3-2.9h-.5v2.9h-.9v-6.4h.9v2.9c.3 0 .6-.1.8-.3.2-.2.4-.4.5-.7.1-.1.1-.3.1-.4 0-.1.1-.2.1-.3.2-.5.4-.8.7-1 .3-.2.6-.3 1.1-.3h.3v.8h-.2c-.4 0-.6.1-.7.2-.1.1-.3.4-.4.8-.1.4-.3.7-.4.8-.1.2-.3.3-.5.5l2.5 3.4zM171.9 29.3h-.8v-1.5h-4.2v1.5h-.8v-2.2h.4c.4-.6.7-1.4.9-2.4.2-1 .3-2.1.3-3.3h3.6v5.7h.6v2.2zm-1.5-2.2v-4.9h-1.9c0 1-.2 2-.4 2.8-.2.8-.5 1.5-.8 2.1h3.1zM177.8 27.9h-.8v-5.7h-2.2V24c0 .6-.1 1.1-.1 1.5-.1.4-.1.7-.2 1-.1.3-.2.5-.3.6s-.2.3-.3.4c-.1.1-.3.2-.4.3-.1.1-.3.1-.5.1H172.7v-.8H173.3c.1 0 .2-.1.2-.1.2-.2.3-.5.4-1 .1-.5.2-1.2.2-2v-1.1-1.3h3.8v6.3zM183.6 27.9h-.9v-2.6h-1l-1.9 2.6h-1l2.1-2.7c-.4-.1-.8-.4-1-.7-.2-.3-.4-.7-.4-1.2 0-.3.1-.6.2-.9.1-.2.3-.4.5-.6.2-.1.4-.2.7-.3.3-.1.6-.1.9-.1h1.7v6.5zm-.8-3.3v-2.4h-1.5c-.1 0-.3.1-.4.2-.1.1-.2.2-.3.4-.1.2-.1.3-.1.5s0 .4.1.6c.1.2.1.3.3.4.1.1.3.2.5.3.2 0 .4.1.7.1h.7zM192.9 25.9c0 .3-.1.6-.2.8-.1.2-.3.4-.5.6-.2.2-.5.3-.8.4-.3.1-.6.1-1.1.1h-1.8v-6.4h2.7c.2 0 .4.1.7.2.2.1.4.3.5.5.1.2.2.4.2.7 0 .3-.1.6-.2.8-.2.2-.4.4-.7.6.4.1.7.3.9.6s.3.7.3 1.1zm-1.2-2.9c0-.2 0-.3-.1-.4s-.1-.2-.3-.3c-.1-.1-.3-.1-.5-.1h-1.5v1.9h1.6c.1 0 .3-.1.4-.2l.3-.3c.1-.2.1-.4.1-.6zm.3 2.9c0-.2 0-.4-.1-.6-.1-.2-.2-.3-.4-.4-.1-.1-.3-.1-.4-.1h-1.7v2.4h.7c.4 0 .7 0 .9-.1.2 0 .4-.1.6-.2.2-.1.3-.2.4-.4s0-.3 0-.6zM193.4 27.9l2.2-6.4h1.1l2.2 6.4h-.9l-.6-1.8h-2.5l-.6 1.8h-.9zm3.7-2.5l-1-3-1 3h2zM206.9 27.9h-7.1v-6.4h.9v5.7h2.2v-5.7h.9v5.7h2.2v-5.7h.9v6.4zM213.2 27.9h-.9v-5.1l-2.9 5.1h-.9v-6.4h.9v5l2.9-5h.9v6.4zM219.4 27.9h-1l-1.6-2.6-1.6 2.6h-.9l2-3.2-2-3.2h1l1.5 2.5 1.6-2.5h.9l-2 3.2 2.1 3.2zM171.3 38.5h-.9v-5.1l-2.9 5.1h-.9v-6.4h.9v5l2.9-5h.9v6.4zM177.6 38.5h-.9v-3.2h-3v3.2h-.7v-6.4h.9v2.5h3v-2.5h.9v6.4zM183.9 38.5h-.9v-5.1l-2.9 5.1h-.9v-6.4h.9v5l2.9-5h.9v6.4zM190.8 40h-.8v-1.5h-4.4v-6.4h.9v5.7h2.9v-5.7h.9v5.7h.6V40zM196.6 38.5h-.9v-5.1l-2.9 5.1h-.8v-6.4h.9v5l2.9-5h.9v6.4zM197.6 38.5l2.2-6.4h1.1l2.2 6.4h-.9l-.6-1.8h-2.5l-.6 1.8h-.9zm3.7-2.5l-1-3-1 3h2zM205.5 38.5v-5.7h-2.2V32h5.2v.8h-2.2v5.7h-.8zM214.1 38.5h-.9v-5.1l-2.9 5.1h-.9v-6.4h.9v5l2.9-5h.9v6.4zM220.2 36.5c0 .3-.1.6-.2.8-.1.2-.3.4-.5.6-.2.2-.5.3-.8.4s-.6.1-1.1.1h-1.8V32h2.7c.2 0 .4.1.7.2.2.1.4.3.5.5.1.2.2.4.2.7 0 .3-.1.6-.2.8-.2.2-.4.4-.7.6.4.1.7.3.9.6.1.4.3.7.3 1.1zm-1.2-2.8c0-.2 0-.3-.1-.4-.1-.1-.1-.2-.3-.3-.1-.1-.3-.1-.5-.1h-1.5v1.9h1.6c.1 0 .3-.1.4-.2l.3-.3c0-.3.1-.5.1-.6zm.3 2.9c0-.2 0-.4-.1-.6-.1-.2-.2-.3-.4-.4-.1-.1-.3-.1-.4-.1h-1.7v2.4h.7c.4 0 .7 0 .9-.1.2 0 .4-.1.6-.2.2-.1.3-.2.4-.4s0-.4 0-.6z"/></g></svg>