<svg xmlns="http://www.w3.org/2000/svg" xmlns:xlink="http://www.w3.org/1999/xlink" preserveAspectRatio="xMidYMid" width="20" height="17" viewBox="0 0 20 17">
  <defs>
    <style>

      .cls-2 {
        fill: #7f7f7f;
      }
    </style>
  </defs>
  <path d="M17.039,2.487 C17.904,1.959 18.484,1.225 18.777,0.287 C18.000,0.756 17.164,1.079 16.269,1.255 C15.492,0.419 14.524,0.001 13.365,0.001 C12.280,0.015 11.348,0.404 10.571,1.167 C9.794,1.929 9.405,2.861 9.405,3.961 C9.405,4.254 9.442,4.555 9.515,4.863 C7.872,4.789 6.347,4.386 4.939,3.653 C3.531,2.919 2.328,1.944 1.331,0.727 C0.964,1.343 0.781,2.003 0.781,2.707 C0.781,3.411 0.942,4.049 1.265,4.621 C1.588,5.193 2.020,5.662 2.563,6.029 C1.918,5.999 1.316,5.831 0.759,5.523 C0.759,5.523 0.759,5.567 0.759,5.567 C0.759,6.535 1.060,7.378 1.661,8.097 C2.262,8.815 3.025,9.270 3.949,9.461 C3.597,9.549 3.245,9.593 2.893,9.593 C2.673,9.593 2.424,9.578 2.145,9.549 C2.409,10.355 2.878,11.008 3.553,11.507 C4.228,12.005 4.998,12.269 5.863,12.299 C4.426,13.428 2.783,13.993 0.935,13.993 C0.583,13.993 0.268,13.971 -0.011,13.927 C1.822,15.115 3.846,15.709 6.061,15.709 C7.484,15.738 8.811,15.518 10.043,15.049 C11.275,14.579 12.331,13.978 13.211,13.245 C14.091,12.511 14.846,11.653 15.477,10.671 C16.108,9.688 16.577,8.669 16.885,7.613 C17.193,6.557 17.347,5.493 17.347,4.423 C17.347,4.423 17.347,3.917 17.347,3.917 C18.124,3.345 18.784,2.663 19.327,1.871 C18.564,2.193 17.802,2.399 17.039,2.487 C17.039,2.487 17.039,2.487 17.039,2.487 Z" id="path-1" class="cls-2" fill-rule="evenodd"/>
</svg>
