<svg xmlns="http://www.w3.org/2000/svg" xmlns:xlink="http://www.w3.org/1999/xlink" preserveAspectRatio="xMidYMid" width="25" height="16" viewBox="0 0 25 16">
  <defs>
    <style>

      .cls-2 {
        fill: #7f7f7f;
      }
    </style>
  </defs>
  <path d="M22.736,9.150 C22.728,9.914 22.725,10.674 22.721,11.434 C21.967,11.434 21.216,11.434 20.462,11.434 C20.454,10.674 20.454,9.914 20.446,9.154 C19.692,9.147 18.934,9.139 18.179,9.131 C18.179,8.375 18.179,7.619 18.179,6.859 C18.934,6.851 19.688,6.847 20.446,6.844 C20.450,6.080 20.458,5.320 20.465,4.560 C21.216,4.560 21.967,4.560 22.721,4.560 C22.725,5.320 22.728,6.084 22.736,6.844 C23.490,6.851 24.249,6.851 25.003,6.859 C25.003,7.615 25.003,8.375 25.003,9.131 C24.249,9.139 23.494,9.143 22.736,9.150 ZM5.067,15.464 C1.962,14.272 -0.237,10.968 0.025,7.600 C0.093,3.479 3.854,-0.130 7.944,0.007 C9.904,-0.084 11.746,0.775 13.247,1.982 C12.607,2.715 11.943,3.422 11.234,4.082 C9.430,2.826 6.864,2.467 5.059,3.918 C2.477,5.717 2.360,9.964 4.843,11.900 C7.258,14.108 11.822,13.012 12.489,9.632 C10.977,9.609 9.460,9.632 7.948,9.582 C7.944,8.673 7.940,7.764 7.944,6.855 C10.473,6.847 13.001,6.844 15.533,6.863 C15.685,9.001 15.405,11.278 14.100,13.046 C12.125,15.845 8.160,16.663 5.067,15.464 Z" id="path-1" class="cls-2" fill-rule="evenodd"/>
</svg>
