<svg xmlns="http://www.w3.org/2000/svg" xmlns:xlink="http://www.w3.org/1999/xlink" preserveAspectRatio="xMidYMid" width="11" height="21" viewBox="0 0 11 21">
	<path fill="#ffffff" d="M7.801,0.011 C6.378,0.011 5.242,0.429 4.391,1.265 C3.540,2.101 3.115,3.282 3.115,4.807 C3.115,4.807 3.115,7.491 3.115,7.491 C3.115,7.491 -0.009,7.491 -0.009,7.491 C-0.009,7.491 -0.009,11.121 -0.009,11.121 C-0.009,11.121 3.115,11.121 3.115,11.121 C3.115,11.121 3.115,20.449 3.115,20.449 C3.115,20.449 6.877,20.449 6.877,20.449 C6.877,20.449 6.877,11.121 6.877,11.121 C6.877,11.121 10.001,11.121 10.001,11.121 C10.001,11.121 10.485,7.491 10.485,7.491 C10.485,7.491 6.877,7.491 6.877,7.491 C6.877,7.491 6.877,5.159 6.877,5.159 C6.877,4.573 7.002,4.132 7.251,3.839 C7.500,3.546 7.977,3.399 8.681,3.399 C8.681,3.399 10.595,3.399 10.595,3.399 C10.595,3.399 10.595,0.165 10.595,0.165 C9.935,0.063 9.004,0.011 7.801,0.011 C7.801,0.011 7.801,0.011 7.801,0.011 Z" fill-rule="evenodd"/>
</svg>
