<svg xmlns="http://www.w3.org/2000/svg" xmlns:xlink="http://www.w3.org/1999/xlink" preserveAspectRatio="xMidYMid" width="24" height="14" viewBox="0 0 24 14">
	<path fill="#ffffff" d="M23.481,0.843 C23.437,0.755 23.312,0.682 23.107,0.623 C22.902,0.565 22.638,0.557 22.315,0.601 C22.315,0.601 18.795,0.623 18.795,0.623 C18.751,0.594 18.670,0.594 18.553,0.623 C18.553,0.623 18.311,0.689 18.311,0.689 C18.311,0.689 18.267,0.733 18.267,0.733 C18.223,0.763 18.179,0.807 18.135,0.865 C18.091,0.924 18.054,0.997 18.025,1.085 C17.629,2.068 17.189,2.985 16.705,3.835 C16.412,4.334 16.133,4.774 15.869,5.155 C15.605,5.537 15.392,5.815 15.231,5.991 C15.070,6.167 14.916,6.307 14.769,6.409 C14.622,6.512 14.512,6.556 14.439,6.541 C14.439,6.541 14.241,6.497 14.241,6.497 C14.124,6.439 14.028,6.336 13.955,6.189 C13.882,6.043 13.838,5.881 13.823,5.705 C13.823,5.705 13.779,5.221 13.779,5.221 C13.764,5.075 13.764,4.877 13.779,4.627 C13.779,4.627 13.801,4.121 13.801,4.121 C13.801,4.121 13.801,3.109 13.801,3.109 C13.801,2.728 13.816,2.435 13.845,2.229 C13.874,2.024 13.874,1.804 13.845,1.569 C13.816,1.335 13.801,1.144 13.801,0.997 C13.801,0.851 13.764,0.719 13.691,0.601 C13.618,0.484 13.530,0.389 13.427,0.315 C13.324,0.242 13.185,0.183 13.009,0.139 C12.584,0.051 12.034,0.000 11.359,-0.015 C9.834,-0.029 8.858,0.066 8.433,0.271 C8.257,0.374 8.103,0.499 7.971,0.645 C7.810,0.821 7.788,0.924 7.905,0.953 C8.389,1.027 8.734,1.203 8.939,1.481 C8.939,1.481 9.027,1.613 9.027,1.613 C9.071,1.731 9.122,1.921 9.181,2.185 C9.240,2.449 9.276,2.750 9.291,3.087 C9.335,3.659 9.335,4.165 9.291,4.605 C9.291,4.605 9.181,5.617 9.181,5.617 C9.152,5.852 9.100,6.043 9.027,6.189 C8.954,6.336 8.902,6.424 8.873,6.453 C8.873,6.453 8.807,6.519 8.807,6.519 C8.704,6.563 8.594,6.585 8.477,6.585 C8.360,6.585 8.220,6.527 8.059,6.409 C7.898,6.292 7.729,6.131 7.553,5.925 C7.377,5.720 7.179,5.441 6.959,5.089 C6.739,4.737 6.512,4.312 6.277,3.813 C6.277,3.813 6.079,3.461 6.079,3.461 C6.079,3.461 5.573,2.471 5.573,2.471 C5.353,2.031 5.162,1.606 5.001,1.195 C4.942,1.019 4.847,0.887 4.715,0.799 C4.715,0.799 4.649,0.755 4.649,0.755 C4.605,0.741 4.539,0.711 4.451,0.667 C4.363,0.623 4.268,0.594 4.165,0.579 C4.165,0.579 0.799,0.601 0.799,0.601 C0.462,0.601 0.227,0.682 0.095,0.843 C0.095,0.843 0.051,0.909 0.051,0.909 C0.022,0.953 0.007,1.019 0.007,1.107 C0.007,1.195 0.036,1.305 0.095,1.437 C0.594,2.581 1.129,3.696 1.701,4.781 C2.273,5.867 2.772,6.732 3.197,7.377 C3.622,8.023 4.055,8.639 4.495,9.225 C4.935,9.812 5.228,10.186 5.375,10.347 C5.375,10.347 5.705,10.699 5.705,10.699 C5.705,10.699 6.013,11.007 6.013,11.007 C6.248,11.183 6.541,11.418 6.893,11.711 C7.245,12.005 7.663,12.276 8.147,12.525 C8.631,12.775 9.174,12.987 9.775,13.163 C10.376,13.339 10.970,13.405 11.557,13.361 C11.557,13.361 12.965,13.361 12.965,13.361 C13.258,13.347 13.478,13.259 13.625,13.097 C13.625,13.097 13.669,13.031 13.669,13.031 C13.698,12.987 13.728,12.914 13.757,12.811 C13.786,12.709 13.801,12.599 13.801,12.481 C13.801,12.115 13.830,11.792 13.889,11.513 C13.948,11.235 14.014,11.022 14.087,10.875 C14.160,10.729 14.248,10.611 14.351,10.523 C14.454,10.435 14.527,10.377 14.571,10.347 C14.615,10.318 14.644,10.303 14.659,10.303 C14.864,10.245 15.099,10.311 15.363,10.501 C15.627,10.692 15.876,10.927 16.111,11.205 C16.346,11.484 16.624,11.799 16.947,12.151 C17.270,12.503 17.556,12.767 17.805,12.943 C17.805,12.943 18.047,13.097 18.047,13.097 C18.208,13.200 18.421,13.288 18.685,13.361 C18.949,13.435 19.176,13.457 19.367,13.427 C19.367,13.427 22.513,13.361 22.513,13.361 C22.806,13.361 23.048,13.310 23.239,13.207 C23.430,13.105 23.532,12.995 23.547,12.877 C23.562,12.760 23.562,12.621 23.547,12.459 C23.532,12.298 23.510,12.188 23.481,12.129 C23.481,12.129 23.393,11.975 23.393,11.975 C22.982,11.242 22.198,10.340 21.039,9.269 C21.039,9.269 21.017,9.247 21.017,9.247 C21.017,9.247 21.017,9.225 21.017,9.225 C21.017,9.225 20.995,9.225 20.995,9.225 C20.467,8.727 20.130,8.389 19.983,8.213 C19.734,7.891 19.682,7.561 19.829,7.223 C19.917,6.974 20.284,6.439 20.929,5.617 C21.266,5.177 21.530,4.825 21.721,4.561 C23.144,2.684 23.760,1.481 23.569,0.953 C23.569,0.953 23.481,0.843 23.481,0.843 Z" fill-rule="evenodd"/>
</svg>
