<svg xmlns="http://www.w3.org/2000/svg" xmlns:xlink="http://www.w3.org/1999/xlink" preserveAspectRatio="xMidYMid" width="23" height="17" viewBox="0 0 23 17">
  <defs>
    <style>

      .cls-2 {
        fill: #7f7f7f;
      }
    </style>
  </defs>
  <path d="M15.348,8.515 C15.348,8.515 9.056,12.453 9.056,12.453 C8.939,12.526 8.800,12.563 8.638,12.563 C8.521,12.563 8.396,12.533 8.264,12.475 C7.986,12.328 7.846,12.101 7.846,11.793 C7.846,11.793 7.846,3.917 7.846,3.917 C7.846,3.609 7.986,3.381 8.264,3.235 C8.543,3.088 8.807,3.095 9.056,3.257 C9.056,3.257 15.348,7.195 15.348,7.195 C15.583,7.327 15.700,7.547 15.700,7.855 C15.700,8.163 15.583,8.383 15.348,8.515 C15.348,8.515 15.348,8.515 15.348,8.515 ZM21.970,6.007 C21.970,5.567 21.941,5.009 21.882,4.335 C21.824,3.660 21.736,3.059 21.618,2.531 C21.486,1.929 21.200,1.423 20.760,1.013 C20.320,0.602 19.807,0.367 19.220,0.309 C17.416,0.103 14.674,0.001 10.992,0.001 C7.311,0.001 4.568,0.103 2.764,0.309 C2.163,0.367 1.650,0.602 1.224,1.013 C0.799,1.423 0.520,1.929 0.388,2.531 C0.212,3.059 0.117,3.660 0.102,4.335 C0.088,5.009 0.058,5.567 0.014,6.007 C-0.030,6.447 -0.037,7.063 -0.008,7.855 C0.022,8.647 0.029,9.263 0.014,9.703 C-0.000,10.143 0.029,10.700 0.102,11.375 C0.176,12.049 0.264,12.651 0.366,13.179 C0.498,13.780 0.784,14.286 1.224,14.697 C1.664,15.107 2.178,15.342 2.764,15.401 C4.568,15.606 7.311,15.709 10.992,15.709 C14.674,15.709 17.416,15.606 19.220,15.401 C19.822,15.342 20.335,15.107 20.760,14.697 C21.186,14.286 21.464,13.780 21.596,13.179 C21.743,12.651 21.838,12.049 21.882,11.375 C21.926,10.700 21.956,10.143 21.970,9.703 C21.985,9.263 21.992,8.647 21.992,7.855 C21.978,7.063 21.970,6.447 21.970,6.007 Z" id="path-1" class="cls-2" fill-rule="evenodd"/>
</svg>
