<svg xmlns="http://www.w3.org/2000/svg" xmlns:xlink="http://www.w3.org/1999/xlink" preserveAspectRatio="xMidYMid" width="9" height="15" viewBox="0 0 9 15">
  <defs>
    <style>

      .cls-2 {
        fill: #ffffff;
      }
    </style>
  </defs>
  <path d="M8.366,0.006 C8.366,0.006 5.991,0.006 5.991,0.006 C5.009,0.006 4.190,0.371 3.532,1.101 C2.874,1.831 2.545,2.723 2.545,3.778 C2.545,3.778 2.545,5.226 2.545,5.226 C2.545,5.226 0.003,5.226 0.003,5.226 C0.003,5.226 0.003,7.718 0.003,7.718 C0.003,7.718 2.545,7.718 2.545,7.718 C2.545,7.718 2.545,15.160 2.545,15.160 C2.545,15.160 5.389,15.160 5.389,15.160 C5.389,15.160 5.389,7.718 5.389,7.718 C5.389,7.718 8.366,7.718 8.366,7.718 C8.366,7.718 8.366,5.226 8.366,5.226 C8.366,5.226 5.389,5.226 5.389,5.226 C5.389,5.226 5.389,3.509 5.389,3.509 C5.389,3.262 5.450,3.054 5.573,2.886 C5.695,2.717 5.834,2.633 5.991,2.633 C5.991,2.633 8.366,2.633 8.366,2.633 C8.366,2.633 8.366,0.006 8.366,0.006 Z" id="path-1" class="cls-2" fill-rule="evenodd"/>
</svg>
