<svg xmlns="http://www.w3.org/2000/svg" xmlns:xlink="http://www.w3.org/1999/xlink" preserveAspectRatio="xMidYMid" width="16" height="13" viewBox="0 0 16 13">
	<path d="M13.584,1.992 C14.275,1.565 14.732,0.981 14.955,0.241 C14.286,0.600 13.617,0.847 12.948,0.981 C12.346,0.331 11.594,0.005 10.691,0.005 C9.787,0.005 9.029,0.314 8.416,0.931 C7.802,1.548 7.496,2.295 7.496,3.170 C7.496,3.440 7.529,3.675 7.596,3.877 C4.965,3.788 2.790,2.688 1.073,0.577 C0.783,1.094 0.639,1.621 0.639,2.160 C0.639,3.283 1.107,4.169 2.044,4.820 C1.508,4.776 1.040,4.641 0.639,4.416 C0.639,4.416 0.639,4.450 0.639,4.450 C0.639,5.213 0.873,5.887 1.341,6.470 C1.809,7.054 2.412,7.424 3.147,7.582 C2.880,7.649 2.607,7.683 2.328,7.683 C2.049,7.683 1.854,7.660 1.742,7.615 C1.943,8.266 2.311,8.794 2.846,9.198 C3.382,9.602 3.995,9.815 4.686,9.838 C3.549,10.736 2.244,11.185 0.772,11.185 C0.415,11.185 0.159,11.174 0.003,11.151 C1.453,12.094 3.069,12.565 4.853,12.565 C6.682,12.565 8.299,12.100 9.704,11.168 C11.109,10.236 12.146,9.097 12.815,7.750 C13.484,6.403 13.818,5.000 13.818,3.541 C13.818,3.541 13.818,3.137 13.818,3.137 C14.465,2.643 14.989,2.093 15.390,1.486 C14.810,1.734 14.208,1.902 13.584,1.992 C13.584,1.992 13.584,1.992 13.584,1.992 Z" id="path-1" class="cls-2" fill-rule="evenodd"/>
</svg>
