<svg xmlns="http://www.w3.org/2000/svg" xmlns:xlink="http://www.w3.org/1999/xlink" preserveAspectRatio="xMidYMid" width="20" height="13" viewBox="0 0 20 13">
	<path d="M18.153,7.435 C18.147,8.056 18.144,8.673 18.141,9.291 C17.538,9.291 16.937,9.291 16.334,9.291 C16.328,8.673 16.328,8.056 16.322,7.438 C15.719,7.432 15.112,7.426 14.509,7.420 C14.509,6.805 14.509,6.191 14.509,5.573 C15.112,5.567 15.716,5.564 16.322,5.561 C16.325,4.940 16.331,4.323 16.337,3.705 C16.937,3.705 17.538,3.705 18.141,3.705 C18.144,4.323 18.147,4.943 18.153,5.561 C18.756,5.567 19.363,5.567 19.966,5.573 C19.966,6.188 19.966,6.805 19.966,7.420 C19.363,7.426 18.759,7.429 18.153,7.435 ZM4.022,12.565 C1.540,11.596 -0.219,8.912 -0.010,6.175 C0.045,2.827 3.052,-0.105 6.323,0.006 C7.891,-0.068 9.364,0.630 10.565,1.611 C10.052,2.206 9.522,2.780 8.955,3.317 C7.512,2.296 5.459,2.005 4.016,3.184 C1.952,4.645 1.858,8.096 3.844,9.669 C5.775,11.463 9.425,10.572 9.958,7.826 C8.749,7.807 7.536,7.826 6.326,7.786 C6.323,7.047 6.320,6.309 6.323,5.570 C8.346,5.564 10.368,5.561 12.393,5.576 C12.514,7.314 12.290,9.164 11.247,10.600 C9.667,12.875 6.496,13.539 4.022,12.565 Z" id="path-1" class="cls-2" fill-rule="evenodd"/>
</svg>
