<svg version="1.1" id="Layer_1" xmlns="http://www.w3.org/2000/svg" xmlns:xlink="http://www.w3.org/1999/xlink" x="0px" y="0px"
	 width="520px" height="560px" viewBox="0 0 520 560" enable-background="new 0 0 520 560" xml:space="preserve">
<path d="M339.9,200.1v80h-20.1v-80h-40V320h60v80h40v-80h40v-40h-40v-80h-39.9V200.1z M498.4,196.1l-36.7,16
	c12.1,27.8,18.4,57.4,18.4,88c0,121.3-98.6,220.1-220.1,220.1S39.9,421.6,39.9,300.1S138.5,80,260,80v40l100-60L260,0v40
	C116.5,40,0,156.8,0,300s116.7,260,260,260c143.5,0,260-116.7,260-260C520,263.9,512.7,228.9,498.4,196.1L498.4,196.1z M239.9,320.2
	V200.3H119.9v40h80v40h-80v119.9h119.9v-40h-80v-40H239.9L239.9,320.2z"/>
</svg>