<svg xmlns="http://www.w3.org/2000/svg" viewBox="0 0 360 360"><path d="M55.6 276.7l18.8 4.1 2.2-10.1-18.8-4.1-2.2 10.1zm20.2-133.2l14.6 13.6 7-7.5L82.8 136l-7 7.5zm17.4 141.3l18.8 4.1 2.2-10.1-18.8-4.1-2.2 10.1zm36.6-126.1h-20V169h20v-10.3zm21.6-71.5h-18.9v10.3h18.9V87.2zm37.7 0h-18.9v10.3h18.9V87.2zM56.9 97.5h18.9V87.2H56.9v10.3zm-10.3 18.8l14.6 13.6 7-7.5-14.6-13.6-7 7.5zm67-29.1H94.7v10.3h18.9V87.2zm222.9 5.1c0-1.8-1-3.5-2.6-4.5L182.3.7c-1.6-.9-3.6-.9-5.2 0L27.8 87.2c-1.9.2-3.6 1.4-4.3 3.2-.4.9-.4 1.9-.3 2.8l.3 174.5c0 1.8 1 3.5 2.6 4.5l151.6 87.2c.8.5 1.7.7 2.6.7.9 0 1.8-.2 2.6-.7l151.3-87.7c1.6-.9 2.6-2.6 2.6-4.5l-.3-174.9zM180 31.4l26.4 127.3h-16.8V169h18.9l12.2 58.6h-81.5l12.2-58.6h18.3v-10.3h-16.1L180 31.4zM33.6 100.9l3.1-3.4H38v-1.4l.9-1-.9-.8v-1l134.8-78.2-44.4 213.7-94.6 30.5-.2-158.4zm146.7 248L39.8 268.1l93.9-30.2h92.5l93.6 30.1-139.5 80.9zm51.2-120.2L187.2 15.4l134.1 77.1v1.8l-.9.9.9 1v1.4h1.3l3.6 3.8.3 158-95-30.7zm30.4-79.2l7 7.5 14.6-13.6-7-7.5-14.6 13.6zM229.6 169h20v-10.3h-20V169zm61.6-46.7l7 7.5 14.6-13.6-7-7.5-14.6 13.6zM133 282.8l-2.2 10.1 15.9 3.4c.4.1.7.1 1.1.1h2.9v-10.3h-2.4l-15.3-3.3zm75-185.3h18.9V87.2H208v10.3zm94.5-10.3h-18.9v10.3h18.9V87.2zm1.3 189.5l-2.2-10.1-18.8 4.1 2.2 10.1 18.8-4.1zm-133.7 19.8h19.3v-10.3h-19.3v10.3zm38.5-10.3v10.3h2.9c.4 0 .7 0 1.1-.1l15.9-3.4-2.2-10.1-15.4 3.3h-2.3zm57.6-1.4l-2.2-10.1-18.8 4.1 2.2 10.1 18.8-4.1zm-1.5-197.6h-18.9v10.3h18.9V87.2z"/></svg>