<?xml version="1.0" encoding="utf-8"?>
<!-- Generator: Adobe Illustrator 18.1.1, SVG Export Plug-In . SVG Version: 6.00 Build 0)  -->
<svg version="1.1" id="Layer_1" xmlns="http://www.w3.org/2000/svg" xmlns:xlink="http://www.w3.org/1999/xlink" x="0px" y="0px"
	 viewBox="0 0 360 360" enable-background="new 0 0 360 360" xml:space="preserve">
<path d="M237,320.3c-1,0-1.9,0.4-2.7,1.2c-11.2,10.8-26.2,16.7-42.3,16.7c-12.7,0-24.8-3.7-35.1-10.7l-3.5-2.4l27.2-7.2
	c2.1-0.5,3.3-2.6,2.8-5c-0.4-1.8-2-2.9-3.9-2.9c-0.3,0-0.7,0-1.1,0.1l-33.9,9.2c-1.1,0.6-1.7,1.2-2.4,1.9l-0.2,0.2
	c-0.3,0.5-0.6,1.3-0.2,2.1l0.1,0.2l9.6,33.5c0.3,0.9,0.5,1.1,0.6,1.1l0.3,0.1l0.2,0.2c0.8,0.8,1.9,1.4,2.9,1.4h1.3
	c2-0.6,3.1-2.6,2.6-4.9l-6.4-21.6l4.3,2.6c10.6,6.4,22.8,9.7,35.2,9.7c0,0,0,0,0,0c17.8,0,34.6-6.8,47.3-19.1
	c0.7-0.7,1.2-1.7,1.2-2.7s-0.4-1.9-1.2-2.7C238.9,320.7,238,320.3,237,320.3z M113.2,157.3c-0.7-3.2-1.8-5.7-3.5-8.1l-2.2-3.1H127
	v-5.7H72.1v5.7h21.5c5.9,0,11.4,4,13.7,10.1l1,2.6H72.1v6.1h36l-0.8,2.5c-1.8,5.9-7.6,10.2-13.8,10.2H69.7l40.4,42.9l3.9-4.1
	l-31-33.4h11.3c9.3-0.4,17.1-7.3,18.9-16.9l0.3-1.6h13.9v-5.7h-13.8L113.2,157.3z M123,40.3c1,0,1.9-0.4,2.7-1.2
	c11.2-10.8,26.2-16.7,42.3-16.7c12.7,0,24.8,3.7,35.1,10.7l3.5,2.4l-27.2,7.2c-2.1,0.5-3.3,2.6-2.8,4.9c0.3,0.9,0.5,1.1,0.5,1.1
	l0.3,0.1l0.2,0.2c0.7,0.7,1.6,1,3.2,1h0.9l33.6-9.2c1.1-0.3,2-1.1,2.1-1.4l0-0.1l0.1-0.1c0.4-0.8,0.7-1.9,0.4-2.5l-0.1-0.2
	l-9.7-33.6c-0.4-1.8-2-2.9-3.9-2.9c-0.4,0-0.7,0-1,0.1c-2.1,0.5-3.3,2.6-2.8,4.9l6.9,22l-4.4-2.6c-10.6-6.4-22.8-9.7-35.2-9.7
	c-17.8,0-34.6,6.8-47.3,19.1c-0.7,0.7-1.2,1.7-1.2,2.7c0,1,0.4,1.9,1.2,2.7C121.1,39.9,122,40.3,123,40.3z M327.3,106.9
	c-19.7-19.8-45.8-30.7-73.5-30.7c-27.5,0-53.2,10.6-72.4,29.8l-1.3,1.3l-1.4-1.3c-19.7-19-45.4-29.4-72.4-29.4
	c-27.6,0-53.7,10.7-73.5,30.2C13,126.4,2.2,152.6,2.2,180.3c0,27.7,10.8,53.8,30.5,73.5c19.4,19.4,45.6,30.2,73.5,30.2
	c27.3,0,53-10.4,72.4-29.4l1.4-1.3l1.4,1.3c19.6,19.2,45.3,29.8,72.4,29.8c28,0,54.2-10.8,73.9-30.5c19.4-19.4,30.2-45.4,30.2-73.1
	C357.8,152.9,347,126.7,327.3,106.9z M173.7,249.3c-18,17.7-42,27.4-67.4,27.4c-25.8,0-50.1-10-68.2-28.2
	c-37.6-37.6-37.6-98.8,0-136.4c18.2-18.2,42.4-28.2,68.2-28.2c25.4,0,49.3,9.7,67.4,27.4l1.3,1.3l-1.1,1.4
	c-15.2,18.1-23.7,41.7-24.1,66.4c0,24.2,8.6,47.8,24.1,66.4l1.1,1.4L173.7,249.3z M254.1,276.7c-53.2,0-96.4-43.3-96.4-96.4
	c0-25.8,10-50,28.2-68.2c18.4-18.4,42.7-28.6,68.2-28.6c25.5,0,49.7,10.2,68.2,28.6c18.2,18.6,28.2,42.8,28.2,68.2
	C350.5,233.4,307.3,276.7,254.1,276.7z M286.9,203.1L286.9,203.1c-0.5-0.6-1.1-0.8-1.8-0.8c-0.6,0-1.2,0.2-1.5,0.5
	c-7,7-13.9,11.7-24.8,11.7c-12.5,0-24.1-7-30.1-18.3l-1.5-2.8h34c1.2,0,3.1-1.1,3.1-3.1c0-1.2-1.1-3.1-3.1-3.1h-35.8l-0.3-1.6
	c-0.1-0.3-0.1-0.6-0.2-0.9c-0.3-1.6-0.6-3-0.6-4.4v-4.6h36.5c1.2,0,3.1-1.1,3.1-3.1c0-1.2-1.1-3.1-3.1-3.1h-34.8l1.2-2.7
	c5.4-12.4,18-20.8,31.3-20.8c11.5,0,17.8,4.3,24.8,11.7c0.4,0.4,1.1,0.6,1.9,0.6s1.5-0.2,1.9-0.6c0.4-0.4,0.6-1.1,0.6-2.1
	c0-1-0.1-1.3-0.7-2.2c-6.4-6.3-14.8-12.7-29.2-12.7c-17.6,0-33,11.3-38.1,28.2l-0.4,1.4h-8.3c-1.2,0-3.1,1.1-3.1,3.1
	c0,1.2,1.1,3.1,3.1,3.1h7.3v1.9c0,0.6-0.1,1.1-0.2,1.5c-0.1,0.4-0.2,0.8-0.2,1.2c0,1.4,0,3.2,0.3,4.5l0.6,2.4h-7.4l-0.3-0.1
	c-0.3-0.1-0.6-0.2-0.8-0.2c-0.3,0-0.6,0.1-1,0.3c-0.6,0.4-1.1,1.3-1.1,2.2c0,1.2,1.1,3.1,3.1,3.1h8.6l0.5,1.2
	c5.9,15.6,20.6,25.6,37.4,25.6c13.8,0,22.6-6.5,29.4-12.9C288.1,206.2,288.1,204.3,286.9,203.1L286.9,203.1z"/>
</svg>
