<?xml version="1.0" encoding="utf-8"?>
<!-- Generator: Adobe Illustrator 18.1.1, SVG Export Plug-In . SVG Version: 6.00 Build 0)  -->
<svg version="1.1" id="Layer_1" xmlns="http://www.w3.org/2000/svg" xmlns:xlink="http://www.w3.org/1999/xlink" x="0px" y="0px"
	 viewBox="0 0 360 360" enable-background="new 0 0 360 360" xml:space="preserve">
<path d="M180,72c-35.6,0-64.6,29-64.6,64.6s29,64.6,64.6,64.6c35.5,0,64.5-28.9,64.6-64.5C244.6,101.1,215.6,72.1,180,72z
	 M238.9,136.8c-0.1,32.3-26.5,58.7-58.8,58.8l-1.5,0v0c-31.8-0.8-57.4-26.9-57.4-58.8c0-32.4,26.4-58.8,58.8-58.8h0
	c32.4,0,58.8,26.4,58.8,58.8V136.8z M357.7,323.2l-60.6-116.7l0.4-0.7c38.2-64.8,16.6-148.7-48.2-186.9c-21-12.4-45-19-69.2-19
	c-23.3,0-46.4,6-66.8,17.4c-21,11.7-38.6,28.9-50.9,49.8c-25.2,42.8-25.2,95.9,0,138.7l0.4,0.7L2.3,323c-0.7,1.4-0.2,3.1,1.2,3.9
	c0.4,0.2,0.9,0.3,1.3,0.3c0.3,0,0.6,0,0.9-0.1l49.5-15.4l22.2,46.7c0.5,1,1.4,1.6,2.5,1.6c1,0,2-0.6,2.5-1.5l52-93.3l1.2,0.4
	c14.4,5,29.4,7.5,44.7,7.5c15.2,0,30.3-2.5,44.7-7.5l1.2-0.4l51.8,93.3c0.5,0.9,1.4,1.5,2.5,1.5c1.1-0.1,2-0.7,2.4-1.7l22.2-46.7
	l49.3,15.5l0.1,0c0.3,0.1,0.7,0.2,1,0.2c0.8,0,1.6-0.4,2.1-0.9C358.1,325.5,358.3,324.3,357.7,323.2z M80,350.8L59.2,307
	c-0.5-1-1.5-1.6-2.6-1.6c-0.3,0-0.6,0-0.9,0.1l-45.1,14l55.8-107.3l1.4,2c14.9,21.5,35.5,38.2,59.6,48.3l1.5,0.6L80,350.8z
	 M180,267.4c-34.9,0-67.8-13.6-92.4-38.3c-24.7-24.7-38.3-57.5-38.3-92.4C49.3,64.5,107.9,5.9,180,5.9
	c72.1,0,130.7,58.6,130.7,130.7v0.1C310.6,208.7,252,267.3,180,267.4z M304.4,305.4c-0.3-0.1-0.6-0.1-0.9-0.1
	c-1.1,0-2.1,0.6-2.6,1.6l-20.8,43.9l-48.8-87.6l1.5-0.6c24-10.1,44.6-26.8,59.4-48.3l1.4-2l55.8,107.3L304.4,305.4z"/>
</svg>
