<?xml version="1.0" encoding="utf-8"?>
<!-- Generator: Adobe Illustrator 18.1.1, SVG Export Plug-In . SVG Version: 6.00 Build 0)  -->
<svg version="1.1" id="Layer_1" xmlns="http://www.w3.org/2000/svg" xmlns:xlink="http://www.w3.org/1999/xlink" x="0px" y="0px"
	 viewBox="0 0 360 360" enable-background="new 0 0 360 360" xml:space="preserve">
<path d="M122.8,278.2H87.9c-2.3,0-4.2,1.9-4.2,4.2s1.9,4.2,4.2,4.2h34.8c2.3,0,4.2-1.9,4.2-4.2S125.1,278.2,122.8,278.2z M190,278.2
	h-34.8c-2.3,0-4.2,1.9-4.2,4.2s1.9,4.2,4.2,4.2H190c2.3,0,4.2-1.9,4.2-4.2S192.3,278.2,190,278.2z M300.9,153
	c-5.9,0-11.7,1.8-16.7,5.2l-1,0.7l-1-0.7c-5-3.4-10.7-5.2-16.7-5.2c-16.4,0-29.8,13.4-29.8,29.8c0,16.4,13.4,29.8,29.8,29.8
	c6,0,11.8-1.8,16.7-5.2l1-0.7l1,0.7c5,3.4,10.7,5.2,16.7,5.2c16.5,0,29.8-13.4,29.8-29.8C330.7,166.4,317.3,153,300.9,153z
	 M265.4,204.2c-11.8,0-21.3-9.6-21.3-21.4c0-11.8,9.6-21.4,21.3-21.4c11.8,0,21.4,9.6,21.4,21.4
	C286.8,194.6,277.2,204.2,265.4,204.2z M300.9,204.2c-3.1,0-6.3-0.9-9.7-2.6l-1.8-0.9l1.1-1.7c3.1-4.9,4.8-10.4,4.8-16.1
	c0-5.7-1.7-11.2-4.8-16.1l-1.1-1.7l1.8-0.9c3.4-1.8,6.6-2.7,9.7-2.7h0c11.8,0,21.4,9.6,21.4,21.4
	C322.3,194.6,312.7,204.2,300.9,204.2z M324.1,127.2h-4.7l2-14.5c1.3-9.5-1.2-18.9-7-26.6c-5.8-7.7-14.2-12.6-23.7-13.9L57.1,40.4
	c-1.6-0.2-3.3-0.3-4.9-0.3c-7.9,0-15.4,2.5-21.7,7.3C22.9,53.3,18,61.7,16.7,71.1L0.3,190.9c-1.3,9.5,1.2,18.9,7,26.6
	c5.8,7.7,14.2,12.6,23.7,13.9l21.4,2.9V284c0,19.8,16.1,35.9,35.9,35.9h235.7c19.8,0,35.9-16.1,35.9-35.9V163.1
	C360,143.3,343.9,127.2,324.1,127.2z M52.4,163.1v62.6L32.2,223c-7.3-1-13.7-4.8-18.1-10.6c-4.5-5.9-6.4-13.1-5.4-20.3L25.1,72.3
	c1-7.2,4.7-13.7,10.6-18.1c4.8-3.7,10.6-5.6,16.5-5.6c1.3,0,2.5,0.1,3.8,0.3l233.5,31.9c7.2,1,13.7,4.8,18.1,10.6
	c4.5,5.9,6.4,13.1,5.4,20.3l-2.1,15.6H88.3C68.5,127.2,52.4,143.3,52.4,163.1z M351.5,284c0,15.1-12.3,27.4-27.4,27.4H88.3
	c-15.1,0-27.4-12.3-27.4-27.4V163.1c0-15.1,12.3-27.4,27.4-27.4h235.7c15.1,0,27.5,12.3,27.5,27.4V284z M324.5,278.2h-34.8
	c-2.3,0-4.2,1.9-4.2,4.2s1.9,4.2,4.2,4.2h34.8c2.3,0,4.2-1.9,4.2-4.2S326.8,278.2,324.5,278.2z M257.2,278.2h-34.8
	c-2.3,0-4.2,1.9-4.2,4.2s1.9,4.2,4.2,4.2h34.8c2.3,0,4.2-1.9,4.2-4.2S259.6,278.2,257.2,278.2z"/>
</svg>
