<?xml version="1.0" encoding="utf-8"?>
<!-- Generator: Adobe Illustrator 18.1.1, SVG Export Plug-In . SVG Version: 6.00 Build 0)  -->
<svg version="1.1" id="Layer_1" xmlns="http://www.w3.org/2000/svg" xmlns:xlink="http://www.w3.org/1999/xlink" x="0px" y="0px"
	 viewBox="0 0 360 360" enable-background="new 0 0 360 360" xml:space="preserve">
<path d="M252.4,120.3l19.5,19.5l-3.9,27.1c-0.4,2.3,1.1,4.4,3.4,4.8c0.9,0.2,1.8,0,2.6-0.4l23.3-11.6l23.3,11.6
	c2.1,1,4.6,0.2,5.6-1.8c0.4-0.8,0.5-1.7,0.4-2.6l-3.9-27.1l19.5-19.5c1.7-1.6,1.8-4.2,0.2-5.9c-0.7-0.7-1.6-1.2-2.5-1.3l-27.2-3.9
	l-11.5-23c-0.8-1.6-2.4-2.5-4.2-2.4c-0.1,0-0.3,0-0.4,0c-1.3,0.3-2.4,1.1-3,2.4l-11.5,23l-27.2,3.9c-2.3,0.3-3.9,2.4-3.6,4.7
	C251.2,118.7,251.7,119.6,252.4,120.3z M285.3,117.3c1.4-0.2,2.5-1.1,3.1-2.4l8.8-17.5l8.8,17.5c0.6,1.3,1.8,2.1,3.1,2.4l20.9,3
	l-14.9,14.9c-1,1-1.4,2.3-1.2,3.7l3,21.3l-17.9-9c-1.2-0.6-2.5-0.6-3.7,0l-17.9,9l3-21.3c0.2-1.3-0.2-2.7-1.2-3.7l-14.9-14.9
	L285.3,117.3z M18.1,162.1l19.5,19.5l-3.9,27.1c-0.4,2.3,1.1,4.4,3.4,4.8c0.9,0.2,1.8,0,2.6-0.4l23.3-11.6l23.3,11.6
	c2.1,1,4.6,0.2,5.6-1.8c0.4-0.8,0.5-1.7,0.4-2.6l-3.9-27.1l19.5-19.5c1.7-1.6,1.8-4.2,0.2-5.9c-0.7-0.7-1.6-1.2-2.5-1.3L78.2,151
	l-11.5-23c-0.8-1.6-2.4-2.5-4.2-2.4c-0.1,0-0.3,0-0.4,0c-1.3,0.3-2.4,1.1-3,2.4l-11.5,23l-27.2,3.9c-2.3,0.3-3.9,2.4-3.6,4.7
	C17,160.5,17.4,161.4,18.1,162.1z M51.1,159.1c1.4-0.2,2.5-1.1,3.1-2.4l8.8-17.5l8.8,17.5c0.6,1.3,1.8,2.1,3.1,2.4l20.9,3L80.9,177
	c-1,1-1.4,2.3-1.2,3.7l3,21.3l-17.9-9c-1.2-0.6-2.5-0.6-3.7,0l-17.9,9l3-21.3c0.2-1.3-0.2-2.7-1.2-3.7l-14.9-14.9L51.1,159.1z
	 M135.2,78.4l19.5,19.5l-3.9,27.1c-0.4,2.3,1.1,4.4,3.4,4.8c0.9,0.2,1.8,0,2.6-0.4l23.3-11.6l23.3,11.6c2.1,1,4.6,0.2,5.6-1.8
	c0.4-0.8,0.5-1.7,0.4-2.6l-3.9-27.1l19.5-19.5c1.7-1.6,1.8-4.2,0.2-5.9c-0.7-0.7-1.6-1.2-2.5-1.3l-27.2-3.9l-11.5-23
	c-0.8-1.6-2.4-2.5-4.2-2.4c-0.1,0-0.3,0-0.4,0c-1.3,0.3-2.4,1.1-3,2.4l-11.5,23l-27.2,3.9c-2.3,0.3-3.9,2.4-3.6,4.7
	C134.1,76.9,134.5,77.8,135.2,78.4z M168.2,75.4c1.4-0.2,2.5-1.1,3.1-2.4l8.8-17.5l8.8,17.5c0.6,1.3,1.8,2.1,3.1,2.4l20.9,3
	L198,93.3c-1,1-1.4,2.3-1.2,3.7l3,21.3l-17.9-9c-1.2-0.6-2.5-0.6-3.7,0l-17.9,9l3-21.3c0.2-1.3-0.2-2.7-1.2-3.7l-14.9-14.9
	L168.2,75.4z M355.9,309.7c0,0-0.1,0-0.1,0h-12.5V200.9c0-2.3-1.9-4.2-4.2-4.2h-83.7c-0.1,0-0.3,0-0.4,0c-2.2,0.2-3.8,2-3.8,4.2
	v108.8h-25.1V159.1c0.1-2.3-1.7-4.2-4-4.3c-0.2,0-0.4,0-0.5,0c-0.2,0-0.4,0.1-0.5,0.1c0,0,0,0,0,0h-24l0,0c0,0-0.1,0-0.1,0h-58.6
	c-0.1,0-0.3,0-0.4,0c-2.2,0.2-3.8,2-3.8,4.2v150.6H109v-66.9c0-2.3-1.9-4.2-4.2-4.2H21.1c-0.1,0-0.3,0-0.4,0c-2.2,0.2-3.8,2-3.8,4.2
	v66.9H4.4c-0.1,0-0.3,0-0.4,0c-2.3,0.1-4.1,2.1-4,4.4c0.1,2.3,2.1,4.1,4.4,4h351.4c2.3,0,4.2-1.8,4.2-4.1
	C360,311.6,358.2,309.7,355.9,309.7z M100.6,309.7H25.3v-62.7h75.3V309.7z M217.7,309.7h-75.3V163.3h75.3V309.7z M334.8,309.7h-75.3
	V205.1h75.3V309.7z"/>
</svg>
