<?xml version="1.0" encoding="utf-8"?>
<!-- Generator: Adobe Illustrator 18.1.1, SVG Export Plug-In . SVG Version: 6.00 Build 0)  -->
<svg version="1.1" id="Layer_1" xmlns="http://www.w3.org/2000/svg" xmlns:xlink="http://www.w3.org/1999/xlink" x="0px" y="0px"
	 viewBox="0 0 360 360" enable-background="new 0 0 360 360" xml:space="preserve">
<path d="M253.5,360c-19.3-1.1-38.2-4.2-56.7-9.6c-1.4-0.4-2.6-1.5-3.9-2.4c-34.8-23.3-62.3-53.8-86.1-87.9
	c-14.3-20.4-28.9-40.5-40.7-62.4c-14.3-26.6-25.9-54.2-32-83.8c-0.9-4.6-0.1-9.7,0.8-14.4c5.1-28,14.3-54.6,29.2-79.1
	c1.8-2.9,4.4-4.2,6.9-6c7.9-6,16.4-10.8,26.2-13c9.7-2.2,19.2-1.9,28.1,3.1c1.4,0.8,2.3,2.4,3.3,3.6c0.6,0.7,1,1.6,1.5,2.3
	c13.5,19.3,27,38.5,40.5,57.8c9.1,13,6.1,28-7.2,36.6c-9.4,6.1-18.8,12.2-28.2,18.3c-1.6,1-3.5,1.8-4.8,3.2c-0.8,0.8-1,2.4-1,3.7
	c-0.1,7.7,2.1,15,4.9,22c8.9,22,21.5,41.8,36,60.4c8.7,11.1,17.6,22.1,28.6,31.1c2.9,2.4,6.3,4.4,9.6,6.2c3.7,2,7.3-0.2,10.2-1.8
	c9.4-5.5,18.5-11.5,27.7-17.3c11.5-7.3,25.2-5.1,33,5.9c15.4,21.9,30.6,43.9,45.4,66.1c1.8,2.8,1.6,7.4,1.2,11.1
	c-1,9.8-5.5,18.3-12.4,25.2c-5.7,5.7-12,10.9-18.5,15.5c-3,2.1-7.3,2.7-11.1,3.1C273.9,358.4,263.7,359.1,253.5,360z M255.5,342.8
	c8-0.8,16.1-1.5,24.1-2.5c2.8-0.3,6.2-0.4,8.3-1.9c5.6-4,10.9-8.5,15.8-13.4c3.7-3.7,5.8-8.6,6.4-13.9c0.2-1.5-0.1-3.4-0.9-4.6
	c-14.1-20.4-28.3-40.6-42.6-60.9c-3.6-5.2-7.8-5.8-13.1-2.4c-8.5,5.6-16.9,11.3-25.3,16.9c-0.8,0.6-1.7,1.2-2.3,2
	c-2.4,3.2-5.7,4.7-9.6,5.2c-6.2,0.8-12.1-0.8-17.2-4.1c-6-4-12.1-8.2-17.1-13.3c-23.4-24-42.2-51.4-56.5-81.7
	c-3.9-8.3-7-17.1-8.8-26.1c-3.4-16.7-0.1-25.6,14.7-34.6c8-4.9,15.8-9.9,23.7-14.9c6.8-4.3,7.6-8.4,3.2-14.9
	c-13-19.3-26.1-38.6-39.1-58c-1.6-2.4-3.6-3.7-6.2-4.2c-2.2-0.4-4.5-0.6-6.8-0.4c-7.4,0.6-13.8,4.1-20.1,7.7
	c-5.4,3.1-9.3,7.3-12.3,12.7c-11.9,21.2-19.1,44-23.6,67.7c-0.7,3.8-1.3,7.5-0.3,11.6c4.3,16.4,9.9,32.3,16.8,47.7
	c16.6,37.1,38.5,70.9,63.7,102.7c20.2,25.5,42.4,48.9,69,67.8c1.4,1,3.1,1.8,4.7,2.2C220.9,339.9,238,342,255.5,342.8z"/>
</svg>
