<?xml version="1.0" encoding="utf-8"?>
<!-- Generator: Adobe Illustrator 18.1.1, SVG Export Plug-In . SVG Version: 6.00 Build 0)  -->
<svg version="1.1" id="Layer_1" xmlns="http://www.w3.org/2000/svg" xmlns:xlink="http://www.w3.org/1999/xlink" x="0px" y="0px"
	 viewBox="0 0 360 360" enable-background="new 0 0 360 360" xml:space="preserve">
<path d="M94.5,256.6H71.7c-1.8,0-3.2,1.5-3.2,3.2v22.8c0,1.8,1.5,3.2,3.2,3.2h22.8c1.8,0,3.2-1.5,3.2-3.2v-22.8
	C97.7,258,96.3,256.6,94.5,256.6z M91.2,279.4H74.9v-16.3h16.3V279.4z M94.5,302.2H71.7c-1.8,0-3.2,1.5-3.2,3.2v22.8
	c0,1.8,1.5,3.2,3.2,3.2h22.8c1.8,0,3.2-1.5,3.2-3.2v-22.8C97.7,303.6,96.3,302.2,94.5,302.2z M91.2,325H74.9v-16.3h16.3V325z
	 M68.4,240.3h29.3v-6.5H68.4V240.3z M341.9,200.5c-0.6-0.6-1.4-1-2.3-1s-1.7,0.3-2.3,1L229,308.8c-0.6,0.6-0.9,1.4-0.9,2.3v17.1
	c0,1.8,1.5,3.2,3.2,3.2h17.1c0.9,0,1.7-0.3,2.3-1L359,222.2c1.3-1.3,1.3-3.3,0-4.6L341.9,200.5z M247.1,325h-12.5v-12.5l105.1-105.1
	l12.5,12.5L247.1,325z M114,240.3h29.3v-6.5H114V240.3z M26.1,331.5h22.8c1.8,0,3.2-1.5,3.2-3.2v-22.8c0-1.8-1.5-3.2-3.2-3.2H26.1
	c-1.8,0-3.2,1.5-3.2,3.2v22.8C22.8,330,24.3,331.5,26.1,331.5z M29.3,308.7h16.3V325H29.3V308.7z M26.1,285.9h22.8
	c1.8,0,3.2-1.5,3.2-3.2v-22.8c0-1.8-1.5-3.2-3.2-3.2H26.1c-1.8,0-3.2,1.5-3.2,3.2v22.8C22.8,284.4,24.3,285.9,26.1,285.9z
	 M29.3,263.1h16.3v16.3H29.3V263.1z M333.9,0H100.2C85.8,0,74.1,11.7,74.1,26.1v88H26.1c-8.1,0-14.7,6.6-14.7,14.7v19.6H3.2
	c-1.8,0-3.2,1.5-3.2,3.2v182.5C0,348.3,11.7,360,26.1,360h159.6c14.4,0,26.1-11.7,26.1-26.1V183.2h122.2c14.4,0,26.1-11.7,26.1-26.1
	V26.1C360,11.7,348.3,0,333.9,0z M17.9,128.7c0-4.5,3.7-8.2,8.2-8.2h51.3c4.5,0,8.2,3.7,8.2,8.2v19.6H17.9V128.7z M205.3,333.9
	c0,8.2-5.2,15.6-13,18.4l-0.3,0.1l-11.8,1.1H26.1c-10.8,0-19.6-8.8-19.6-19.6V154.7h198.8V333.9z M353.5,157.2
	c0,10.8-8.8,19.6-19.6,19.6H211.8v-25.3c0-1.8-1.5-3.2-3.2-3.2H92v-19.6c0-6.1-3.9-11.7-9.8-13.7l-1.6-0.6V80.6h272.9V157.2z
	 M353.5,74.1H80.6V46.4h272.9V74.1z M353.5,39.9H80.6V26.1c0-10.8,8.8-19.6,19.6-19.6h233.8c10.8,0,19.6,8.8,19.6,19.6V39.9z
	 M52.1,233.8H22.8v6.5h29.3V233.8z M140.1,256.6h-22.8c-1.8,0-3.2,1.5-3.2,3.2v22.8c0,1.8,1.5,3.2,3.2,3.2h22.8
	c1.8,0,3.2-1.5,3.2-3.2v-22.8C143.3,258,141.9,256.6,140.1,256.6z M136.8,279.4h-16.3v-16.3h16.3V279.4z M140.1,302.2h-22.8
	c-1.8,0-3.2,1.5-3.2,3.2v22.8c0,1.8,1.5,3.2,3.2,3.2h22.8c1.8,0,3.2-1.5,3.2-3.2v-22.8C143.3,303.6,141.9,302.2,140.1,302.2z
	 M136.8,325h-16.3v-16.3h16.3V325z M26.1,211.8h114c1.8,0,3.2-1.5,3.2-3.2v-34.2c0-1.8-1.5-3.2-3.2-3.2h-114c-1.8,0-3.2,1.5-3.2,3.2
	v34.2C22.8,210.3,24.3,211.8,26.1,211.8z M29.3,177.5h107.5v27.7H29.3V177.5z"/>
</svg>
