<?xml version="1.0" encoding="utf-8"?>
<!-- Generator: Adobe Illustrator 18.1.1, SVG Export Plug-In . SVG Version: 6.00 Build 0)  -->
<svg version="1.1" id="Layer_1" xmlns="http://www.w3.org/2000/svg" xmlns:xlink="http://www.w3.org/1999/xlink" x="0px" y="0px"
	 viewBox="0 0 360 360" enable-background="new 0 0 360 360" xml:space="preserve">
<path d="M184.8,23.5c-0.6,0-1.3,0.2-1.8,0.6l-14.9,11.4c-0.5,0.4-0.9,1-1.1,1.6l-2.7,9.8l-14.3-3.3c-0.7-0.2-1.4-0.1-2.1,0.3
	L130.3,53c-0.8,0.4-1.3,1.1-1.5,1.9l-5.1,20c-0.4,1.5,0.4,3,1.8,3.5l7.4,3L99.7,104c-0.6,0.4-1,1.1-1.2,1.8L91,136.7
	c-0.2,0.8,0,1.7,0.4,2.4l4.9,7.4l-4.3,2l-3.7-5.4c-0.9-1.4-2.8-1.7-4.2-0.7c0,0-0.1,0-0.1,0.1l-24.4,18.3L15.4,163
	c-1.7,0.1-2.9,1.5-2.8,3.1c0,0.2,0,0.4,0.1,0.7l13.6,48.7l-1,30.8l-13,1.9c-1,0.1-1.9,0.8-2.3,1.8l-9.7,22.3
	c-0.6,1.4-0.1,2.9,1.2,3.7l16.4,10.3l-5.7,20.1c-0.4,1.5,0.4,3.2,1.9,3.7l8.6,2.9c0.2,0.1,0.5,0.1,0.7,0.1l16,1.1
	c1.4,0.1,2.7-0.8,3.1-2.1l4.6-14.8l26.2-4.7l76.3,15.8l20.9,9c0.7,0.3,1.4,0.3,2.1,0.1l16.3-5.3l15.4,11.1c1,0.7,2.2,0.8,3.3,0.2
	l14.6-8.5l5.1,13.8c0.6,1.6,2.3,2.4,3.8,1.8c0.1,0,0.2-0.1,0.3-0.2l13.7-7.1l15.1-0.5l11.1,12.7c0.7,0.8,1.9,1.2,2.9,0.9l7.4-1.7
	c1.6-0.4,2.6-2,2.2-3.6c0-0.2-0.1-0.4-0.2-0.5l-6.9-15.8l15.1-27.6l30.4-2.7c1.6-0.1,2.9-1.6,2.7-3.3c0-0.1,0-0.3-0.1-0.4
	l-10.3-44.6c-0.1-0.4-0.3-0.8-0.5-1.1l-6.4-8.4l4.4-10.8l13.7,7.1c0.4,0.2,0.9,0.3,1.4,0.3h10.3c0.7,0,1.5-0.3,2-0.8l12-10.9
	c0.2-0.2,0.4-0.4,0.5-0.6l7.4-12c0.8-1.2,0.5-2.9-0.6-3.8l-8.7-7.7v-7.2c0-1-0.5-1.9-1.3-2.4l-9.7-6.9c-0.9-0.6-2.1-0.7-3.1-0.2
	l-6.8,3.4l-5.9-2.4l3.7-11.1c0.4-1.3,0-2.6-1.1-3.4l-18.1-12.6l-3.7-11.1c-0.2-0.7-0.7-1.3-1.4-1.7l-3.2-1.8l1.8-7.5
	c0.3-1.2-0.2-2.5-1.2-3.2l-12.1-8.3l5.7-11.4c0.2-0.5,0.4-1,0.3-1.6l-2.9-33.2c-0.1-0.7-0.4-1.4-0.9-1.9l-21.7-20.6
	c-0.8-0.8-1.9-1-3-0.7l-26.8,8.8l-3.7-2l-0.5-10.9c-0.1-1.1-0.7-2.1-1.8-2.6L221.5,30c-1.2-0.5-2.6-0.2-3.4,0.7l-4.6,5l-12.7-8.3
	c-1-0.6-2.2-0.6-3.2-0.1l-3.9,2.4l-7-5.6C186.2,23.7,185.5,23.4,184.8,23.5L184.8,23.5z M184.8,30.3l6.7,5.4c1,0.8,2.3,0.9,3.4,0.2
	l4.1-2.5l13.3,8.7c1.2,0.8,2.9,0.6,3.8-0.5l4.8-5.3l7.8,3.5l0.5,10.7c0,1,0.6,2,1.6,2.5l6.3,3.4c0.7,0.4,1.6,0.5,2.4,0.2l26.3-8.6
	l19.6,18.6l2.7,31.2l-6.5,13c-0.7,1.3-0.2,3,1,3.8l12.6,8.6l-1.8,7.7c-0.3,1.3,0.3,2.7,1.5,3.3l4.1,2.3l3.6,10.9
	c0.2,0.6,0.6,1.1,1.1,1.5l17,11.9l-3.9,11.6c-0.5,1.5,0.2,3.1,1.7,3.7l9.7,4c0.8,0.3,1.7,0.3,2.5-0.1l6.4-3.2l7,4.9v7
	c0,0.9,0.4,1.7,1,2.3l7.8,6.9l-5.9,9.5l-10.8,9.8H328l-15.9-8.2c-1.5-0.8-3.3-0.2-4,1.3c0,0.1-0.1,0.2-0.1,0.2l-6.3,15.4
	c-0.4,1-0.3,2.1,0.4,3l7,9.2l9.4,40.6l-28.6,2.6c-1,0.1-1.9,0.7-2.4,1.5l-16.6,30.3c-0.4,0.8-0.5,1.8-0.1,2.6l6,13.9l-2.2,0.5
	l-10.8-12.4c-0.6-0.7-1.5-1.1-2.4-1l-17.2,0.6c-0.5,0-0.9,0.1-1.3,0.3l-11.3,5.9l-5.1-14c-0.6-1.6-2.3-2.3-3.8-1.8
	c-0.2,0.1-0.3,0.1-0.5,0.2l-16,9.3l-15-10.9c-0.8-0.6-1.8-0.7-2.7-0.4l-16.7,5.4l-20.1-8.7c-0.2-0.1-0.4-0.1-0.6-0.2l-77.2-16
	c-0.4-0.1-0.8-0.1-1.1,0l-28.6,5.1c-1.1,0.2-2,1-2.3,2.1l-4.4,14.3l-13.3-0.9l-5.5-1.8l5.5-19.6c0.4-1.3-0.2-2.6-1.3-3.4L6.8,272.4
	l8-18.4l13.8-2c1.4-0.2,2.5-1.4,2.6-2.9l1.1-33.7c0-0.3,0-0.6-0.1-0.9l-12.7-45.6l41.4-2.1c0.6,0,1.2-0.2,1.6-0.6l22.7-17l3.4,4.9
	c0.8,1.2,2.4,1.6,3.7,1l9.7-4.6c1.5-0.7,2.1-2.5,1.4-4c-0.1-0.1-0.1-0.3-0.2-0.4l-6.1-9.2l6.9-28.5l36.8-25.1
	c1.4-0.9,1.7-2.8,0.8-4.2c-0.3-0.5-0.8-0.9-1.3-1.1l-10.2-4.2l4.2-16.2l15.6-8l16.1,3.8c1.6,0.4,3.1-0.6,3.6-2.1l3.2-11.6
	L184.8,30.3L184.8,30.3z"/>
</svg>
