<?xml version="1.0" encoding="utf-8"?>
<!-- Generator: Adobe Illustrator 18.1.1, SVG Export Plug-In . SVG Version: 6.00 Build 0)  -->
<svg version="1.1" id="Layer_1" xmlns="http://www.w3.org/2000/svg" xmlns:xlink="http://www.w3.org/1999/xlink" x="0px" y="0px"
	 viewBox="0 0 360 360" enable-background="new 0 0 360 360" xml:space="preserve">
<path d="M115.8,108.1c0,1.6,0.3,2.4,1.3,3.5l0.3,0.3l0.2,0.3c0.3,0.4,1.3,0.8,3,0.8c1.7,0,2.7-0.4,3-0.8l0.2-0.3l13.6-12.8
	l13.1,12.3c1.5,1,2.6,1.6,3.8,1.6c1.1,0,2.1-0.6,3.5-1.5c1.5-2.1,1.5-5.2,0-6.8l-12.9-12.2l12.7-11.9c1-1.5,1.6-2.5,1.6-3.7
	c0-1.6-0.3-2.4-1.3-3.5l-0.3-0.3l-0.2-0.3c-0.3-0.4-1.3-0.8-3-0.8s-2.7,0.4-3,0.8l-0.2,0.3L137.4,86L124,73.4c-1-1-1.9-1.3-3.5-1.3
	c-1.2,0-2.2,0.6-3.7,1.6c-0.8,0.9-1.1,1.7-1.1,3.2c0,1.2,0.6,2.2,1.6,3.7L130,92.5l-12.9,12.2C116.1,105.7,115.8,106.5,115.8,108.1z
	 M241.1,174.8c0-1.6-0.3-2.4-1.3-3.5l-0.3-0.3l-0.2-0.3c-0.3-0.4-1.3-0.8-3-0.8s-2.7,0.4-3,0.8l-0.2,0.3L219.5,184l-13.4-12.6
	c-1-1-1.9-1.3-3.5-1.3c-1.2,0-2.2,0.6-3.7,1.6c-0.8,0.9-1.1,1.7-1.1,3.2c0,1.2,0.6,2.2,1.6,3.7l12.7,11.9l-12.9,12.2
	c-1,1-1.3,1.8-1.3,3.4c0,1.6,0.3,2.4,1.3,3.5l0.3,0.3l0.2,0.3c0.3,0.4,1.3,0.8,3,0.8c1.7,0,2.7-0.4,3-0.8l0.2-0.3l13.6-12.8
	l13.1,12.3c1.5,1,2.6,1.6,3.8,1.6c1.1,0,2.1-0.6,3.5-1.5c1.5-2.1,1.5-5.2,0-6.8l-12.9-12.2l12.7-11.9
	C240.5,177,241.1,176,241.1,174.8z M131.3,213.6c10.7,0,19.4-8.7,19.4-19.4c0-8.2-5.4-15.7-13.2-18.2l-0.6-0.2l0.1-0.6
	c2.2-17.7,17.1-31.1,34.6-31.1h16.7c25.4,0,46-20.6,46-46v-3.5l6.4,6.4c1.1,1.1,2.1,1.5,3.8,1.5c1.6,0,2.7-0.4,3.8-1.5
	c1.1-1.1,1.5-2.1,1.5-3.7c-0.4-1.5-1.2-2.7-2-3.9L232.4,78c-0.9-0.9-2.2-1.4-3.6-1.4c-1.5,0-2.9,0.5-4,1.4l-16.7,15.4
	c-1.2,1.2-1.6,2.4-2,4c-0.3,1.2,0.1,2.2,1.5,3.6l0.1,0.1l0,0.1c0.8,1.2,2.7,1.4,3.7,1.4s2.9-0.2,3.7-1.4l0-0.1l8.1-7.6v5.1
	c0,19.3-15.7,35-35,35h-16.7c-23.5,0-43.5,18.2-45.6,41.4l0,0.5l-0.5,0.1c-8.2,2.4-13.6,9.9-13.6,18.6
	C111.9,204.9,120.6,213.6,131.3,213.6z M130.5,186.1c4.9,0,8.9,4,8.9,8.9c-0.5,5.1-4.2,8.8-8.9,8.8c-4.9,0-8.9-4-8.9-8.9
	C121.6,190.1,125.6,186.1,130.5,186.1z M354.3,25.5H185.9V12.8c0-3.1-2.6-5.7-5.7-5.7c-3.1,0-5.7,2.6-5.7,5.7v12.7H5.7
	c-3.1,0-5.7,2.6-5.7,5.7v222.1c0,3.1,2.6,5.7,5.7,5.7h121.6L79,344.3c-1.4,2.9-0.6,6.4,1.9,7.7l0.1,0.1l0.1,0.1
	c0.8,0.5,2,0.8,2.7,0.8c1.9,0,3.9-1.1,4.7-2.7l0-0.1l51.9-91.1h33.7v75.3c0,3.1,2.6,5.7,5.7,5.7c3.1,0,5.7-2.6,5.7-5.7V259h34.1
	l51.8,91c0.8,1.1,2.4,2.9,4.8,2.9c0.7,0,1.9-0.3,2.7-0.8l0.1-0.1l0.2-0.1c1.3-0.6,2.2-1.8,2.5-3.2c0.4-1.5,0.2-3-0.7-4.2l-0.1-0.1
	L232.7,259h121.6c3.1,0,5.7-2.6,5.7-5.7V31.2C360,28.1,357.4,25.5,354.3,25.5z M348.6,247.6H11.4V36.9h337.2V247.6z"/>
</svg>
