<?xml version="1.0" encoding="utf-8"?>
<!-- Generator: Adobe Illustrator 18.1.1, SVG Export Plug-In . SVG Version: 6.00 Build 0)  -->
<svg version="1.1" id="Layer_1" xmlns="http://www.w3.org/2000/svg" xmlns:xlink="http://www.w3.org/1999/xlink" x="0px" y="0px"
	 viewBox="0 0 360 360" enable-background="new 0 0 360 360" xml:space="preserve">
<path d="M206.3,254.7c0,1.9,1.1,3,3,3h118.9c1.9,0,3-1.1,3-3c0-1.4-1.6-3-3-3H209.3
	C207.4,251.7,206.3,252.8,206.3,254.7z M271.3,221.7c1.9,0,3-1.1,3-3v-10.5c0-11.3-7.8-21-19.1-23.5l-4.1-0.9l2.8-3.2
	c2.7-3.1,6-8.2,6-14.4c0-11.4-9.3-20.7-20.7-20.7c-11.4,0-20.7,9.3-20.7,20.7c0,5.2,2.3,10.6,5.9,14.3l3.4,3.4l-4.7,0.9
	c-11.3,2.1-19.5,11.9-19.5,23.5v10.5c0,1.9,1.1,3,3,3H271.3z M224.5,166.7c0-8,6.7-14.7,14.7-14.7c8,0,14.7,6.7,14.7,14.7
	c0,8-6.7,14.7-14.7,14.7C231.2,181.4,224.5,174.7,224.5,166.7z M209.6,208.8c0-9.9,8.1-18,18-18h23.2c9.9,0,18,8.1,18,18v7h-58.7
	v-4.4h-0.6V208.8z M328.2,285.4H209.3c-1.9,0-3,1.1-3,3c0,1.9,1.1,3,3,3h118.9c1.9,0,3-1.1,3-3C331.2,286.6,329.7,285.4,328.2,285.4
	z M359.1,187.9L298.8,127c-0.6-0.6-1.6-0.9-2.1-0.9h-39V62.2c0-7.1-5.8-13-13-13h-62.8v-6.4c0-11.4-4.5-22.1-12.6-30.2
	C161.2,4.5,150.4,0,139.1,0h-19.9c-11.4,0-22.1,4.5-30.2,12.6S76.3,31.5,76.3,42.8v6.4H13c-6.9,0-13,6.1-13,13v67.5
	c0,4,2.2,8.3,5.6,10.7l1.1,0.8v101.4c0,8.4,7.1,15.7,15.2,15.7H177V357c0,1.9,1.1,3,3,3h177c1.9,0,3-1.1,3-3V190
	C360,189.5,359.7,188.5,359.1,187.9z M299.7,136.2l50.1,50.7h-50.1V136.2z M81.8,42.8C81.8,22.5,98.3,6,118.6,6h19.9
	c20.3,0,36.8,16.5,36.8,36.8v6.4H81.8V42.8z M177,252.2H19.3v-0.9c-3.9-1.1-6.6-4.8-6.6-9.4v-99.4l95.8,22.8v28.5
	c0,9.9,8,17.9,17.9,17.9h7.2c9.9,0,17.9-8,17.9-17.9v-28.5l25.5-6.2V252.2z M114.4,193.8v-43.5h31.1v43.5c0,6.7-5.2,11.9-11.9,11.9
	h-7.2C120,205.8,114.4,200.2,114.4,193.8z M177,129.1v23.6l-25.5,6.2v-11.5c0-1.9-1.1-3-3-3h-37.1c-1.9,0-3,1.1-3,3v11.5l-94.6-22.2
	c-1,0-1.9-0.1-3.1-0.6c-2.8-0.4-4.6-3.5-4.6-6.3V62.2c0-4.4,3.5-7,7-7h231.8c3.6,0,7,3.3,7,7v63.9H180
	C178.1,126.1,177,127.2,177,129.1z M354,354H183V132.1h110.1V190c0,1.9,1.1,3,3,3H354V354z M328.2,318.6H209.3c-1.9,0-3,1.1-3,3
	c0,1.9,1.1,3,3,3h118.9c1.9,0,3-1.1,3-3C331.2,319.7,329.7,318.6,328.2,318.6z"/>
</svg>
