<?xml version="1.0" encoding="utf-8"?>
<!-- Generator: Adobe Illustrator 18.1.1, SVG Export Plug-In . SVG Version: 6.00 Build 0)  -->
<svg version="1.1" id="Layer_1" xmlns="http://www.w3.org/2000/svg" xmlns:xlink="http://www.w3.org/1999/xlink" x="0px" y="0px"
	 viewBox="0 0 360 360" enable-background="new 0 0 360 360" xml:space="preserve">
<path d="M118.9,105.1h-6.8v19.3h6.8V105.1z M53.4,47.9h-6.8v19.3h6.8V47.9z M53.4,162.4h-6.8v19.3h6.8V162.4z M86.2,162.4h-6.8v19.3
	h6.8V162.4z M53.4,105.1h-6.8v19.3h6.8V105.1z M118.9,47.9h-6.8v19.3h6.8V47.9z M118.9,162.4h-6.8v19.3h6.8V162.4z M86.2,47.9h-6.8
	v19.3h6.8V47.9z M86.2,105.1h-6.8v19.3h6.8V105.1z M286.1,235.5h-6.8v19.3h6.8V235.5z M253.4,178.3h-6.8v19.3h6.8V178.3z
	 M253.4,235.5h-6.8v19.3h6.8V235.5z M286.1,292.8h-6.8v19.3h6.8V292.8z M253.4,292.8h-6.8v19.3h6.8V292.8z M349.4,342.4V144.6
	c0-1.9-1.5-3.4-3.4-3.4H218.4c-1.9,0-3.4,1.5-3.4,3.4v197.7h-91.3v-28.7c12.9-1.7,22.8-12.7,22.8-26c0-14.5-11.8-26.2-26.2-26.2
	c-14.5,0-26.2,11.8-26.2,26.2c0,13.3,10,24.3,22.8,26v28.7H0v6.8h360v-6.8H349.4z M100.9,287.6c0-10.7,8.7-19.4,19.4-19.4
	s19.4,8.7,19.4,19.4c0,10.7-8.7,19.4-19.4,19.4S100.9,298.3,100.9,287.6z M342.6,342.4H221.8V148h120.8V342.4z M286.1,178.3h-6.8
	v19.3h6.8V178.3z M318.8,235.5H312v19.3h6.8V235.5z M160.1,212h-10.6V14.2c0-1.9-1.5-3.4-3.4-3.4H18.5c-1.9,0-3.4,1.5-3.4,3.4V212
	H1.2v6.8h158.9V212z M142.6,212H21.9V17.6h120.8V212z M318.8,178.3H312v19.3h6.8V178.3z M318.8,292.8H312v19.3h6.8V292.8z"/>
</svg>
