<svg xmlns="http://www.w3.org/2000/svg" viewBox="0 0 360 360"><path d="M189.9 275.4h-34.5c-3.3 0-6 2.7-6 6s2.7 6 6 6h34.5c3.3 0 6-2.7 6-6 0-3.4-2.7-6-6-6zm-66.6 0H88.9c-3.3 0-6 2.7-6 6s2.7 6 6 6h34.5c3.3 0 6-2.7 6-6s-2.8-6-6.1-6zm133.2 0H222c-3.3 0-6 2.7-6 6s2.7 6 6 6h34.5c3.3 0 6-2.7 6-6 0-3.4-2.7-6-6-6zm66.1-149.5h-2.5l1.7-12.3c1.4-9.9-1.2-19.7-7.3-27.6-6-8-14.8-13.1-24.7-14.4L58.6 40c-10-1.3-19.7 1.3-27.6 7.3-8 6-13.1 14.8-14.4 24.7L.3 190.6c-1.4 9.8 1.2 19.7 7.3 27.6 6 8 14.8 13.1 24.7 14.4l19.6 2.7V283c0 20.6 16.8 37.4 37.4 37.4h233.4c20.6 0 37.4-16.7 37.4-37.4V163.3c-.1-20.6-16.9-37.4-37.5-37.4zM51.9 163.3v59.9l-18-2.5c-6.7-.9-12.6-4.4-16.7-9.8s-5.9-12.1-5-18.7L28.4 73.6c.9-6.7 4.4-12.6 9.8-16.7s12-5.9 18.7-5l231.2 31.6c6.7.9 12.6 4.4 16.7 9.8s5.9 12.1 5 18.8l-1.9 13.9H89.3c-20.6-.1-37.4 16.7-37.4 37.3zM348 283c0 14-11.4 25.3-25.3 25.3H89.3c-14 0-25.3-11.4-25.3-25.3V163.3c0-14 11.4-25.3 25.3-25.3h233.4c14 0 25.4 11.4 25.4 25.3V283zm-48.3-131.5c-6.3 0-12.4 1.9-17.5 5.4-5-3.4-11.1-5.4-17.6-5.4-17.3 0-31.3 14.1-31.3 31.3s14.1 31.3 31.3 31.3c6.5 0 12.6-2 17.6-5.4 5.1 3.5 11.2 5.4 17.5 5.4 17.3 0 31.3-14.1 31.3-31.3s-14.1-31.3-31.3-31.3zm-35.1 50.6c-10.7 0-19.3-8.7-19.3-19.3s8.7-19.3 19.3-19.3c10.7 0 19.3 8.7 19.3 19.3s-8.7 19.3-19.3 19.3zm35.1 0c-3.2 0-6.1-1-8.8-2.4 3.2-4.9 5-10.7 5-16.9s-1.9-12-5-16.9c2.7-1.4 5.7-2.4 8.8-2.4 10.7 0 19.3 8.7 19.3 19.3s-8.7 19.3-19.3 19.3zm23.3 73.3h-34.5c-3.3 0-6 2.7-6 6s2.7 6 6 6H323c3.3 0 6-2.7 6-6s-2.7-6-6-6z"/></svg>