<svg xmlns="http://www.w3.org/2000/svg" viewBox="0 0 16 16"><path d="M5.091,16a5.091,5.091,0,1,1,.79-10.119,4.99,4.99,0,0,1-.062-.79,5.091,5.091,0,1,1,5.091,5.091,5.023,5.023,0,0,1-.79-.062,4.99,4.99,0,0,1,.062.79A5.1,5.1,0,0,1,5.091,16Zm0-9.049a3.958,3.958,0,1,0,3.958,3.958,3.877,3.877,0,0,0-.17-1.146A5.126,5.126,0,0,1,6.237,7.12,3.877,3.877,0,0,0,5.091,6.951Zm5.818-5.818A3.96,3.96,0,0,0,7.155,6.348c.014.038.024.073.038.111L7.2,6.48a.9.9,0,0,0,.035.087l.014.035c.01.028.024.055.035.08l.01.028c.017.035.031.069.048.1l.01.021.042.083c.007.01.01.021.017.031s.028.052.042.076l.014.028c.017.031.038.066.059.1l.01.017c.017.028.035.052.048.08A4.03,4.03,0,0,0,8.752,8.412c.028.017.052.035.08.048l.017.01c.031.021.066.038.1.059l.024.014.076.042.031.017.083.042.021.01c.035.017.069.031.1.048l.028.01c.028.01.052.024.08.035l.035.014.087.035.021.007c.038.014.073.028.111.038a3.957,3.957,0,1,0,1.264-7.709Zm-5.69,12.5a2.6,2.6,0,0,1-2.414-1.513H1.939V10.989h.61v-.163h-.61V9.7h.88A2.6,2.6,0,0,1,5.205,8.235a2.688,2.688,0,0,1,1.908.7l.132.139-.6.9-.208-.2a1.947,1.947,0,0,0-1.209-.454,1.486,1.486,0,0,0-1.015.371H5.655v1.132H3.719V10.9a.783.783,0,0,0,0,.09H5.659v1.132H4.2a1.457,1.457,0,0,0,1.039.416A1.906,1.906,0,0,0,6.532,12l.2-.215.648.869-.128.149A2.8,2.8,0,0,1,5.219,13.635Zm5.126-5.392V7.595a2.263,2.263,0,0,1-1.1-.61l-.135-.149.648-.866.2.2a1.556,1.556,0,0,0,.984.416c.249,0,.54-.111.54-.426,0-.274-.308-.423-.807-.641C10.054,5.25,9.285,4.914,9.285,4a1.488,1.488,0,0,1,1.06-1.4V1.939h1.132v.606a1.974,1.974,0,0,1,.97.481l.125.128-.526.956L11.816,3.9a1.365,1.365,0,0,0-.828-.326c-.326,0-.578.184-.578.419s.291.377.765.575c.6.253,1.43.6,1.43,1.579a1.485,1.485,0,0,1-1.126,1.448v.651Z"/></svg>