<svg class="svg" height="6.1433mm" style="shape-rendering:geometricPrecision; text-rendering:geometricPrecision; image-rendering:optimizeQuality; fill-rule:evenodd; clip-rule:evenodd" version="1.1" viewBox="0 0 278 212" width="8.0433mm" xml:space="preserve" xmlns="http://www.w3.org/2000/svg" xmlns:xlink="http://www.w3.org/1999/xlink"><path class="fil0" d="M94 118c-8,-7 -18,-12 -29,-12 -12,0 -22,5 -29,12 -6,5 -9,12 -11,20l0 0c-1,3 -1,6 -1,9 0,12 4,22 12,29 7,8 17,13 29,13 11,0 21,-5 29,-13 7,-7 12,-17 12,-29 0,-11 -5,-21 -12,-29zm148 0c-7,-7 -18,-12 -29,-12 -11,0 -22,5 -29,12 -8,8 -12,18 -12,29 0,12 4,22 12,29 7,8 18,13 29,13 11,0 22,-5 29,-13 7,-7 12,-17 12,-29 0,-11 -5,-21 -12,-29zm-177 -35c17,0 33,6 45,18 19,12 39,12 58,-1 12,-11 28,-17 45,-17 15,0 29,5 40,14l0 -63c0,-2 -1,-5 -3,-7l-1 -1c-1,-1 -3,-2 -4,-2l-36 0c-7,0 -12,-6 -12,-12 0,-7 5,-12 12,-12l36 0c8,0 15,4 21,10 1,0 1,1 1,1 6,6 10,15 10,23l0 101c0,1 0,1 0,1 0,4 1,8 1,11 0,18 -8,34 -19,46 -12,12 -28,19 -46,19 -18,0 -34,-7 -46,-19 -11,-11 -18,-25 -19,-42l0 0 0 0c0,-1 0,-2 0,-4l0 -1c-2,-10 -17,-11 -18,3 -1,17 -8,33 -19,44 -12,12 -28,19 -46,19 -18,0 -34,-7 -46,-19 -12,-12 -19,-28 -19,-46 0,-4 0,-9 1,-13l0 -100c0,-8 4,-17 10,-23 0,0 1,-1 1,-1 6,-6 14,-10 22,-10l35 0c7,0 12,5 12,12 0,6 -5,12 -12,12l-35 0c-2,0 -3,1 -5,2l0 1c-3,2 -4,5 -4,7l0 62c11,-8 25,-13 40,-13z"></path></svg>