<svg xmlns="http://www.w3.org/2000/svg" viewBox="0 0 360 360"><path d="M309.1 157.4c-7.5-3-15.6-4.9-24-5.5V61.7c0-8.6-7-15.6-15.6-15.6H38.2c-8.6 0-15.6 7-15.6 15.6v166.2c0 1 .1 2 .3 3H6.3c-1.9 0-3.6.8-4.8 2.3-1.2 1.4-1.7 3.3-1.4 5.2l4.6 26.3c.5 3 3.2 5.2 6.2 5.2h195.7c6.6 12.8 16.5 23.7 28.7 31.5 13 8.3 28 12.7 43.4 12.7 44.8 0 81.2-36.4 81.2-81.2.1-33.5-19.9-63-50.8-75.5zM16.3 257.1l-2.4-13.7h184.5c.6 4.5 1.7 9.1 3.1 13.7H16.3zm182-34.4c-.3 2.6-.5 5.4-.6 8.1H38.2c-1.6 0-2.9-1.3-2.9-3V61.6c0-1.6 1.3-2.9 2.9-2.9h231.4c1.6 0 2.9 1.3 2.9 2.9v90.3c-18.1 1.4-35.4 8.9-48.8 21.3-14.1 13-23.1 30.6-25.4 49.5zm129 58.5c-13 13-30.2 20.1-48.4 20.1-37.8 0-68.5-30.7-68.5-68.5 0-2.9.2-5.7.5-8.5 4.2-34.2 33.5-60 68-60 8.9 0 17.5 1.7 25.6 4.9 26.1 10.5 43 35.5 43 63.6-.1 18.2-7.3 35.4-20.2 48.4zm-43.4-54.3v-21c3.4 1 6.2 2.9 7.8 5.4 1.2 1.8 3.2 2.8 5.3 2.8 1.2 0 2.4-.4 3.5-1 1.4-.9 2.4-2.3 2.7-4 .3-1.7 0-3.3-.9-4.8-3.9-5.9-10.6-10.1-18.4-11.3v-10.2c0-3.5-2.8-6.3-6.3-6.3s-6.3 2.8-6.3 6.3v10.7c-11.3 2.9-19.4 12-19.4 22.3s8 19.5 19.4 22.3v20.6c-2.3-1.1-4.1-2.6-5.4-4.5-1.2-1.8-3.2-2.9-5.3-2.9-1.2 0-2.4.4-3.5 1-2.9 1.9-3.7 5.8-1.8 8.7 3.4 5.3 9.2 9.2 15.9 10.8v10.7c0 3.5 2.8 6.3 6.3 6.3s6.3-2.8 6.3-6.3v-10.2c12.6-2.1 21.8-11.6 21.8-22.8.1-11-9.1-20.5-21.7-22.6zm-12.6-2.1c-4.1-1.9-6.7-5.3-6.7-8.9 0-3.7 2.6-7 6.7-8.9v17.8zm12.6 34.8v-19.7c5.4 1.6 9.1 5.5 9.1 9.9.1 4.3-3.7 8.2-9.1 9.8zm-130-199.1c-4.5 0-8.2 3.7-8.2 8.2 0 2.2.9 4.3 2.4 5.8 1.6 1.6 3.6 2.4 5.8 2.4 4.5 0 8.2-3.7 8.2-8.2 0-4.5-3.7-8.2-8.2-8.2z"/></svg>