<svg version="1.1" xmlns="http://www.w3.org/2000/svg" xmlns:xlink="http://www.w3.org/1999/xlink" x="0px" y="0px"
	 width="535.6px" height="560px" viewBox="0 0 535.6 560" enable-background="new 0 0 535.6 560" xml:space="preserve">
<path id="payments" d="M161.7,300.3c-4.3-4.4-10.2-6.8-16.3-6.8c-6.2-0.1-12.1,2.4-16.3,6.8l-22.4,22.4c-9,9-9,23.6,0,32.7
	c0,0,0,0,0,0l3.4,3.4c4.3,4.4,10.2,6.8,16.3,6.8c6.2,0.1,12.1-2.4,16.3-6.8l22.4-22.4c4.4-4.3,6.8-10.2,6.8-16.3
	c0.1-6.2-2.4-12.1-6.8-16.3L161.7,300.3z M535.6,203.7c0.1-14.3-5.6-28.1-15.9-38.1L370,15.9C359.9,5.8,346.2,0.1,331.9,0
	c-14.3-0.1-28.1,5.6-38.1,15.9L15.9,293.8c-21,20.9-21.2,54.9-0.3,75.9c0.1,0.1,0.2,0.2,0.3,0.3l145.9,145.9H69.7
	c-12.2,0-22.1,9.9-22.1,22.1c0,12.2,9.9,22.1,22.1,22.1h249.4c12.2,0,22.1-9.9,22.1-22.1c0-12.2-9.9-22.1-22.1-22.1h-73.2l274-274
	C530,231.7,535.6,218,535.6,203.7L535.6,203.7z M488.6,210.7L210.7,488.6c-1.9,1.8-4.4,2.8-7,2.8c-2.6,0.1-5.2-0.9-7-2.8L47,338.9
	c-3.9-3.8-3.9-9.9-0.2-13.8c0.1-0.1,0.1-0.1,0.2-0.2L324.9,47c3.8-3.9,9.9-3.9,13.8-0.2c0.1,0.1,0.1,0.1,0.2,0.2l149.8,149.8
	c3.9,3.8,3.9,9.9,0.2,13.8C488.7,210.6,488.7,210.7,488.6,210.7L488.6,210.7z M419.7,168.4c-5.8,0-11.4,2.3-15.6,6.4l-223,222.8
	c-8.6,8.6-8.6,22.5,0,31.1c4.1,4.1,9.7,6.4,15.6,6.4c5.8,0,11.4-2.3,15.6-6.4l222.8-222.8c8.5-8.6,8.5-22.5-0.1-31.1c0,0,0,0,0,0
	C431,170.6,425.5,168.3,419.7,168.4L419.7,168.4z"/>
</svg>