<svg xmlns="http://www.w3.org/2000/svg" viewBox="0 0 360 360"><path d="M63.5 125.7h49.2c2.9 0 5.4-2.4 5.4-5.3 0-3-2.4-5.4-5.3-5.4H63.5c-3 .1-5.3 2.6-5.2 5.6 0 2.9 2.3 5.1 5.2 5.1zm72.9 15.8h16.3c2.9 0 5.3-2.4 5.4-5.3v-15.9c.1-3-2.1-5.5-5.1-5.6h-17.5c-2.5.2-4.5 2.7-4.4 5.5v15.9c-.1 3 2.4 5.4 5.3 5.4zm10.9-16v5.3h-5.5v-5.3h5.5zM327 168.2c-21.2-21.2-49.5-32.8-79.5-32.8-8.9 0-17.5 1-25.8 3 4.8-20.1 3.9-41-2.6-60.8C205 34.6 166.8 4.3 121.7.5c-3-.2-6-.4-9-.4C101 0 89.2 1.9 77.5 5.7 18.6 25-13.7 88.6 5.6 147.5c15.1 46.3 58.1 77.4 106.9 77.4 8.7 0 17.3-1 25.7-3-2 8.3-3 16.9-3 25.8 0 62 50.4 112.4 112.4 112.4 62 0 112.4-50.4 112.4-112.4 0-30.1-11.7-58.3-33-79.5zm-214.6 45.9c-44 0-82.8-28.2-96.6-70.1-17.4-53.2 11.8-110.6 65-128 10.3-3.4 21-5.1 31.7-5.1 44 0 82.8 28.2 96.6 70.1 6.5 19.9 6.8 40.8.9 60.6-.1.1-.1.3-.1.4-31.6 11.3-56.6 36.3-68 67.8-9.7 2.8-19.6 4.3-29.5 4.3zm135.2 135.3c-56 0-101.6-45.7-101.6-101.8 0-56 45.6-101.6 101.6-101.6 56 0 101.6 45.6 101.6 101.6 0 56.1-45.6 101.8-101.6 101.8zm67-123c-1-.9-2.3-1.4-3.6-1.4h-38.8l-19.5-42.4c-.4-1.4-1.4-2.6-2.8-3.2-.7-.3-1.5-.5-2.3-.5-.3 0-.7 0-1 .1-.7.2-1.3.4-1.9.8-.1.1-.2.2-.3.2h-.1c-.8.6-1.4 1.5-1.7 2.5L223 225.1h-38.7a5.378 5.378 0 0 0-4 9l29.8 32.5-9.9 43.3c0 .2-.1.3-.1.5V311.6c0 .2 0 .3.1.5.1.5.2 1 .5 1.5.1.1.1.3.2.4v.1c.1.1.2.2.2.3l.1.1.1.1.1.1.2.2.2.2c.1.1.2.1.3.2.1 0 .1.1.2.1.1.1.2.2.4.2 0 0 .1 0 .1.1.5.3 1 .5 1.5.6.4.1.8.1 1.2.1 1.3 0 2.5-.5 3.4-1.2l.1-.1 38.7-31.6 38.8 31.6c.9.8 2.2 1.3 3.5 1.3H290.7c.2 0 .3 0 .5-.1h.1c.3-.1.5-.2.8-.3.1 0 .1 0 .2-.1.1 0 .2-.1.3-.1.1 0 .1-.1.2-.1s.2-.1.2-.2c.1 0 .1-.1.2-.1.1-.1.2-.1.2-.2l.2-.2c.1-.1.2-.1.2-.2.1-.1.1-.1.1-.2l.1-.1.1-.1.1-.1c.1-.1.2-.3.3-.4.4-.6.6-1.2.7-1.9 0-.2 0-.3.1-.5v-.5-.3c0-.3-.1-.6-.2-1l-9.8-43.1 29.8-32.5c1.9-2.3 1.8-5.7-.5-7.7zm-39.1 35c-1.2 1.3-1.7 3-1.3 4.8l7 30.8-30-24.5c-1-.9-2.3-1.4-3.6-1.4h-.5c-1.1.1-2.1.6-2.9 1.3l-30 24.5 7-30.8c.3-1.7-.2-3.4-1.3-4.7l-23.3-25.5h30c2.1 0 4-1.2 4.9-3.1l16.2-35.5 15.4 33.8c.3 2.7 2.6 4.9 5.4 4.9H298.8l-23.3 25.4zm-92.7-109.5V99.2 72.9c0-2.9-2.5-5.4-5.4-5.4H46.9c-2.7.2-4.9 2.7-4.9 5.4-.1 17.6-.1 35.3 0 52.5v26.5c0 2.9 2.5 5.4 5.4 5.4h130c2.9 0 5.4-2.6 5.4-5.4zm-10.7-5.4H52.8v-45.3h119.3v45.3zm0-56.1H52.8V78.3h119.3v12.1z"/></svg>