<svg version="1.1" xmlns="http://www.w3.org/2000/svg" xmlns:xlink="http://www.w3.org/1999/xlink" x="0px" y="0px"
	 width="480.4px" height="560px" viewBox="0 0 480.4 560" enable-background="new 0 0 480.4 560" xml:space="preserve">
<path d="M471.8,110.3C404.3,85.9,340.1,53,280.7,12.6C268.8,4.4,255,0,240.5,0h-0.2c-14.5,0-28.3,4.5-40.1,12.6
	C140.8,52.9,76.5,85.7,9,110.3l-9,3.3v9.6c0.6,131.6,25.7,230.2,76.7,301.5c41.4,57.9,93.6,91.2,144.2,123.2l19.4,12.1l18.8-11.8
	c50.7-32.2,103.3-65.3,144.8-123.5c50.7-70.9,75.8-169.6,76.5-301.5v-9.6L471.8,110.3L471.8,110.3z M372.6,402
	c-36.7,51.3-85.1,82.3-132.1,112c-47-29.7-95.4-60.7-132.1-112c-43.9-61.3-66.6-146.8-69.1-261.5c64.4-24.9,125.8-57.1,182.9-96
	c5.4-3.7,11.7-5.6,18.2-5.6s12.8,1.9,18.2,5.6c57.1,38.9,118.5,71.2,183.1,96C439.2,255.1,416.6,340.7,372.6,402L372.6,402z
	 M184.2,132.8c-32.8,19.8-53.2,55.7-53.2,94.1c0,35.3,17.4,68.9,46,89.3l-3.4,92.7v0.5c0,8.9,5.1,17,13.4,20.5
	c2.8,1.2,5.6,1.9,8.6,1.9h0.2c5.3,0,10.4-2,14.5-5.6l30.3-26l29.9,25.7c4,3.7,9.3,5.8,14.8,5.8c3,0,5.9-0.6,8.6-1.7l0.2-0.2
	c8.2-3.7,13.5-12,13.2-21l-3.4-92.7c46.4-32.7,60.4-96.3,30.6-145.8c-10-16.5-24-30.2-40.8-39.5c-16.2-9-34.7-13.7-53.2-13.7
	C220.6,117.3,201.3,122.7,184.2,132.8L184.2,132.8z M255.5,361.8c-4-3.7-9.2-5.8-14.8-5.8c-5.4,0-10.7,2-14.8,5.8l-11.8,10.1
	l1.4-38.1c8.1,1.9,16.5,3,25,3c8.6,0,16.8-0.9,25-3l1.4,38L255.5,361.8z M276.3,166c20.7,12.1,33.9,34.2,34.8,58.2v2.8
	c0,24.3-12.8,47.1-33.3,59.9c-2.3,0.8-4.5,2-6.5,3.6c-9.5,4.7-20.2,7.2-30.8,7.2s-21.3-2.5-30.8-7.2c-1.9-1.6-4-2.8-6.5-3.6
	c-32.4-20.1-43.1-62.7-23.6-95.8c12.6-21.5,36.1-35,61-35C253.3,156.2,265.6,159.6,276.3,166L276.3,166z M195.4,240.2l21.5,21.5
	c3.7,3.7,8.6,5.8,13.7,5.8c4.7,0,9.2-1.7,12.8-4.7l40.9-35.3c3.9-3.4,6.4-8.1,6.7-13.2c0.5-5.1-1.2-10.1-4.7-14.2
	c-3.7-4.4-9-6.8-14.8-6.8c-4.7,0-9.2,1.7-12.6,4.7l-27.5,23.6l-8.9-8.9l-1.1-0.8c-3.3-2.2-6.8-3.3-10.7-3.3
	c-6.5,0-12.6,3.3-16.2,8.7c-4.4,6.7-4.2,15.4,0.3,21.9L195.4,240.2L195.4,240.2z"/>
</svg>