<svg version="1.1" xmlns="http://www.w3.org/2000/svg" xmlns:xlink="http://www.w3.org/1999/xlink" x="0px" y="0px"
	 width="486.5px" height="560px" viewBox="0 0 486.5 560" enable-background="new 0 0 486.5 560" xml:space="preserve">
<path id="schedule" d="M481.7,273.6l-44.8-44V11.3c0.2-6-4.4-11-10.4-11.3c-0.3,0-0.6,0-0.9,0H11.3C5.3-0.2,0.2,4.4,0,10.4
	c0,0.3,0,0.6,0,0.9v537.5c-0.2,6,4.4,11,10.4,11.3c0.3,0,0.6,0,0.8,0h415.4c6,0.2,11-4.4,11.3-10.4c0-0.3,0-0.6,0-0.9V333.1l44.8-44
	c2.3-2.1,3.7-5.2,3.7-8.3C485.7,278,484,275.4,481.7,273.6z M415.4,537.5H22.5v-515h392.9v212.7L248.3,399.4
	c-2.1,2.3-3.5,5.2-3.7,8.3l0.8,44c0,6.2,5.1,11.2,11.2,11.2l44,0.8l0,0c2.8,0.1,5.4-0.9,7.5-2.7l107.3-106.5V537.5z M296.9,440.6
	l-29-0.8l-0.8-27.9l162.5-159.6l29,29L296.9,440.6z M87.7,131.7c-0.2-6,4.4-11,10.4-11.2c0.3,0,0.6,0,0.8,0h240.8
	c6-0.2,11,4.4,11.3,10.4c0,0.3,0,0.6,0,0.9c0.3,5.9-4.2,10.9-10.2,11.2c-0.4,0-0.7,0-1.1,0H98.1C92.2,142.7,87.5,137.6,87.7,131.7z
	 M87.7,223.1c-0.2-6,4.4-11,10.4-11.2c0.3,0,0.6,0,0.8,0h240.8c6.2,0,11.3,5,11.3,11.2c0,6.2-5,11.3-11.3,11.3H98.1
	C92.2,234.1,87.5,229.1,87.7,223.1L87.7,223.1z M255.8,325.8H98.1c-6,0.2-11-4.4-11.2-10.4c0-0.3,0-0.6,0-0.9
	c-0.3-5.9,4.2-10.9,10.2-11.2c0.4,0,0.7,0,1.1,0h157.7c6.2,0,11.3,5,11.3,11.2C267.1,320.8,262.1,325.8,255.8,325.8L255.8,325.8z"/>
</svg>