<svg xmlns="http://www.w3.org/2000/svg" viewBox="0 0 360 360"><path d="M104.4 186.6c8 0 15.4-2.3 21.1-6.3l33.1 35.9c-5.1 6.8-8.6 14.8-8.6 24 0 21.1 17.1 38.8 38.8 38.8 21.7 0 38.8-17.1 38.8-38.8 0-8-2.3-15.4-6.3-21.1l66.2-77c6.3 4.6 14.3 7.4 22.8 7.4 21.1 0 38.8-17.1 38.8-38.8S332 71.9 310.4 71.9c-21.7 0-38.8 17.1-38.8 38.8 0 7.4 2.3 14.8 6.3 20.5l-66.2 77c-6.3-4.6-13.7-6.8-22.3-6.8-6.8 0-13.7 1.7-19.4 5.1L136.4 170c4.6-6.3 6.8-13.7 6.8-22.3 0-21.1-17.1-38.8-38.8-38.8-21.7 0-38.8 17.1-38.8 38.8s17.7 38.9 38.8 38.9zm206-100.5c13.7 0 24.5 10.8 24.5 24.5s-10.8 24.5-24.5 24.5-24.5-10.8-24.5-24.5c-.1-13.6 10.8-24.5 24.5-24.5zM188.8 215.7c13.7 0 24.5 10.8 24.5 24.5s-10.8 24.5-24.5 24.5-24.5-10.8-24.5-24.5 10.9-24.5 24.5-24.5zm-84.4-92.5c13.7 0 24.5 10.8 24.5 24.5s-10.8 24.5-24.5 24.5-24.5-10.8-24.5-24.5 11.4-24.5 24.5-24.5zM352.6 332H39.4V19.4c0-4-3.4-7.4-7.4-7.4s-6.8 3.4-6.8 7.4v43.4H7.4c-4 0-7.4 3.4-7.4 7.4s3.4 7.4 7.4 7.4h18.3v38.8H7.4c-4 0-7.4 3.4-7.4 7.4s3.4 7.4 7.4 7.4h18.3v39.4H7.4c-4 0-7.4 3.4-7.4 7.4s3.4 7.4 7.4 7.4h18.3v39.4H7.4c-4 0-7.4 3.4-7.4 7.4s3.4 7.4 7.4 7.4h18.3V279H7.4c-4 0-7.4 3.4-7.4 7.4s3.4 7.4 7.4 7.4h18.3v39.4H7.4c-4 0-7.4 3.4-7.4 7.4s3.4 7.4 7.4 7.4h345.2c4 0 7.4-3.4 7.4-7.4s-4-8.6-7.4-8.6z"/></svg>