<svg xmlns="http://www.w3.org/2000/svg" xmlns:xlink="http://www.w3.org/1999/xlink" viewBox="0 0 810 540" style="enable-background:new 0 0 810 540;" version="1.1" width="810" height="540">
	<rect class="st0" fill="#003399" width="810" height="540"/>
	<polygon class="st1" fill="#FFCC00" points="433.5,80.7 411.7,80.7 405,60 398.3,80.7 376.5,80.7 394.1,93.5 387.4,114.3 405,101.5 422.6,114.3
		415.9,93.5 	"/>
	<polygon class="st1" fill="#FFCC00" points="433.5,449.7 411.7,449.7 405,429 398.3,449.7 376.5,449.7 394.1,462.5 387.4,483.3 405,470.5
		422.6,483.3 415.9,462.5 	"/>
	<polygon class="st1" fill="#FFCC00" points="621.5,264.7 599.7,264.7 593,244 586.3,264.7 564.5,264.7 582.1,277.5 575.4,298.3 593,285.5
		610.6,298.3 603.9,277.5 	"/>
	<polygon class="st1" fill="#FFCC00" points="595.5,171.7 573.7,171.7 567,151 560.3,171.7 538.5,171.7 556.1,184.5 549.4,205.3 567,192.5
		584.6,205.3 577.9,184.5 	"/>
	<polygon class="st1" fill="#FFCC00" points="595.5,355.7 573.7,355.7 567,335 560.3,355.7 538.5,355.7 556.1,368.5 549.4,389.3 567,376.5
		584.6,389.3 577.9,368.5 	"/>
	<polygon class="st1" fill="#FFCC00" points="527.5,104.7 505.7,104.7 499,84 492.3,104.7 470.5,104.7 488.1,117.5 481.4,138.3 499,125.5
		516.6,138.3 509.9,117.5 	"/>
	<polygon class="st1" fill="#FFCC00" points="527.5,425.7 505.7,425.7 499,405 492.3,425.7 470.5,425.7 488.1,438.5 481.4,459.3 499,446.5
		516.6,459.3 509.9,438.5 	"/>
	<polygon class="st1" fill="#FFCC00" points="193.5,264.7 215.3,264.7 222,244 228.7,264.7 250.5,264.7 232.9,277.5 239.6,298.3 222,285.5
		204.4,298.3 211.1,277.5 	"/>
	<polygon class="st1" fill="#FFCC00" points="219.5,171.7 241.3,171.7 248,151 254.7,171.7 276.5,171.7 258.9,184.5 265.6,205.3 248,192.5
		230.4,205.3 237.1,184.5 	"/>
	<polygon class="st1" fill="#FFCC00" points="219.5,355.7 241.3,355.7 248,335 254.7,355.7 276.5,355.7 258.9,368.5 265.6,389.3 248,376.5
		230.4,389.3 237.1,368.5 	"/>
	<polygon class="st1" fill="#FFCC00" points="287.5,104.7 309.3,104.7 316,84 322.7,104.7 344.5,104.7 326.9,117.5 333.6,138.3 316,125.5
		298.4,138.3 305.1,117.5 	"/>
	<polygon class="st1" fill="#FFCC00" points="287.5,425.7 309.3,425.7 316,405 322.7,425.7 344.5,425.7 326.9,438.5 333.6,459.3 316,446.5
		298.4,459.3 305.1,438.5 	"/>
	<path class="st2" fill="#BD3D44" d="M270,0h-76.4H0v41.6h519.2L540,0H270z M0,540h270l20.3-40.6H0V540z M0,374.6h352.7l20.8-41.6H0V374.6z
		 M0,457.8h311.1l20.8-41.6H0V457.8z M0,291.3h394.3l20.8-41.6H0V291.3z M0,124.9h477.6l20.8-41.6H0V124.9z M0,208.1h436l20.8-41.6
		H0V208.1z"/>
	<path class="st3" fill="#FFFFFF" d="M0,499.4h290.3l20.8-41.6H0V499.4z M0,333h373.5l20.8-41.6H0V333z M0,416.2h331.9l20.8-41.6H0V416.2z M0,249.7
		h415.1l20.8-41.6H0V249.7z M0,41.6v41.6h498.4l20.8-41.6H0z M0,166.5h456.8l20.8-41.6H0V166.5z"/>
	<polygon class="st4" fill="#192F5D" points="411.2,257.6 411.2,0 270,0 193.6,0 0,0 0,291.3 394.3,291.3 	"/>
	<path class="st3" fill="#FFFFFF" d="M140.8,227.9l-3.7-11.5l-3.7,11.5h-12.1l9.8,7.1l-3.7,11.5l9.8-7.1l9.8,7.1l-3.7-11.5l9.8-7.1H140.8z
		 M137.1,99.9l-3.7,11.5h-12.1l9.8,7.1l-3.7,11.5l9.8-7.1l9.8,7.1l-3.7-11.5l9.8-7.1h-12.1L137.1,99.9z M137.1,41.6l-3.7,11.5h-12.1
		l9.8,7.1l-3.7,11.5l9.8-7.1l9.8,7.1l-3.7-11.5l9.8-7.1h-12.1L137.1,41.6z M102.8,12.5L99.1,24H87l9.8,7.1L93,42.6l9.8-7.1l9.8,7.1
		l-3.7-11.5l9.8-7.1h-12.1L102.8,12.5z M102.8,129l-3.7,11.5H87l9.8,7.1L93,159.1l9.8-7.1l9.8,7.1l-3.7-11.5l9.8-7.1h-12.1
		L102.8,129z M102.8,70.7l-3.7,11.5H87l9.8,7.1L93,100.9l9.8-7.1l9.8,7.1l-3.7-11.5l9.8-7.1h-12.1L102.8,70.7z M171.3,12.5L167.6,24
		h-12.1l9.8,7.1l-3.7,11.5l9.8-7.1l9.8,7.1l-3.7-11.5l9.8-7.1h-12.1L171.3,12.5z M171.3,70.7l-3.7,11.5h-12.1l9.8,7.1l-3.7,11.5
		l9.8-7.1l9.8,7.1l-3.7-11.5l9.8-7.1h-12.1L171.3,70.7z M175.1,257.1l-3.7-11.5l-3.7,11.5h-12.1l9.8,7.1l-3.7,11.5l9.8-7.1l9.8,7.1
		l-3.7-11.5l9.8-7.1H175.1z M171.3,187.3l-3.7,11.5h-12.1l9.8,7.1l-3.7,11.5l9.8-7.1l9.8,7.1l-3.7-11.5l9.8-7.1h-12.1L171.3,187.3z
		 M171.3,129l-3.7,11.5h-12.1l9.8,7.1l-3.7,11.5l9.8-7.1l9.8,7.1l-3.7-11.5l9.8-7.1h-12.1L171.3,129z M34.3,187.3l-3.7,11.5H18.4
		l9.8,7.1l-3.7,11.5l9.8-7.1l9.8,7.1l-3.7-11.5l9.8-7.1H38L34.3,187.3z M34.3,12.5L30.5,24H18.4l9.8,7.1l-3.7,11.5l9.8-7.1l9.8,7.1
		l-3.7-11.5l9.8-7.1H38L34.3,12.5z M34.3,70.7l-3.7,11.5H18.4l9.8,7.1l-3.7,11.5l9.8-7.1l9.8,7.1l-3.7-11.5l9.8-7.1H38L34.3,70.7z
		 M209.3,227.9l-3.7-11.5l-3.7,11.5h-12.1l9.8,7.1l-3.7,11.5l9.8-7.1l9.8,7.1l-3.7-11.5l9.8-7.1H209.3z M102.8,187.3l-3.7,11.5H87
		l9.8,7.1L93,217.4l9.8-7.1l9.8,7.1l-3.7-11.5l9.8-7.1h-12.1L102.8,187.3z M367.1,42.6l9.8-7.1l9.8,7.1L383,31.1l9.8-7.1h-12.1
		l-3.7-11.5L373.2,24h-12.1l9.8,7.1L367.1,42.6z M38,257.1l-3.7-11.5l-3.7,11.5H18.4l9.8,7.1l-3.7,11.5l9.8-7.1l9.8,7.1l-3.7-11.5
		l9.8-7.1H38z M34.3,129l-3.7,11.5H18.4l9.8,7.1l-3.7,11.5l9.8-7.1l9.8,7.1l-3.7-11.5l9.8-7.1H38L34.3,129z M106.5,257.1l-3.7-11.5
		l-3.7,11.5H87l9.8,7.1L93,275.7l9.8-7.1l9.8,7.1l-3.7-11.5l9.8-7.1H106.5z M68.5,41.6l-3.7,11.5H52.7l9.8,7.1l-3.7,11.5l9.8-7.1
		l9.8,7.1l-3.7-11.5l9.8-7.1H72.3L68.5,41.6z M68.5,99.9l-3.7,11.5H52.7l9.8,7.1L58.7,130l9.8-7.1l9.8,7.1l-3.7-11.5l9.8-7.1H72.3
		L68.5,99.9z M72.3,227.9l-3.7-11.5l-3.7,11.5H52.7l9.8,7.1l-3.7,11.5l9.8-7.1l9.8,7.1L74.6,235l9.8-7.1H72.3z M68.5,158.1
		l-3.7,11.5H52.7l9.8,7.1l-3.7,11.5l9.8-7.1l9.8,7.1l-3.7-11.5l9.8-7.1H72.3L68.5,158.1z M137.1,158.1l-3.7,11.5h-12.1l9.8,7.1
		l-3.7,11.5l9.8-7.1l9.8,7.1l-3.7-11.5l9.8-7.1h-12.1L137.1,158.1z M308.4,12.5L304.7,24h-12.1l9.8,7.1l-3.7,11.5l9.8-7.1l9.8,7.1
		l-3.7-11.5l9.8-7.1h-12.1L308.4,12.5z M346.4,227.9l-3.7-11.5l-3.7,11.5h-12.1l9.8,7.1l-3.7,11.5l9.8-7.1l9.8,7.1l-3.7-11.5
		l9.8-7.1H346.4z M342.7,158.1l-3.7,11.5h-12.1l9.8,7.1l-3.7,11.5l9.8-7.1l9.8,7.1l-3.7-11.5l9.8-7.1h-12.1L342.7,158.1z
		 M342.7,99.9l-3.7,11.5h-12.1l9.8,7.1l-3.7,11.5l9.8-7.1l9.8,7.1l-3.7-11.5l9.8-7.1h-12.1L342.7,99.9z M308.4,187.3l-3.7,11.5
		h-12.1l9.8,7.1l-3.7,11.5l9.8-7.1l9.8,7.1l-3.7-11.5l9.8-7.1h-12.1L308.4,187.3z M308.4,129l-3.7,11.5h-12.1l9.8,7.1l-3.7,11.5
		l9.8-7.1l9.8,7.1l-3.7-11.5l9.8-7.1h-12.1L308.4,129z M308.4,70.7l-3.7,11.5h-12.1l9.8,7.1l-3.7,11.5l9.8-7.1l9.8,7.1l-3.7-11.5
		l9.8-7.1h-12.1L308.4,70.7z M376.9,70.7l-3.7,11.5h-12.1l9.8,7.1l-3.7,11.5l9.8-7.1l9.8,7.1L383,89.4l9.8-7.1h-12.1L376.9,70.7z
		 M376.9,129l-3.7,11.5h-12.1l9.8,7.1l-3.7,11.5l9.8-7.1l9.8,7.1l-3.7-11.5l9.8-7.1h-12.1L376.9,129z M376.9,187.3l-3.7,11.5h-12.1
		l9.8,7.1l-3.7,11.5l9.8-7.1l9.8,7.1l-3.7-11.5l9.8-7.1h-12.1L376.9,187.3z M380.7,257.1l-3.7-11.5l-3.7,11.5h-12.1l9.8,7.1
		l-3.7,11.5l9.8-7.1l9.8,7.1l-3.7-11.5l9.8-7.1H380.7z M342.7,41.6l-3.7,11.5h-12.1l9.8,7.1l-3.7,11.5l9.8-7.1l9.8,7.1l-3.7-11.5
		l9.8-7.1h-12.1L342.7,41.6z M274.1,158.1l-3.7,11.5h-12.1l9.8,7.1l-3.7,11.5l9.8-7.1l9.8,7.1l-3.7-11.5l9.8-7.1h-12.1L274.1,158.1z
		 M239.9,70.7l-3.7,11.5H224l9.8,7.1l-3.7,11.5l9.8-7.1l9.8,7.1l-3.7-11.5l9.8-7.1h-12.1L239.9,70.7z M239.9,129l-3.7,11.5H224
		l9.8,7.1l-3.7,11.5l9.8-7.1l9.8,7.1l-3.7-11.5l9.8-7.1h-12.1L239.9,129z M243.6,257.1l-3.7-11.5l-3.7,11.5H224l9.8,7.1l-3.7,11.5
		l9.8-7.1l9.8,7.1l-3.7-11.5l9.8-7.1H243.6z M239.9,187.3l-3.7,11.5H224l9.8,7.1l-3.7,11.5l9.8-7.1l9.8,7.1l-3.7-11.5l9.8-7.1h-12.1
		L239.9,187.3z M205.6,99.9l-3.7,11.5h-12.1l9.8,7.1l-3.7,11.5l9.8-7.1l9.8,7.1l-3.7-11.5l9.8-7.1h-12.1L205.6,99.9z M205.6,41.6
		l-3.7,11.5h-12.1l9.8,7.1l-3.7,11.5l9.8-7.1l9.8,7.1l-3.7-11.5l9.8-7.1h-12.1L205.6,41.6z M274.1,41.6l-3.7,11.5h-12.1l9.8,7.1
		l-3.7,11.5l9.8-7.1l9.8,7.1l-3.7-11.5l9.8-7.1h-12.1L274.1,41.6z M274.1,99.9l-3.7,11.5h-12.1l9.8,7.1l-3.7,11.5l9.8-7.1l9.8,7.1
		l-3.7-11.5l9.8-7.1h-12.1L274.1,99.9z M239.9,12.5L236.1,24H224l9.8,7.1l-3.7,11.5l9.8-7.1l9.8,7.1l-3.7-11.5l9.8-7.1h-12.1
		L239.9,12.5z M312.1,257.1l-3.7-11.5l-3.7,11.5h-12.1l9.8,7.1l-3.7,11.5l9.8-7.1l9.8,7.1l-3.7-11.5l9.8-7.1H312.1z M277.9,227.9
		l-3.7-11.5l-3.7,11.5h-12.1l9.8,7.1l-3.7,11.5l9.8-7.1l9.8,7.1l-3.7-11.5l9.8-7.1H277.9z M205.6,158.1l-3.7,11.5h-12.1l9.8,7.1
		l-3.7,11.5l9.8-7.1l9.8,7.1l-3.7-11.5l9.8-7.1h-12.1L205.6,158.1z"/>
</svg>
